Hitchhike One.ufo
<glyph name="exclam" format="1">
  <advance width="215"/>
  <unicode hex="0021"/>
  <outline>
    <contour>
      <point x="31" y="194" type="curve" name="hr00"/>
      <point x="35" y="186"/>
      <point x="40" y="177"/>
      <point x="44" y="166" type="curve"/>
      <point x="55" y="172"/>
      <point x="69" y="177"/>
      <point x="74" y="185" type="curve"/>
      <point x="159" y="349"/>
      <point x="217" y="533"/>
      <point x="282" y="710" type="curve" smooth="yes"/>
      <point x="284" y="716"/>
      <point x="285" y="722"/>
      <point x="285" y="728" type="curve" smooth="yes"/>
      <point x="285" y="746"/>
      <point x="270" y="760"/>
      <point x="241" y="760" type="curve" smooth="yes"/>
      <point x="188" y="760"/>
      <point x="176" y="654"/>
      <point x="157" y="599" type="curve" smooth="yes"/>
      <point x="111" y="465"/>
      <point x="66" y="344"/>
    </contour>
    <contour>
      <point x="73" y="55" type="curve"/>
      <point x="67" y="74"/>
      <point x="62" y="94"/>
      <point x="32" y="94" type="curve" smooth="yes"/>
      <point x="1" y="94"/>
      <point x="-20" y="77"/>
      <point x="-20" y="52" type="curve" smooth="yes"/>
      <point x="-20" y="20"/>
      <point x="3" y="-12"/>
      <point x="23" y="-12" type="curve" smooth="yes"/>
      <point x="40" y="-12"/>
      <point x="73" y="31"/>
    </contour>
  </outline>
</glyph>
<glyph name="quotedbl" format="1">
  <advance width="306"/>
  <unicode hex="0022"/>
  <outline>
    <contour>
      <point x="178" y="711" type="curve" name="hr00"/>
      <point x="154" y="704"/>
      <point x="122" y="712"/>
      <point x="114" y="676" type="curve" smooth="yes"/>
      <point x="101" y="617"/>
      <point x="86" y="559"/>
      <point x="71" y="500" type="curve" smooth="yes"/>
      <point x="70" y="497"/>
      <point x="70" y="495"/>
      <point x="70" y="492" type="curve" smooth="yes"/>
      <point x="70" y="479"/>
      <point x="77" y="471"/>
      <point x="89" y="471" type="curve" smooth="yes"/>
      <point x="102" y="471"/>
      <point x="121" y="483"/>
      <point x="128" y="499" type="curve" smooth="yes"/>
      <point x="153" y="559"/>
      <point x="176" y="619"/>
      <point x="200" y="680" type="curve" smooth="yes"/>
      <point x="202" y="684"/>
      <point x="202" y="688"/>
      <point x="202" y="692" type="curve" smooth="yes"/>
      <point x="202" y="703"/>
      <point x="194" y="711"/>
    </contour>
    <contour>
      <point x="331" y="711" type="curve" smooth="yes"/>
      <point x="292" y="711"/>
      <point x="273" y="700"/>
      <point x="267" y="674" type="curve" smooth="yes"/>
      <point x="254" y="617"/>
      <point x="241" y="559"/>
      <point x="227" y="502" type="curve"/>
      <point x="227" y="500"/>
      <point x="226" y="497"/>
      <point x="226" y="494" type="curve" smooth="yes"/>
      <point x="226" y="476"/>
      <point x="234" y="473"/>
      <point x="245" y="473" type="curve" smooth="yes"/>
      <point x="260" y="473"/>
      <point x="278" y="486"/>
      <point x="285" y="502" type="curve" smooth="yes"/>
      <point x="308" y="560"/>
      <point x="331" y="619"/>
      <point x="353" y="677" type="curve" smooth="yes"/>
      <point x="355" y="682"/>
      <point x="356" y="687"/>
      <point x="356" y="691" type="curve" smooth="yes"/>
      <point x="356" y="704"/>
      <point x="347" y="711"/>
    </contour>
  </outline>
</glyph>
<glyph name="numbersign" format="1">
  <advance width="588"/>
  <unicode hex="0023"/>
  <outline>
    <contour>
      <point x="588" y="593" type="curve" name="hr00"/>
      <point x="587" y="591"/>
      <point x="587" y="588"/>
      <point x="586" y="587" type="curve"/>
      <point x="571" y="587" type="line" smooth="yes"/>
      <point x="540" y="587"/>
      <point x="528" y="592"/>
      <point x="528" y="612" type="curve" smooth="yes"/>
      <point x="528" y="640"/>
      <point x="544" y="680"/>
      <point x="544" y="704" type="curve" smooth="yes"/>
      <point x="544" y="719"/>
      <point x="536" y="735"/>
      <point x="510" y="735" type="curve" smooth="yes"/>
      <point x="469" y="735"/>
      <point x="464" y="668"/>
      <point x="454" y="629" type="curve" smooth="yes"/>
      <point x="435" y="554"/>
      <point x="425" y="568"/>
      <point x="324" y="549" type="curve" smooth="yes"/>
      <point x="316" y="548"/>
      <point x="308" y="547"/>
      <point x="303" y="547" type="curve" smooth="yes"/>
      <point x="287" y="547"/>
      <point x="280" y="552"/>
      <point x="280" y="565" type="curve" smooth="yes"/>
      <point x="280" y="592"/>
      <point x="309" y="653"/>
      <point x="309" y="692" type="curve" smooth="yes"/>
      <point x="309" y="710"/>
      <point x="297" y="728"/>
      <point x="284" y="728" type="curve" smooth="yes"/>
      <point x="227" y="728"/>
      <point x="215" y="623"/>
      <point x="202" y="568" type="curve"/>
      <point x="187" y="518"/>
      <point x="82" y="551"/>
      <point x="77" y="508" type="curve"/>
      <point x="77" y="461"/>
      <point x="173" y="497"/>
      <point x="173" y="455" type="curve" smooth="yes"/>
      <point x="173" y="435"/>
      <point x="158" y="407"/>
      <point x="156" y="382" type="curve" smooth="yes"/>
      <point x="151" y="326"/>
      <point x="125" y="292"/>
      <point x="65" y="292" type="curve" smooth="yes"/>
      <point x="56" y="292"/>
      <point x="40" y="275"/>
      <point x="40" y="270" type="curve"/>
      <point x="47" y="233"/>
      <point x="108" y="245"/>
      <point x="108" y="209" type="curve" smooth="yes"/>
      <point x="108" y="205"/>
      <point x="108" y="199"/>
      <point x="106" y="194" type="curve" smooth="yes"/>
      <point x="96" y="160"/>
      <point x="87" y="125"/>
      <point x="78" y="92" type="curve" smooth="yes"/>
      <point x="71" y="66"/>
      <point x="62" y="42"/>
      <point x="59" y="15" type="curve"/>
      <point x="59" y="4"/>
      <point x="70" y="-9"/>
      <point x="74" y="-23" type="curve"/>
      <point x="92" y="-8"/>
      <point x="111" y="-2"/>
      <point x="121" y="24" type="curve" smooth="yes"/>
      <point x="141" y="74"/>
      <point x="159" y="126"/>
      <point x="176" y="179" type="curve" smooth="yes"/>
      <point x="199" y="251"/>
      <point x="200" y="233"/>
      <point x="296" y="251" type="curve" smooth="yes"/>
      <point x="303" y="252"/>
      <point x="309" y="252"/>
      <point x="314" y="252" type="curve" smooth="yes"/>
      <point x="333" y="252"/>
      <point x="340" y="246"/>
      <point x="340" y="230" type="curve" smooth="yes"/>
      <point x="340" y="223"/>
      <point x="339" y="215"/>
      <point x="337" y="205" type="curve" smooth="yes"/>
      <point x="326" y="150"/>
      <point x="313" y="94"/>
      <point x="306" y="38" type="curve"/>
      <point x="306" y="23"/>
      <point x="321" y="7"/>
      <point x="328" y="-9" type="curve"/>
      <point x="340" y="1"/>
      <point x="356" y="10"/>
      <point x="360" y="23" type="curve" smooth="yes"/>
      <point x="379" y="79"/>
      <point x="398" y="138"/>
      <point x="411" y="198" type="curve" smooth="yes"/>
      <point x="422" y="249"/>
      <point x="439" y="283"/>
      <point x="498" y="283" type="curve" smooth="yes"/>
      <point x="513" y="283"/>
      <point x="541" y="303"/>
      <point x="554" y="314" type="curve"/>
      <point x="501" y="332"/>
      <point x="459" y="330"/>
      <point x="459" y="362" type="curve" smooth="yes"/>
      <point x="459" y="391"/>
      <point x="476" y="420"/>
      <point x="480" y="448" type="curve" smooth="yes"/>
      <point x="488" y="502"/>
      <point x="513" y="543"/>
      <point x="574" y="543" type="curve" smooth="yes"/>
      <point x="591" y="543"/>
      <point x="617" y="561"/>
      <point x="638" y="573" type="curve"/>
      <point x="622" y="580"/>
      <point x="605" y="586"/>
    </contour>
    <contour>
      <point x="268" y="307" type="curve"/>
      <point x="258" y="307" type="line" smooth="yes"/>
      <point x="232" y="307"/>
      <point x="220" y="313"/>
      <point x="220" y="330" type="curve" smooth="yes"/>
      <point x="220" y="335"/>
      <point x="221" y="341"/>
      <point x="223" y="347" type="curve" smooth="yes"/>
      <point x="233" y="388"/>
      <point x="248" y="477"/>
      <point x="268" y="482" type="curve" smooth="yes"/>
      <point x="307" y="492"/>
      <point x="352" y="502"/>
      <point x="392" y="503" type="curve"/>
      <point x="397" y="503"/>
      <point x="409" y="486"/>
      <point x="409" y="478" type="curve"/>
      <point x="409" y="477" type="line"/>
      <point x="397" y="427"/>
      <point x="380" y="328"/>
      <point x="345" y="322" type="curve"/>
      <point x="317" y="314"/>
      <point x="287" y="309"/>
    </contour>
  </outline>
</glyph>
<glyph name="dollar" format="1">
  <advance width="472"/>
  <unicode hex="0024"/>
  <outline>
    <contour>
      <point x="152" y="483" type="curve" smooth="yes" name="hr00"/>
      <point x="152" y="558"/>
      <point x="222" y="658"/>
      <point x="295" y="685" type="curve" smooth="yes"/>
      <point x="301" y="687"/>
      <point x="306" y="688"/>
      <point x="310" y="688" type="curve" smooth="yes"/>
      <point x="324" y="688"/>
      <point x="331" y="680"/>
      <point x="331" y="664" type="curve" smooth="yes"/>
      <point x="331" y="645"/>
      <point x="321" y="624"/>
      <point x="321" y="608" type="curve" smooth="yes"/>
      <point x="321" y="581"/>
      <point x="335" y="552"/>
      <point x="348" y="552" type="curve" smooth="yes"/>
      <point x="366" y="552"/>
      <point x="391" y="586"/>
      <point x="397" y="604" type="curve" smooth="yes"/>
      <point x="408" y="640"/>
      <point x="410" y="679"/>
      <point x="413" y="718" type="curve"/>
      <point x="413" y="761"/>
      <point x="371" y="767"/>
      <point x="371" y="795" type="curve" smooth="yes"/>
      <point x="371" y="813"/>
      <point x="385" y="833"/>
      <point x="385" y="857" type="curve" smooth="yes"/>
      <point x="385" y="876"/>
      <point x="378" y="898"/>
      <point x="366" y="898" type="curve" smooth="yes"/>
      <point x="353" y="898"/>
      <point x="328" y="838"/>
      <point x="320" y="805" type="curve"/>
      <point x="312" y="781"/>
      <point x="303" y="765"/>
      <point x="280" y="757" type="curve" smooth="yes"/>
      <point x="171" y="718"/>
      <point x="87" y="569"/>
      <point x="87" y="478" type="curve" smooth="yes"/>
      <point x="87" y="380"/>
      <point x="173" y="301"/>
      <point x="245" y="274" type="curve" smooth="yes"/>
      <point x="304" y="252"/>
      <point x="399" y="233"/>
      <point x="399" y="177" type="curve" smooth="yes"/>
      <point x="399" y="77"/>
      <point x="260" y="2"/>
      <point x="169" y="2" type="curve" smooth="yes"/>
      <point x="113" y="2"/>
      <point x="77" y="22"/>
      <point x="77" y="71" type="curve"/>
      <point x="76" y="97"/>
      <point x="90" y="131"/>
      <point x="103" y="162" type="curve" smooth="yes"/>
      <point x="120" y="202" type="line" smooth="yes"/>
      <point x="121" y="204"/>
      <point x="121" y="207"/>
      <point x="121" y="209" type="curve"/>
      <point x="121" y="215"/>
      <point x="120" y="220"/>
      <point x="120" y="225" type="curve"/>
      <point x="113" y="222"/>
      <point x="103" y="221"/>
      <point x="100" y="215" type="curve" smooth="yes"/>
      <point x="75" y="166"/>
      <point x="30" y="105"/>
      <point x="30" y="55" type="curve" smooth="yes"/>
      <point x="30" y="14"/>
      <point x="58" y="-19"/>
      <point x="100" y="-35" type="curve" smooth="yes"/>
      <point x="124" y="-44"/>
      <point x="133" y="-54"/>
      <point x="133" y="-72" type="curve" smooth="yes"/>
      <point x="133" y="-95"/>
      <point x="112" y="-129"/>
      <point x="112" y="-158" type="curve" smooth="yes"/>
      <point x="112" y="-167"/>
      <point x="118" y="-177"/>
      <point x="122" y="-184" type="curve"/>
      <point x="131" y="-180"/>
      <point x="145" y="-178"/>
      <point x="150" y="-171" type="curve"/>
      <point x="183" y="-108"/>
      <point x="174" y="-50"/>
      <point x="237" y="-39" type="curve"/>
      <point x="335" y="-16"/>
      <point x="452" y="74"/>
      <point x="452" y="170" type="curve" smooth="yes"/>
      <point x="452" y="213"/>
      <point x="430" y="258"/>
      <point x="386" y="281" type="curve" smooth="yes"/>
      <point x="348" y="301"/>
      <point x="309" y="309"/>
      <point x="273" y="326" type="curve" smooth="yes"/>
      <point x="189" y="365"/>
      <point x="152" y="407"/>
    </contour>
  </outline>
</glyph>
<glyph name="percent" format="1">
  <advance width="431"/>
  <unicode hex="0025"/>
  <outline>
    <contour>
      <point x="91" y="0" type="curve" name="hr00"/>
      <point x="103" y="12"/>
      <point x="117" y="22"/>
      <point x="123" y="36" type="curve" smooth="yes"/>
      <point x="203" y="229"/>
      <point x="276" y="425"/>
      <point x="347" y="622" type="curve" smooth="yes"/>
      <point x="362" y="664"/>
      <point x="378" y="706"/>
      <point x="388" y="750" type="curve"/>
      <point x="388" y="753" type="line" smooth="yes"/>
      <point x="388" y="763"/>
      <point x="378" y="777"/>
      <point x="375" y="789" type="curve"/>
      <point x="360" y="783"/>
      <point x="344" y="782"/>
      <point x="334" y="773" type="curve" smooth="yes"/>
      <point x="323" y="763"/>
      <point x="318" y="747"/>
      <point x="312" y="732" type="curve" smooth="yes"/>
      <point x="253" y="576"/>
      <point x="191" y="419"/>
      <point x="138" y="260" type="curve" smooth="yes"/>
      <point x="114" y="189"/>
      <point x="88" y="118"/>
      <point x="88" y="43" type="curve" smooth="yes"/>
      <point x="88" y="29"/>
      <point x="89" y="14"/>
    </contour>
    <contour>
      <point x="185" y="7" type="curve"/>
      <point x="205" y="-28"/>
      <point x="209" y="-49"/>
      <point x="248" y="-49" type="curve" smooth="yes"/>
      <point x="295" y="-49"/>
      <point x="345" y="25"/>
      <point x="370" y="70" type="curve" smooth="yes"/>
      <point x="390" y="105"/>
      <point x="401" y="126"/>
      <point x="401" y="143" type="curve" smooth="yes"/>
      <point x="401" y="164"/>
      <point x="384" y="179"/>
      <point x="345" y="206" type="curve" smooth="yes"/>
      <point x="336" y="213"/>
      <point x="328" y="216"/>
      <point x="320" y="216" type="curve" smooth="yes"/>
      <point x="300" y="216"/>
      <point x="241" y="139"/>
      <point x="219" y="101" type="curve" smooth="yes"/>
      <point x="204" y="74"/>
      <point x="198" y="42"/>
    </contour>
    <contour>
      <point x="80" y="628" type="curve"/>
      <point x="80" y="595"/>
      <point x="91" y="556"/>
      <point x="137" y="556" type="curve" smooth="yes"/>
      <point x="186" y="556"/>
      <point x="257" y="699"/>
      <point x="257" y="735" type="curve" smooth="yes"/>
      <point x="257" y="775"/>
      <point x="197" y="794"/>
      <point x="178" y="794" type="curve" smooth="yes"/>
      <point x="126" y="794"/>
      <point x="85" y="691"/>
    </contour>
    <contour>
      <point x="238" y="36" type="curve"/>
      <point x="259" y="72"/>
      <point x="281" y="111"/>
      <point x="304" y="149" type="curve" smooth="yes"/>
      <point x="307" y="153"/>
      <point x="318" y="156"/>
      <point x="326" y="156" type="curve" smooth="yes"/>
      <point x="336" y="156"/>
      <point x="345" y="140"/>
      <point x="345" y="129" type="curve"/>
      <point x="345" y="128"/>
      <point x="344" y="126"/>
      <point x="344" y="125" type="curve"/>
      <point x="322" y="87"/>
      <point x="300" y="52"/>
      <point x="275" y="16" type="curve"/>
      <point x="272" y="10"/>
      <point x="259" y="10"/>
      <point x="251" y="10" type="curve"/>
      <point x="247" y="12"/>
      <point x="245" y="22"/>
    </contour>
    <contour>
      <point x="206" y="719" type="curve"/>
      <point x="193" y="693"/>
      <point x="161" y="629"/>
      <point x="142" y="629" type="curve" smooth="yes"/>
      <point x="136" y="629"/>
      <point x="132" y="630"/>
      <point x="132" y="644" type="curve"/>
      <point x="132" y="646" type="line"/>
      <point x="143" y="678"/>
      <point x="158" y="743"/>
      <point x="189" y="743" type="curve" smooth="yes"/>
      <point x="198" y="743"/>
      <point x="199" y="734"/>
    </contour>
    <contour>
      <point x="91" y="0" type="curve"/>
      <point x="82" y="-16" type="line"/>
      <point x="84" y="-18"/>
      <point x="87" y="-18"/>
      <point x="88" y="-19" type="curve"/>
      <point x="89" y="-13"/>
      <point x="91" y="-6"/>
    </contour>
  </outline>
</glyph>
<glyph name="ampersand" format="1">
  <advance width="436"/>
  <unicode hex="0026"/>
  <outline>
    <contour>
      <point x="486" y="469" type="curve" name="hr00"/>
      <point x="478" y="478" type="line"/>
      <point x="408" y="441"/>
      <point x="342" y="393"/>
      <point x="273" y="349" type="curve" smooth="yes"/>
      <point x="250" y="335"/>
      <point x="224" y="323"/>
      <point x="202" y="307" type="curve"/>
      <point x="193" y="299"/>
      <point x="192" y="284"/>
      <point x="186" y="273" type="curve"/>
      <point x="198" y="269"/>
      <point x="209" y="263"/>
      <point x="221" y="263" type="curve" smooth="yes"/>
      <point x="231" y="263"/>
      <point x="240" y="271"/>
      <point x="250" y="274" type="curve" smooth="yes"/>
      <point x="258" y="276"/>
      <point x="264" y="276"/>
      <point x="272" y="278" type="curve"/>
      <point x="273" y="271"/>
      <point x="275" y="262"/>
      <point x="275" y="255" type="curve" smooth="yes"/>
      <point x="275" y="251" type="line"/>
      <point x="237" y="174"/>
      <point x="159" y="26"/>
      <point x="98" y="26" type="curve" smooth="yes"/>
      <point x="70" y="26"/>
      <point x="57" y="51"/>
      <point x="57" y="70" type="curve" smooth="yes"/>
      <point x="57" y="83"/>
      <point x="60" y="96"/>
      <point x="64" y="108" type="curve" smooth="yes"/>
      <point x="107" y="232"/>
      <point x="148" y="375"/>
      <point x="258" y="456" type="curve" smooth="yes"/>
      <point x="276" y="469"/>
      <point x="292" y="489"/>
      <point x="292" y="505" type="curve" smooth="yes"/>
      <point x="292" y="514"/>
      <point x="276" y="520"/>
      <point x="268" y="520" type="curve" smooth="yes"/>
      <point x="258" y="520"/>
      <point x="249" y="512"/>
      <point x="240" y="510" type="curve" smooth="yes"/>
      <point x="231" y="507"/>
      <point x="221" y="506"/>
      <point x="212" y="502" type="curve"/>
      <point x="211" y="512"/>
      <point x="206" y="523"/>
      <point x="206" y="532" type="curve"/>
      <point x="215" y="564"/>
      <point x="221" y="597"/>
      <point x="237" y="625" type="curve" smooth="yes"/>
      <point x="257" y="661"/>
      <point x="284" y="691"/>
      <point x="310" y="721" type="curve" smooth="yes"/>
      <point x="316" y="728"/>
      <point x="332" y="726"/>
      <point x="343" y="728" type="curve"/>
      <point x="344" y="719"/>
      <point x="346" y="711"/>
      <point x="346" y="703" type="curve" smooth="yes"/>
      <point x="346" y="688"/>
      <point x="339" y="678"/>
      <point x="336" y="663" type="curve"/>
      <point x="336" y="657"/>
      <point x="343" y="650"/>
      <point x="343" y="643" type="curve"/>
      <point x="384" y="659"/>
      <point x="396" y="709"/>
      <point x="396" y="736" type="curve" smooth="yes"/>
      <point x="396" y="755"/>
      <point x="388" y="782"/>
      <point x="348" y="782" type="curve" smooth="yes"/>
      <point x="329" y="782"/>
      <point x="306" y="776"/>
      <point x="290" y="764" type="curve" smooth="yes"/>
      <point x="190" y="692"/>
      <point x="152" y="581"/>
      <point x="152" y="461" type="curve" smooth="yes"/>
      <point x="152" y="446"/>
      <point x="151" y="432"/>
      <point x="145" y="419" type="curve" smooth="yes"/>
      <point x="90" y="306"/>
      <point x="0" y="189"/>
      <point x="0" y="54" type="curve" smooth="yes"/>
      <point x="0" y="4"/>
      <point x="37" y="-28"/>
      <point x="87" y="-28" type="curve" smooth="yes"/>
      <point x="131" y="-28"/>
      <point x="170" y="-4"/>
      <point x="196" y="28" type="curve" smooth="yes"/>
      <point x="255" y="103"/>
      <point x="330" y="204"/>
      <point x="343" y="292" type="curve" smooth="yes"/>
      <point x="352" y="355"/>
      <point x="420" y="394"/>
      <point x="463" y="435" type="curve" smooth="yes"/>
      <point x="473" y="444"/>
      <point x="478" y="457"/>
    </contour>
  </outline>
</glyph>
<glyph name="quotesingle" format="1">
  <advance width="151"/>
  <unicode hex="0027"/>
  <outline>
    <contour>
      <point x="172" y="717" type="curve" name="hr00"/>
      <point x="154" y="706"/>
      <point x="123" y="698"/>
      <point x="117" y="681" type="curve" smooth="yes"/>
      <point x="98" y="623"/>
      <point x="85" y="560"/>
      <point x="72" y="499" type="curve" smooth="yes"/>
      <point x="71" y="495"/>
      <point x="70" y="492"/>
      <point x="70" y="489" type="curve" smooth="yes"/>
      <point x="70" y="478"/>
      <point x="77" y="470"/>
      <point x="88" y="470" type="curve" smooth="yes"/>
      <point x="99" y="470"/>
      <point x="122" y="481"/>
      <point x="129" y="497" type="curve" smooth="yes"/>
      <point x="154" y="559"/>
      <point x="176" y="619"/>
      <point x="199" y="680" type="curve" smooth="yes"/>
      <point x="200" y="684"/>
      <point x="201" y="687"/>
      <point x="201" y="691" type="curve" smooth="yes"/>
      <point x="201" y="703"/>
      <point x="192" y="712"/>
    </contour>
  </outline>
</glyph>
<glyph name="parenleft" format="1">
  <advance width="290"/>
  <unicode hex="0028"/>
  <outline>
    <contour>
      <point x="50" y="101" type="curve" name="hr00"/>
      <point x="54" y="99"/>
      <point x="56" y="99"/>
      <point x="60" y="99" type="curve"/>
      <point x="60" y="92"/>
      <point x="59" y="86"/>
      <point x="59" y="80" type="curve" smooth="yes"/>
      <point x="59" y="29"/>
      <point x="81" y="-33"/>
      <point x="135" y="-33" type="curve" smooth="yes"/>
      <point x="143" y="-33" type="line"/>
      <point x="143" y="-26"/>
      <point x="144" y="-18"/>
      <point x="144" y="-10" type="curve" smooth="yes"/>
      <point x="144" y="9"/>
      <point x="129" y="27"/>
      <point x="129" y="46" type="curve" smooth="yes"/>
      <point x="129" y="110"/>
      <point x="128" y="174"/>
      <point x="139" y="236" type="curve" smooth="yes"/>
      <point x="153" y="319"/>
      <point x="178" y="398"/>
      <point x="201" y="476" type="curve" smooth="yes"/>
      <point x="229" y="568"/>
      <point x="265" y="656"/>
      <point x="336" y="726" type="curve"/>
      <point x="344" y="735"/>
      <point x="346" y="750"/>
      <point x="350" y="763" type="curve"/>
      <point x="339" y="764"/>
      <point x="328" y="765"/>
      <point x="317" y="765" type="curve" smooth="yes"/>
      <point x="301" y="765"/>
      <point x="297" y="762"/>
      <point x="286" y="753" type="curve"/>
      <point x="251" y="703"/>
      <point x="210" y="656"/>
      <point x="182" y="602" type="curve" smooth="yes"/>
      <point x="106" y="453"/>
      <point x="84" y="269"/>
    </contour>
  </outline>
</glyph>
<glyph name="parenright" format="1">
  <advance width="290"/>
  <unicode hex="0029"/>
  <outline>
    <contour>
      <point x="260" y="551" type="curve" name="hr00"/>
      <point x="260" y="606" type="line" smooth="yes"/>
      <point x="260" y="662"/>
      <point x="245" y="713"/>
      <point x="204" y="753" type="curve" smooth="yes"/>
      <point x="196" y="760"/>
      <point x="181" y="759"/>
      <point x="169" y="762" type="curve"/>
      <point x="169" y="756"/>
      <point x="168" y="749"/>
      <point x="168" y="743" type="curve" smooth="yes"/>
      <point x="168" y="739"/>
      <point x="168" y="735"/>
      <point x="170" y="732" type="curve" smooth="yes"/>
      <point x="194" y="686"/>
      <point x="204" y="640"/>
      <point x="204" y="593" type="curve" smooth="yes"/>
      <point x="204" y="555"/>
      <point x="197" y="518"/>
      <point x="186" y="480" type="curve" smooth="yes"/>
      <point x="145" y="334"/>
      <point x="77" y="199"/>
      <point x="-2" y="69" type="curve" smooth="yes"/>
      <point x="-18" y="43"/>
      <point x="-50" y="-1"/>
      <point x="-50" y="-24" type="curve" smooth="yes"/>
      <point x="-50" y="-32"/>
      <point x="-47" y="-41"/>
      <point x="-47" y="-49" type="curve"/>
      <point x="-37" y="-48"/>
      <point x="-23" y="-48"/>
      <point x="-15" y="-42" type="curve"/>
      <point x="5" y="-22"/>
      <point x="28" y="-1"/>
      <point x="42" y="24" type="curve" smooth="yes"/>
      <point x="98" y="127"/>
      <point x="153" y="229"/>
      <point x="204" y="334" type="curve" smooth="yes"/>
      <point x="237" y="402"/>
      <point x="260" y="476"/>
    </contour>
  </outline>
</glyph>
<glyph name="asterisk" format="1">
  <advance width="260"/>
  <unicode hex="002A"/>
  <outline>
    <contour>
      <point x="280" y="611" type="curve" name="hr00"/>
      <point x="275" y="610"/>
      <point x="270" y="610"/>
      <point x="266" y="610" type="curve" smooth="yes"/>
      <point x="248" y="610"/>
      <point x="242" y="618"/>
      <point x="242" y="630" type="curve" smooth="yes"/>
      <point x="242" y="640"/>
      <point x="246" y="654"/>
      <point x="250" y="664" type="curve"/>
      <point x="250" y="711" type="line"/>
      <point x="236" y="701"/>
      <point x="223" y="694"/>
      <point x="210" y="686" type="curve"/>
      <point x="206" y="681" type="line" smooth="yes"/>
      <point x="185" y="654"/>
      <point x="135" y="620"/>
      <point x="103" y="608" type="curve" smooth="yes"/>
      <point x="93" y="605"/>
      <point x="87" y="595"/>
      <point x="80" y="588" type="curve"/>
      <point x="119" y="543"/>
      <point x="145" y="562"/>
      <point x="145" y="542" type="curve" smooth="yes"/>
      <point x="145" y="534"/>
      <point x="137" y="523"/>
      <point x="121" y="503" type="curve"/>
      <point x="114" y="496"/>
      <point x="115" y="489"/>
      <point x="115" y="481" type="curve" smooth="yes"/>
      <point x="115" y="471"/>
      <point x="119" y="467"/>
      <point x="129" y="467" type="curve" smooth="yes"/>
      <point x="157" y="467"/>
      <point x="172" y="510"/>
      <point x="194" y="510" type="curve" smooth="yes"/>
      <point x="217" y="510"/>
      <point x="222" y="464"/>
      <point x="249" y="464" type="curve" smooth="yes"/>
      <point x="270" y="464"/>
      <point x="277" y="482"/>
      <point x="277" y="495" type="curve" smooth="yes"/>
      <point x="277" y="507"/>
      <point x="271" y="519"/>
      <point x="271" y="531" type="curve" smooth="yes"/>
      <point x="271" y="555"/>
      <point x="300" y="564"/>
      <point x="300" y="591" type="curve" smooth="yes"/>
      <point x="300" y="606"/>
      <point x="287" y="606"/>
    </contour>
  </outline>
</glyph>
<glyph name="plus" format="1">
  <advance width="409"/>
  <unicode hex="002B"/>
  <outline>
    <contour>
      <point x="51" y="291" type="curve" name="hr00"/>
      <point x="41" y="288"/>
      <point x="20" y="280"/>
      <point x="20" y="270" type="curve" smooth="yes"/>
      <point x="20" y="252"/>
      <point x="42" y="252"/>
      <point x="58" y="249" type="curve"/>
      <point x="111" y="245" type="line"/>
      <point x="135" y="241"/>
      <point x="145" y="237"/>
      <point x="145" y="223" type="curve" smooth="yes"/>
      <point x="145" y="217"/>
      <point x="143" y="211"/>
      <point x="141" y="202" type="curve"/>
      <point x="107" y="89" type="line" smooth="yes"/>
      <point x="105" y="83"/>
      <point x="104" y="77"/>
      <point x="104" y="71" type="curve" smooth="yes"/>
      <point x="104" y="57"/>
      <point x="113" y="41"/>
      <point x="136" y="41" type="curve" smooth="yes"/>
      <point x="169" y="41"/>
      <point x="199" y="152"/>
      <point x="220" y="206" type="curve"/>
      <point x="236" y="262"/>
      <point x="311" y="256"/>
      <point x="364" y="274" type="curve" smooth="yes"/>
      <point x="377" y="278"/>
      <point x="388" y="294"/>
      <point x="399" y="304" type="curve"/>
      <point x="386" y="305"/>
      <point x="373" y="310"/>
      <point x="360" y="310" type="curve" smooth="yes"/>
      <point x="332" y="310"/>
      <point x="307" y="294"/>
      <point x="279" y="294" type="curve" smooth="yes"/>
      <point x="264" y="294"/>
      <point x="255" y="300"/>
      <point x="255" y="312" type="curve" smooth="yes"/>
      <point x="255" y="316"/>
      <point x="257" y="321"/>
      <point x="259" y="327" type="curve" smooth="yes"/>
      <point x="271" y="360"/>
      <point x="282" y="395"/>
      <point x="291" y="430" type="curve"/>
      <point x="291" y="436" type="line" smooth="yes"/>
      <point x="291" y="459"/>
      <point x="281" y="473"/>
      <point x="272" y="473" type="curve" smooth="yes"/>
      <point x="218" y="473"/>
      <point x="186" y="426"/>
      <point x="186" y="380" type="curve" smooth="yes"/>
      <point x="186" y="369"/>
      <point x="190" y="356"/>
      <point x="190" y="345" type="curve" smooth="yes"/>
      <point x="190" y="307"/>
      <point x="161" y="284"/>
      <point x="119" y="284" type="curve" smooth="yes"/>
      <point x="100" y="284"/>
      <point x="85" y="288"/>
    </contour>
  </outline>
</glyph>
<glyph name="comma" format="1">
  <advance width="141"/>
  <unicode hex="002C"/>
  <outline>
    <contour>
      <point x="10" y="-90" type="curve" name="hr00"/>
      <point x="20" y="-100"/>
      <point x="27" y="-113"/>
      <point x="33" y="-115" type="curve"/>
      <point x="68" y="-115"/>
      <point x="94" y="-35"/>
      <point x="110" y="11" type="curve" smooth="yes"/>
      <point x="111" y="13"/>
      <point x="111" y="16"/>
      <point x="111" y="18" type="curve"/>
      <point x="111" y="29"/>
      <point x="105" y="42"/>
      <point x="104" y="53" type="curve"/>
      <point x="90" y="49"/>
      <point x="67" y="47"/>
      <point x="61" y="38" type="curve"/>
      <point x="43" y="-2"/>
      <point x="28" y="-46"/>
    </contour>
  </outline>
</glyph>
<glyph name="period" format="1">
  <advance width="151"/>
  <unicode hex="002E"/>
  <outline>
    <contour>
      <point x="121" y="55" type="curve" smooth="yes" name="hr00"/>
      <point x="121" y="81"/>
      <point x="98" y="103"/>
      <point x="78" y="103" type="curve" smooth="yes"/>
      <point x="43" y="103"/>
      <point x="10" y="75"/>
      <point x="10" y="43" type="curve" smooth="yes"/>
      <point x="10" y="18"/>
      <point x="44" y="-12"/>
      <point x="67" y="-12" type="curve" smooth="yes"/>
      <point x="91" y="-12"/>
      <point x="121" y="28"/>
    </contour>
  </outline>
</glyph>
<glyph name="slash" format="1">
  <advance width="361"/>
  <unicode hex="002F"/>
  <outline>
    <contour>
      <point x="411" y="728" type="curve" name="hr00"/>
      <point x="403" y="733"/>
      <point x="394" y="745"/>
      <point x="385" y="745" type="curve" smooth="yes"/>
      <point x="331" y="745"/>
      <point x="317" y="680"/>
      <point x="297" y="639" type="curve" smooth="yes"/>
      <point x="201" y="444" type="line" smooth="yes"/>
      <point x="133" y="306"/>
      <point x="55" y="167"/>
      <point x="1" y="31" type="curve" smooth="yes"/>
      <point x="0" y="29"/>
      <point x="0" y="26"/>
      <point x="0" y="24" type="curve"/>
      <point x="0" y="13"/>
      <point x="5" y="1"/>
      <point x="8" y="-9" type="curve"/>
      <point x="20" y="-5"/>
      <point x="37" y="-5"/>
      <point x="44" y="4" type="curve" smooth="yes"/>
      <point x="71" y="39"/>
      <point x="96" y="74"/>
      <point x="116" y="114" type="curve" smooth="yes"/>
      <point x="210" y="306"/>
      <point x="306" y="498"/>
      <point x="400" y="692" type="curve" smooth="yes"/>
      <point x="404" y="700"/>
      <point x="407" y="711"/>
    </contour>
  </outline>
</glyph>
<glyph name="zero" format="1">
  <advance width="426"/>
  <unicode hex="0030"/>
  <outline>
    <contour>
      <point x="20" y="153" type="curve" name="hr00"/>
      <point x="20" y="60"/>
      <point x="49" y="6"/>
      <point x="113" y="6" type="curve" smooth="yes"/>
      <point x="140" y="6"/>
      <point x="191" y="21"/>
      <point x="210" y="51" type="curve"/>
      <point x="252" y="103"/>
      <point x="291" y="155"/>
      <point x="329" y="209" type="curve" smooth="yes"/>
      <point x="388" y="292"/>
      <point x="406" y="385"/>
      <point x="406" y="485" type="curve" smooth="yes"/>
      <point x="406" y="525"/>
      <point x="398" y="563"/>
      <point x="370" y="596" type="curve" smooth="yes"/>
      <point x="363" y="604"/>
      <point x="359" y="611"/>
      <point x="359" y="618" type="curve" smooth="yes"/>
      <point x="359" y="632"/>
      <point x="376" y="644"/>
      <point x="376" y="661" type="curve" smooth="yes"/>
      <point x="376" y="673"/>
      <point x="364" y="682"/>
      <point x="348" y="682" type="curve"/>
      <point x="321" y="673"/>
      <point x="290" y="669"/>
      <point x="271" y="651" type="curve" smooth="yes"/>
      <point x="129" y="516"/>
      <point x="37" y="334"/>
    </contour>
    <contour>
      <point x="370" y="455" type="curve"/>
      <point x="367" y="299"/>
      <point x="271" y="156"/>
      <point x="148" y="68" type="curve"/>
      <point x="139" y="60"/>
      <point x="130" y="57"/>
      <point x="122" y="57" type="curve" smooth="yes"/>
      <point x="100" y="57"/>
      <point x="81" y="88"/>
      <point x="81" y="127" type="curve" smooth="yes"/>
      <point x="81" y="130"/>
      <point x="82" y="133"/>
      <point x="82" y="136" type="curve"/>
      <point x="95" y="302"/>
      <point x="162" y="422"/>
      <point x="276" y="563" type="curve" smooth="yes"/>
      <point x="286" y="576"/>
      <point x="300" y="582"/>
      <point x="313" y="582" type="curve" smooth="yes"/>
      <point x="362" y="582"/>
      <point x="362" y="506"/>
    </contour>
  </outline>
</glyph>
<glyph name="one" format="1">
  <advance width="276"/>
  <unicode hex="0031"/>
  <outline>
    <contour>
      <point x="30" y="64" type="curve" name="hr00"/>
      <point x="37" y="33"/>
      <point x="49" y="-2"/>
      <point x="83" y="-2" type="curve" smooth="yes"/>
      <point x="113" y="-2"/>
      <point x="100" y="72"/>
      <point x="112" y="111" type="curve" smooth="yes"/>
      <point x="168" y="299"/>
      <point x="241" y="482"/>
      <point x="305" y="666" type="curve" smooth="yes"/>
      <point x="306" y="669"/>
      <point x="306" y="672"/>
      <point x="306" y="676" type="curve" smooth="yes"/>
      <point x="306" y="687"/>
      <point x="301" y="702"/>
      <point x="299" y="714" type="curve"/>
      <point x="282" y="712"/>
      <point x="261" y="712"/>
      <point x="248" y="706" type="curve"/>
      <point x="220" y="688"/>
      <point x="96" y="567"/>
      <point x="73" y="546" type="curve"/>
      <point x="65" y="540"/>
      <point x="58" y="530"/>
      <point x="56" y="523" type="curve"/>
      <point x="56" y="518"/>
      <point x="70" y="506"/>
      <point x="78" y="506" type="curve" smooth="yes"/>
      <point x="102" y="506"/>
      <point x="182" y="572"/>
      <point x="194" y="572" type="curve"/>
      <point x="195" y="572"/>
      <point x="195" y="572"/>
      <point x="195" y="571" type="curve"/>
      <point x="195" y="569" type="line"/>
      <point x="144" y="422"/>
      <point x="96" y="275"/>
      <point x="45" y="128" type="curve" smooth="yes"/>
      <point x="38" y="107"/>
      <point x="34" y="86"/>
    </contour>
  </outline>
</glyph>
<glyph name="two" format="1">
  <advance width="406"/>
  <unicode hex="0032"/>
  <outline>
    <contour>
      <point x="396" y="622" type="curve" name="hr00"/>
      <point x="396" y="673"/>
      <point x="347" y="728"/>
      <point x="314" y="728" type="curve" smooth="yes"/>
      <point x="264" y="728"/>
      <point x="208" y="696"/>
      <point x="208" y="657" type="curve"/>
      <point x="214" y="657"/>
      <point x="220" y="655"/>
      <point x="225" y="655" type="curve" smooth="yes"/>
      <point x="251" y="655"/>
      <point x="271" y="687"/>
      <point x="299" y="687" type="curve" smooth="yes"/>
      <point x="322" y="687"/>
      <point x="341" y="661"/>
      <point x="341" y="639" type="curve" smooth="yes"/>
      <point x="341" y="631"/>
      <point x="338" y="623"/>
      <point x="334" y="615" type="curve" smooth="yes"/>
      <point x="302" y="555"/>
      <point x="272" y="494"/>
      <point x="233" y="440" type="curve" smooth="yes"/>
      <point x="142" y="312"/>
      <point x="37" y="193"/>
      <point x="-40" y="55" type="curve" smooth="yes"/>
      <point x="-49" y="40"/>
      <point x="-60" y="26"/>
      <point x="-60" y="13" type="curve" smooth="yes"/>
      <point x="-60" y="1"/>
      <point x="-41" y="-21"/>
      <point x="-24" y="-21" type="curve" smooth="yes"/>
      <point x="-7" y="-21"/>
      <point x="5" y="-2"/>
      <point x="17" y="11" type="curve"/>
      <point x="122" y="203"/>
      <point x="359" y="166"/>
      <point x="404" y="184" type="curve" smooth="yes"/>
      <point x="413" y="188"/>
      <point x="419" y="200"/>
      <point x="426" y="207" type="curve"/>
      <point x="417" y="213"/>
      <point x="409" y="223"/>
      <point x="398" y="225" type="curve"/>
      <point x="385" y="225"/>
      <point x="341" y="227"/>
      <point x="296" y="227" type="curve" smooth="yes"/>
      <point x="235" y="227"/>
      <point x="187" y="216"/>
      <point x="177" y="216" type="curve" smooth="yes"/>
      <point x="170" y="216"/>
      <point x="163" y="217"/>
      <point x="157" y="217" type="curve"/>
      <point x="163" y="230"/>
      <point x="165" y="241"/>
      <point x="176" y="257" type="curve" smooth="yes"/>
      <point x="229" y="333"/>
      <point x="286" y="406"/>
      <point x="338" y="482" type="curve" smooth="yes"/>
      <point x="368" y="526"/>
      <point x="391" y="574"/>
    </contour>
  </outline>
</glyph>
<glyph name="three" format="1">
  <advance width="477"/>
  <unicode hex="0033"/>
  <outline>
    <contour>
      <point x="-80" y="-57" type="curve" name="hr00"/>
      <point x="-80" y="-100"/>
      <point x="-40" y="-145"/>
      <point x="-2" y="-145" type="curve" smooth="yes"/>
      <point x="13" y="-145"/>
      <point x="31" y="-133"/>
      <point x="45" y="-121" type="curve"/>
      <point x="92" y="-91"/>
      <point x="147" y="-66"/>
      <point x="184" y="-25" type="curve" smooth="yes"/>
      <point x="296" y="98"/>
      <point x="408" y="232"/>
      <point x="461" y="396" type="curve" smooth="yes"/>
      <point x="465" y="408"/>
      <point x="467" y="419"/>
      <point x="467" y="431" type="curve" smooth="yes"/>
      <point x="467" y="481"/>
      <point x="429" y="522"/>
      <point x="374" y="532" type="curve" smooth="yes"/>
      <point x="360" y="534"/>
      <point x="352" y="539"/>
      <point x="352" y="546" type="curve" smooth="yes"/>
      <point x="352" y="571"/>
      <point x="446" y="653"/>
      <point x="446" y="689" type="curve" smooth="yes"/>
      <point x="446" y="713"/>
      <point x="407" y="767"/>
      <point x="368" y="767" type="curve" smooth="yes"/>
      <point x="300" y="767"/>
      <point x="235" y="715"/>
      <point x="178" y="672" type="curve" smooth="yes"/>
      <point x="176" y="670"/>
      <point x="176" y="665"/>
      <point x="176" y="660" type="curve" smooth="yes"/>
      <point x="176" y="650"/>
      <point x="175" y="650"/>
      <point x="185" y="650" type="curve" smooth="yes"/>
      <point x="202" y="650"/>
      <point x="208" y="661"/>
      <point x="220" y="667" type="curve" smooth="yes"/>
      <point x="251" y="681"/>
      <point x="297" y="709"/>
      <point x="329" y="709" type="curve" smooth="yes"/>
      <point x="344" y="709"/>
      <point x="361" y="702"/>
      <point x="378" y="700" type="curve"/>
      <point x="369" y="682"/>
      <point x="365" y="663"/>
      <point x="352" y="650" type="curve" smooth="yes"/>
      <point x="288" y="585"/>
      <point x="220" y="520"/>
      <point x="153" y="458" type="curve" smooth="yes"/>
      <point x="141" y="447"/>
      <point x="131" y="434"/>
      <point x="131" y="421" type="curve" smooth="yes"/>
      <point x="131" y="403"/>
      <point x="149" y="384"/>
      <point x="162" y="384" type="curve" smooth="yes"/>
      <point x="172" y="384"/>
      <point x="184" y="390"/>
      <point x="195" y="397" type="curve" smooth="yes"/>
      <point x="242" y="425"/>
      <point x="288" y="463"/>
      <point x="346" y="463" type="curve" smooth="yes"/>
      <point x="373" y="463"/>
      <point x="388" y="448"/>
      <point x="388" y="424" type="curve" smooth="yes"/>
      <point x="388" y="399"/>
      <point x="372" y="351"/>
      <point x="356" y="328" type="curve"/>
      <point x="271" y="178"/>
      <point x="175" y="40"/>
      <point x="22" y="-57" type="curve" smooth="yes"/>
      <point x="19" y="-59"/>
      <point x="14" y="-60"/>
      <point x="9" y="-60" type="curve" smooth="yes"/>
      <point x="-5" y="-60"/>
      <point x="-14" y="-56"/>
      <point x="-14" y="-40" type="curve" smooth="yes"/>
      <point x="-14" y="-15"/>
      <point x="19" y="32"/>
      <point x="35" y="57" type="curve" smooth="yes"/>
      <point x="56" y="90"/>
      <point x="88" y="119"/>
      <point x="99" y="160" type="curve"/>
      <point x="92" y="156"/>
      <point x="84" y="158"/>
      <point x="80" y="154" type="curve" smooth="yes"/>
      <point x="17" y="95"/>
      <point x="-77" y="28"/>
    </contour>
  </outline>
</glyph>
<glyph name="four" format="1">
  <advance width="424"/>
  <unicode hex="0034"/>
  <outline>
    <contour>
      <point x="165" y="32" type="curve" name="hr00"/>
      <point x="171" y="-3"/>
      <point x="177" y="-24"/>
      <point x="194" y="-24" type="curve" smooth="yes"/>
      <point x="222" y="-24"/>
      <point x="253" y="34"/>
      <point x="256" y="67" type="curve"/>
      <point x="256" y="85"/>
      <point x="305" y="246"/>
      <point x="323" y="308" type="curve" smooth="yes"/>
      <point x="331" y="335"/>
      <point x="341" y="358"/>
      <point x="371" y="367" type="curve"/>
      <point x="377" y="367"/>
      <point x="386" y="386"/>
      <point x="386" y="392" type="curve"/>
      <point x="386" y="394" type="line"/>
      <point x="374" y="407"/>
      <point x="370" y="419"/>
      <point x="370" y="430" type="curve" smooth="yes"/>
      <point x="370" y="455"/>
      <point x="454" y="639"/>
      <point x="454" y="707" type="curve" smooth="yes"/>
      <point x="454" y="723"/>
      <point x="441" y="721"/>
      <point x="435" y="721" type="curve" smooth="yes"/>
      <point x="406" y="721"/>
      <point x="389" y="671"/>
      <point x="376" y="638" type="curve" smooth="yes"/>
      <point x="349" y="571"/>
      <point x="320" y="508"/>
      <point x="295" y="442" type="curve" smooth="yes"/>
      <point x="280" y="403"/>
      <point x="208" y="392"/>
      <point x="174" y="392" type="curve" smooth="yes"/>
      <point x="166" y="392"/>
      <point x="158" y="393"/>
      <point x="150" y="393" type="curve"/>
      <point x="154" y="403"/>
      <point x="152" y="416"/>
      <point x="156" y="425" type="curve"/>
      <point x="182" y="469"/>
      <point x="263" y="648"/>
      <point x="276" y="695" type="curve"/>
      <point x="276" y="697" type="line"/>
      <point x="276" y="703"/>
      <point x="265" y="713"/>
      <point x="261" y="721" type="curve"/>
      <point x="254" y="716"/>
      <point x="246" y="710"/>
      <point x="241" y="701" type="curve" smooth="yes"/>
      <point x="209" y="632"/>
      <point x="181" y="562"/>
      <point x="146" y="495" type="curve" smooth="yes"/>
      <point x="115" y="437"/>
      <point x="84" y="378"/>
      <point x="28" y="337" type="curve"/>
      <point x="18" y="332"/>
      <point x="10" y="321"/>
      <point x="10" y="311" type="curve" smooth="yes"/>
      <point x="10" y="300"/>
      <point x="13" y="277"/>
      <point x="22" y="277" type="curve" smooth="yes"/>
      <point x="52" y="277"/>
      <point x="72" y="304"/>
      <point x="99" y="312" type="curve" smooth="yes"/>
      <point x="138" y="324"/>
      <point x="191" y="344"/>
      <point x="227" y="344" type="curve" smooth="yes"/>
      <point x="240" y="344"/>
      <point x="247" y="337"/>
      <point x="247" y="323" type="curve" smooth="yes"/>
      <point x="247" y="317"/>
      <point x="246" y="310"/>
      <point x="244" y="301" type="curve" smooth="yes"/>
      <point x="234" y="269"/>
      <point x="180" y="86"/>
    </contour>
  </outline>
</glyph>
<glyph name="five" format="1">
  <advance width="416"/>
  <unicode hex="0035"/>
  <outline>
    <contour>
      <point x="199" y="302" type="curve" name="hr00"/>
      <point x="196" y="305"/>
      <point x="192" y="309"/>
      <point x="189" y="311" type="curve"/>
      <point x="112" y="251"/>
      <point x="9" y="174"/>
      <point x="-26" y="68" type="curve" smooth="yes"/>
      <point x="-29" y="59"/>
      <point x="-30" y="50"/>
      <point x="-30" y="42" type="curve" smooth="yes"/>
      <point x="-30" y="12"/>
      <point x="-10" y="-27"/>
      <point x="32" y="-27" type="curve" smooth="yes"/>
      <point x="68" y="-27"/>
      <point x="109" y="0"/>
      <point x="135" y="30" type="curve" smooth="yes"/>
      <point x="207" y="115"/>
      <point x="279" y="200"/>
      <point x="348" y="288" type="curve" smooth="yes"/>
      <point x="377" y="325"/>
      <point x="402" y="387"/>
      <point x="402" y="421" type="curve" smooth="yes"/>
      <point x="402" y="472"/>
      <point x="364" y="505"/>
      <point x="303" y="505" type="curve"/>
      <point x="270" y="503"/>
      <point x="235" y="492"/>
      <point x="203" y="492" type="curve" smooth="yes"/>
      <point x="189" y="492"/>
      <point x="183" y="497"/>
      <point x="183" y="508" type="curve" smooth="yes"/>
      <point x="183" y="530"/>
      <point x="205" y="564"/>
      <point x="216" y="596" type="curve" smooth="yes"/>
      <point x="227" y="629"/>
      <point x="248" y="642"/>
      <point x="282" y="642" type="curve" smooth="yes"/>
      <point x="292" y="642" type="line" smooth="yes"/>
      <point x="347" y="642"/>
      <point x="393" y="665"/>
      <point x="433" y="699" type="curve"/>
      <point x="442" y="705"/>
      <point x="442" y="720"/>
      <point x="446" y="730" type="curve"/>
      <point x="437" y="731"/>
      <point x="426" y="735"/>
      <point x="418" y="735" type="curve" smooth="yes"/>
      <point x="414" y="735" type="line"/>
      <point x="373" y="720"/>
      <point x="313" y="689"/>
      <point x="290" y="689" type="curve" smooth="yes"/>
      <point x="261" y="689"/>
      <point x="247" y="733"/>
      <point x="215" y="733" type="curve" smooth="yes"/>
      <point x="199" y="733"/>
      <point x="182" y="723"/>
      <point x="174" y="703" type="curve" smooth="yes"/>
      <point x="145" y="632"/>
      <point x="120" y="562"/>
      <point x="92" y="490" type="curve" smooth="yes"/>
      <point x="87" y="477"/>
      <point x="83" y="463"/>
      <point x="83" y="451" type="curve" smooth="yes"/>
      <point x="83" y="434"/>
      <point x="98" y="410"/>
      <point x="120" y="410" type="curve" smooth="yes"/>
      <point x="136" y="410"/>
      <point x="150" y="423"/>
      <point x="164" y="430" type="curve" smooth="yes"/>
      <point x="203" y="449"/>
      <point x="244" y="466"/>
      <point x="290" y="466" type="curve" smooth="yes"/>
      <point x="332" y="466"/>
      <point x="356" y="453"/>
      <point x="356" y="425" type="curve" smooth="yes"/>
      <point x="356" y="401"/>
      <point x="328" y="349"/>
      <point x="307" y="321" type="curve" smooth="yes"/>
      <point x="261" y="260"/>
      <point x="216" y="202"/>
      <point x="169" y="145" type="curve" smooth="yes"/>
      <point x="138" y="109"/>
      <point x="100" y="79"/>
      <point x="66" y="46" type="curve" smooth="yes"/>
      <point x="58" y="38"/>
      <point x="41" y="38"/>
      <point x="30" y="36" type="curve"/>
      <point x="29" y="44"/>
      <point x="27" y="51"/>
      <point x="27" y="59" type="curve" smooth="yes"/>
      <point x="27" y="64"/>
      <point x="28" y="69"/>
      <point x="30" y="74" type="curve" smooth="yes"/>
      <point x="60" y="168"/>
      <point x="132" y="226"/>
    </contour>
  </outline>
</glyph>
<glyph name="six" format="1">
  <advance width="417"/>
  <unicode hex="0036"/>
  <outline>
    <contour>
      <point x="10" y="93" type="curve" name="hr00"/>
      <point x="10" y="41"/>
      <point x="14" y="-13"/>
      <point x="93" y="-13" type="curve" smooth="yes"/>
      <point x="115" y="-13"/>
      <point x="138" y="-6"/>
      <point x="155" y="11" type="curve" smooth="yes"/>
      <point x="211" y="66"/>
      <point x="266" y="124"/>
      <point x="319" y="184" type="curve"/>
      <point x="362" y="228"/>
      <point x="407" y="284"/>
      <point x="407" y="348" type="curve" smooth="yes"/>
      <point x="407" y="389"/>
      <point x="381" y="412"/>
      <point x="336" y="412" type="curve" smooth="yes"/>
      <point x="277" y="412"/>
      <point x="190" y="365"/>
      <point x="182" y="308" type="curve"/>
      <point x="237" y="314"/>
      <point x="278" y="372"/>
      <point x="323" y="372" type="curve" smooth="yes"/>
      <point x="340" y="372"/>
      <point x="360" y="353"/>
      <point x="360" y="333" type="curve" smooth="yes"/>
      <point x="360" y="317"/>
      <point x="350" y="301"/>
      <point x="341" y="286" type="curve" smooth="yes"/>
      <point x="287" y="198"/>
      <point x="221" y="122"/>
      <point x="136" y="62" type="curve" smooth="yes"/>
      <point x="125" y="55"/>
      <point x="109" y="48"/>
      <point x="99" y="48" type="curve" smooth="yes"/>
      <point x="85" y="48"/>
      <point x="74" y="82"/>
      <point x="74" y="96" type="curve" smooth="yes"/>
      <point x="74" y="108"/>
      <point x="123" y="264"/>
      <point x="150" y="329" type="curve" smooth="yes"/>
      <point x="173" y="386"/>
      <point x="205" y="434"/>
      <point x="234" y="488" type="curve" smooth="yes"/>
      <point x="265" y="545"/>
      <point x="297" y="603"/>
      <point x="330" y="661" type="curve"/>
      <point x="332" y="666"/>
      <point x="334" y="672"/>
      <point x="334" y="679" type="curve" smooth="yes"/>
      <point x="334" y="693"/>
      <point x="323" y="704"/>
      <point x="304" y="704" type="curve" smooth="yes"/>
      <point x="271" y="704"/>
      <point x="232" y="625"/>
      <point x="210" y="584" type="curve" smooth="yes"/>
      <point x="126" y="428"/>
      <point x="14" y="260"/>
    </contour>
  </outline>
</glyph>
<glyph name="seven" format="1">
  <advance width="423"/>
  <unicode hex="0037"/>
  <outline>
    <contour>
      <point x="112" y="342" type="curve" name="hr00"/>
      <point x="126" y="342" type="line" smooth="yes"/>
      <point x="145" y="342"/>
      <point x="153" y="339"/>
      <point x="153" y="329" type="curve" smooth="yes"/>
      <point x="153" y="311"/>
      <point x="123" y="264"/>
      <point x="106" y="231" type="curve" smooth="yes"/>
      <point x="55" y="133"/>
      <point x="19" y="28"/>
      <point x="1" y="-82" type="curve"/>
      <point x="1" y="-83"/>
      <point x="0" y="-84"/>
      <point x="0" y="-86" type="curve"/>
      <point x="0" y="-92"/>
      <point x="4" y="-99"/>
      <point x="6" y="-106" type="curve"/>
      <point x="14" y="-100"/>
      <point x="25" y="-100"/>
      <point x="29" y="-94" type="curve" smooth="yes"/>
      <point x="42" y="-74"/>
      <point x="55" y="-49"/>
      <point x="63" y="-28" type="curve" smooth="yes"/>
      <point x="109" y="97"/>
      <point x="168" y="215"/>
      <point x="236" y="330" type="curve" smooth="yes"/>
      <point x="255" y="363"/>
      <point x="280" y="377"/>
      <point x="317" y="377" type="curve" smooth="yes"/>
      <point x="329" y="377" type="line" smooth="yes"/>
      <point x="338" y="377"/>
      <point x="393" y="392"/>
      <point x="391" y="401" type="curve" smooth="yes"/>
      <point x="387" y="415"/>
      <point x="378" y="419"/>
      <point x="368" y="419" type="curve" smooth="yes"/>
      <point x="357" y="419"/>
      <point x="345" y="416"/>
      <point x="334" y="416" type="curve" smooth="yes"/>
      <point x="314" y="416"/>
      <point x="308" y="420"/>
      <point x="308" y="435" type="curve" smooth="yes"/>
      <point x="308" y="443"/>
      <point x="310" y="451"/>
      <point x="314" y="456" type="curve"/>
      <point x="370" y="546"/>
      <point x="434" y="630"/>
      <point x="488" y="718" type="curve"/>
      <point x="490" y="723"/>
      <point x="492" y="729"/>
      <point x="492" y="736" type="curve" smooth="yes"/>
      <point x="492" y="750"/>
      <point x="494" y="767"/>
      <point x="466" y="767" type="curve" smooth="yes"/>
      <point x="461" y="767"/>
      <point x="457" y="766"/>
      <point x="454" y="765" type="curve" smooth="yes"/>
      <point x="393" y="738"/>
      <point x="315" y="687"/>
      <point x="273" y="687" type="curve" smooth="yes"/>
      <point x="247" y="687"/>
      <point x="223" y="699"/>
      <point x="200" y="722" type="curve" smooth="yes"/>
      <point x="191" y="731"/>
      <point x="181" y="738"/>
      <point x="171" y="738" type="curve" smooth="yes"/>
      <point x="162" y="738"/>
      <point x="149" y="731"/>
      <point x="149" y="712" type="curve" smooth="yes"/>
      <point x="149" y="655"/>
      <point x="220" y="624"/>
      <point x="268" y="624" type="curve" smooth="yes"/>
      <point x="280" y="624"/>
      <point x="293" y="628"/>
      <point x="306" y="628" type="curve" smooth="yes"/>
      <point x="314" y="628"/>
      <point x="323" y="624"/>
      <point x="332" y="623" type="curve"/>
      <point x="328" y="614"/>
      <point x="328" y="602"/>
      <point x="324" y="595" type="curve" smooth="yes"/>
      <point x="289" y="538"/>
      <point x="252" y="482"/>
      <point x="216" y="427" type="curve" smooth="yes"/>
      <point x="188" y="384"/>
      <point x="160" y="390"/>
      <point x="96" y="374" type="curve"/>
      <point x="89" y="373"/>
      <point x="83" y="363"/>
      <point x="83" y="358" type="curve" smooth="yes"/>
      <point x="83" y="352"/>
      <point x="94" y="341"/>
      <point x="104" y="341" type="curve" smooth="yes"/>
      <point x="107" y="341"/>
      <point x="111" y="342"/>
    </contour>
  </outline>
</glyph>
<glyph name="eight" format="1">
  <advance width="347"/>
  <unicode hex="0038"/>
  <outline>
    <contour>
      <point x="0" y="93" type="curve" name="hr00"/>
      <point x="0" y="18"/>
      <point x="21" y="-1"/>
      <point x="74" y="-1" type="curve"/>
      <point x="166" y="6"/>
      <point x="255" y="124"/>
      <point x="255" y="188" type="curve" smooth="yes"/>
      <point x="255" y="213"/>
      <point x="245" y="235"/>
      <point x="235" y="260" type="curve" smooth="yes"/>
      <point x="227" y="279"/>
      <point x="217" y="304"/>
      <point x="217" y="319" type="curve" smooth="yes"/>
      <point x="217" y="339"/>
      <point x="227" y="357"/>
      <point x="239" y="375" type="curve" smooth="yes"/>
      <point x="242" y="379"/>
      <point x="248" y="383"/>
      <point x="249" y="388" type="curve" smooth="yes"/>
      <point x="252" y="399"/>
      <point x="293" y="449"/>
      <point x="293" y="460" type="curve"/>
      <point x="293" y="462"/>
      <point x="292" y="463"/>
      <point x="290" y="463" type="curve"/>
      <point x="277" y="463"/>
      <point x="232" y="436"/>
      <point x="223" y="436" type="curve" smooth="yes"/>
      <point x="220" y="436"/>
      <point x="218" y="435"/>
      <point x="216" y="435" type="curve"/>
      <point x="195" y="435"/>
      <point x="188" y="447"/>
      <point x="188" y="466" type="curve" smooth="yes"/>
      <point x="188" y="542"/>
      <point x="218" y="604"/>
      <point x="284" y="644" type="curve"/>
      <point x="293" y="648"/>
      <point x="304" y="651"/>
      <point x="314" y="651" type="curve" smooth="yes"/>
      <point x="329" y="651"/>
      <point x="335" y="640"/>
      <point x="335" y="621" type="curve" smooth="yes"/>
      <point x="335" y="589"/>
      <point x="319" y="556"/>
      <point x="319" y="523" type="curve" smooth="yes"/>
      <point x="319" y="516"/>
      <point x="324" y="508"/>
      <point x="327" y="502" type="curve"/>
      <point x="334" y="507"/>
      <point x="346" y="509"/>
      <point x="346" y="515" type="curve"/>
      <point x="358" y="559"/>
      <point x="377" y="607"/>
      <point x="377" y="654" type="curve" smooth="yes"/>
      <point x="377" y="683"/>
      <point x="356" y="701"/>
      <point x="330" y="701" type="curve" smooth="yes"/>
      <point x="215" y="701"/>
      <point x="129" y="564"/>
      <point x="129" y="460" type="curve" smooth="yes"/>
      <point x="129" y="431"/>
      <point x="140" y="398"/>
      <point x="140" y="370" type="curve" smooth="yes"/>
      <point x="140" y="313"/>
      <point x="71" y="248"/>
      <point x="39" y="188" type="curve" smooth="yes"/>
      <point x="20" y="153"/>
      <point x="7" y="111"/>
    </contour>
    <contour>
      <point x="188" y="196" type="curve"/>
      <point x="184" y="136"/>
      <point x="154" y="96"/>
      <point x="105" y="68" type="curve" smooth="yes"/>
      <point x="98" y="64"/>
      <point x="92" y="62"/>
      <point x="87" y="62" type="curve" smooth="yes"/>
      <point x="77" y="62"/>
      <point x="70" y="69"/>
      <point x="70" y="81" type="curve" smooth="yes"/>
      <point x="70" y="147"/>
      <point x="152" y="251"/>
      <point x="164" y="251" type="curve"/>
      <point x="186" y="237"/>
      <point x="184" y="212"/>
    </contour>
  </outline>
</glyph>
<glyph name="nine" format="1">
  <advance width="381"/>
  <unicode hex="0039"/>
  <outline>
    <contour>
      <point x="210" y="343" type="curve" smooth="yes" name="hr00"/>
      <point x="195" y="308"/>
      <point x="133" y="54"/>
      <point x="14" y="48" type="curve" smooth="yes"/>
      <point x="-27" y="46"/>
      <point x="-60" y="27"/>
      <point x="-60" y="7" type="curve" smooth="yes"/>
      <point x="-60" y="-5"/>
      <point x="-35" y="-33"/>
      <point x="29" y="-33" type="curve" smooth="yes"/>
      <point x="129" y="-33"/>
      <point x="195" y="106"/>
      <point x="195" y="106" type="curve"/>
      <point x="251" y="286"/>
      <point x="335" y="442"/>
      <point x="425" y="611" type="curve" smooth="yes"/>
      <point x="429" y="619"/>
      <point x="431" y="627"/>
      <point x="431" y="634" type="curve" smooth="yes"/>
      <point x="431" y="648"/>
      <point x="422" y="656"/>
      <point x="405" y="657" type="curve" smooth="yes"/>
      <point x="359" y="660"/>
      <point x="386" y="722"/>
      <point x="323" y="735" type="curve"/>
      <point x="294" y="720"/>
      <point x="262" y="710"/>
      <point x="237" y="689" type="curve" smooth="yes"/>
      <point x="163" y="627"/>
      <point x="104" y="517"/>
      <point x="104" y="425" type="curve" smooth="yes"/>
      <point x="104" y="386"/>
      <point x="125" y="368"/>
      <point x="167" y="368" type="curve" smooth="yes"/>
      <point x="176" y="368"/>
      <point x="186" y="370"/>
      <point x="196" y="370" type="curve" smooth="yes"/>
      <point x="208" y="370"/>
      <point x="214" y="367"/>
      <point x="214" y="358" type="curve" smooth="yes"/>
      <point x="214" y="354"/>
      <point x="212" y="349"/>
    </contour>
    <contour>
      <point x="336" y="621" type="curve"/>
      <point x="323" y="556"/>
      <point x="269" y="469"/>
      <point x="206" y="431" type="curve" smooth="yes"/>
      <point x="193" y="423"/>
      <point x="177" y="423"/>
      <point x="163" y="419" type="curve"/>
      <point x="161" y="431"/>
      <point x="158" y="443"/>
      <point x="158" y="453" type="curve"/>
      <point x="158" y="455"/>
      <point x="158" y="458"/>
      <point x="159" y="460" type="curve" smooth="yes"/>
      <point x="174" y="531"/>
      <point x="206" y="592"/>
      <point x="256" y="644" type="curve" smooth="yes"/>
      <point x="271" y="659"/>
      <point x="293" y="664"/>
      <point x="314" y="673" type="curve"/>
      <point x="321" y="655"/>
      <point x="331" y="636"/>
    </contour>
  </outline>
</glyph>
<glyph name="colon" format="1">
  <advance width="176"/>
  <unicode hex="003A"/>
  <outline>
    <contour>
      <point x="104" y="59" type="curve" name="hr00"/>
      <point x="102" y="83"/>
      <point x="80" y="102"/>
      <point x="57" y="102" type="curve" smooth="yes"/>
      <point x="21" y="102"/>
      <point x="0" y="77"/>
      <point x="0" y="53" type="curve" smooth="yes"/>
      <point x="0" y="32"/>
      <point x="31" y="0"/>
      <point x="51" y="0" type="curve" smooth="yes"/>
      <point x="72" y="0"/>
      <point x="104" y="37"/>
    </contour>
    <contour>
      <point x="127" y="391" type="curve"/>
      <point x="98" y="388"/>
      <point x="76" y="378"/>
      <point x="76" y="345" type="curve" smooth="yes"/>
      <point x="76" y="315"/>
      <point x="104" y="285"/>
      <point x="129" y="285" type="curve" smooth="yes"/>
      <point x="164" y="285"/>
      <point x="145" y="335"/>
      <point x="175" y="344" type="curve"/>
      <point x="175" y="344"/>
      <point x="176" y="345"/>
      <point x="176" y="348" type="curve" smooth="yes"/>
      <point x="176" y="380"/>
      <point x="147" y="383"/>
    </contour>
  </outline>
</glyph>
<glyph name="semicolon" format="1">
  <advance width="185"/>
  <unicode hex="003B"/>
  <outline>
    <contour>
      <point x="67" y="99" type="curve" name="hr00"/>
      <point x="54" y="94"/>
      <point x="38" y="94"/>
      <point x="33" y="87" type="curve" smooth="yes"/>
      <point x="10" y="49"/>
      <point x="-11" y="11"/>
      <point x="-29" y="-29" type="curve"/>
      <point x="-30" y="-30"/>
      <point x="-30" y="-32"/>
      <point x="-30" y="-34" type="curve"/>
      <point x="-30" y="-41"/>
      <point x="-24" y="-51"/>
      <point x="-20" y="-59" type="curve"/>
      <point x="-11" y="-55"/>
      <point x="3" y="-53"/>
      <point x="10" y="-46" type="curve"/>
      <point x="37" y="-13"/>
      <point x="94" y="51"/>
      <point x="94" y="78" type="curve" smooth="yes"/>
      <point x="94" y="92"/>
      <point x="79" y="92"/>
    </contour>
    <contour>
      <point x="144" y="400" type="curve" smooth="yes"/>
      <point x="111" y="400"/>
      <point x="80" y="376"/>
      <point x="80" y="346" type="curve" smooth="yes"/>
      <point x="80" y="322"/>
      <point x="97" y="299"/>
      <point x="123" y="299" type="curve" smooth="yes"/>
      <point x="142" y="299"/>
      <point x="185" y="342"/>
      <point x="185" y="365" type="curve"/>
      <point x="182" y="389"/>
      <point x="169" y="400"/>
    </contour>
  </outline>
</glyph>
<glyph name="equal" format="1">
  <advance width="375"/>
  <unicode hex="003D"/>
  <outline>
    <contour>
      <point x="262" y="268" type="curve" name="hr00"/>
      <point x="299" y="271"/>
      <point x="340" y="266"/>
      <point x="375" y="290" type="curve"/>
      <point x="352" y="326"/>
      <point x="337" y="323"/>
      <point x="308" y="327" type="curve"/>
      <point x="219" y="333" type="line"/>
      <point x="174" y="334"/>
      <point x="128" y="337"/>
      <point x="83" y="337" type="curve" smooth="yes"/>
      <point x="73" y="337"/>
      <point x="63" y="324"/>
      <point x="53" y="318" type="curve"/>
      <point x="69" y="292"/>
      <point x="83" y="277"/>
      <point x="117" y="277" type="curve"/>
      <point x="164" y="273"/>
      <point x="212" y="271"/>
    </contour>
    <contour>
      <point x="117" y="122" type="curve"/>
      <point x="117" y="127" type="line"/>
      <point x="81" y="127" type="line" smooth="yes"/>
      <point x="54" y="127"/>
      <point x="0" y="130"/>
      <point x="0" y="105" type="curve" smooth="yes"/>
      <point x="0" y="91"/>
      <point x="19" y="73"/>
      <point x="35" y="73" type="curve" smooth="yes"/>
      <point x="112" y="73"/>
      <point x="190" y="75"/>
      <point x="266" y="78" type="curve"/>
      <point x="279" y="80"/>
      <point x="292" y="97"/>
      <point x="304" y="107" type="curve"/>
      <point x="292" y="117"/>
      <point x="267" y="136"/>
      <point x="257" y="136" type="curve" smooth="yes"/>
      <point x="210" y="136"/>
      <point x="163" y="127"/>
    </contour>
  </outline>
</glyph>
<glyph name="question" format="1">
  <advance width="356"/>
  <unicode hex="003F"/>
  <outline>
    <contour>
      <point x="316" y="776" type="curve" name="hr00"/>
      <point x="314" y="784" type="line"/>
      <point x="275" y="770"/>
      <point x="233" y="760"/>
      <point x="201" y="739" type="curve" smooth="yes"/>
      <point x="167" y="716"/>
      <point x="113" y="659"/>
      <point x="113" y="629" type="curve" smooth="yes"/>
      <point x="113" y="606"/>
      <point x="122" y="593"/>
      <point x="135" y="593" type="curve" smooth="yes"/>
      <point x="154" y="593"/>
      <point x="170" y="633"/>
      <point x="177" y="644" type="curve" smooth="yes"/>
      <point x="204" y="687"/>
      <point x="261" y="721"/>
      <point x="312" y="721" type="curve" smooth="yes"/>
      <point x="330" y="721"/>
      <point x="341" y="709"/>
      <point x="341" y="691" type="curve" smooth="yes"/>
      <point x="341" y="670"/>
      <point x="318" y="622"/>
      <point x="303" y="600" type="curve" smooth="yes"/>
      <point x="236" y="499"/>
      <point x="166" y="401"/>
      <point x="100" y="301" type="curve" smooth="yes"/>
      <point x="82" y="274"/>
      <point x="51" y="230"/>
      <point x="51" y="200" type="curve" smooth="yes"/>
      <point x="51" y="171"/>
      <point x="62" y="150"/>
      <point x="99" y="150" type="curve" smooth="yes"/>
      <point x="131" y="150"/>
      <point x="171" y="186"/>
      <point x="200" y="209" type="curve" smooth="yes"/>
      <point x="211" y="218"/>
      <point x="217" y="233"/>
      <point x="224" y="245" type="curve"/>
      <point x="199" y="237"/>
      <point x="173" y="237"/>
      <point x="147" y="235" type="curve"/>
      <point x="150" y="248"/>
      <point x="150" y="261"/>
      <point x="157" y="271" type="curve" smooth="yes"/>
      <point x="207" y="343"/>
      <point x="257" y="413"/>
      <point x="307" y="484" type="curve" smooth="yes"/>
      <point x="349" y="543"/>
      <point x="406" y="624"/>
      <point x="406" y="699" type="curve" smooth="yes"/>
      <point x="406" y="747"/>
      <point x="371" y="776"/>
    </contour>
    <contour>
      <point x="55" y="75" type="curve" smooth="yes"/>
      <point x="20" y="75"/>
      <point x="0" y="60"/>
      <point x="0" y="32" type="curve" smooth="yes"/>
      <point x="0" y="5"/>
      <point x="18" y="-21"/>
      <point x="46" y="-21" type="curve" smooth="yes"/>
      <point x="72" y="-21"/>
      <point x="106" y="13"/>
      <point x="106" y="37" type="curve" smooth="yes"/>
      <point x="106" y="60"/>
      <point x="85" y="75"/>
    </contour>
  </outline>
</glyph>
<glyph name="at" format="1">
  <advance width="634"/>
  <unicode hex="0040"/>
  <outline>
    <contour>
      <point x="169" y="-35" type="curve" name="hr00"/>
      <point x="107" y="2"/>
      <point x="54" y="33"/>
      <point x="54" y="93" type="curve" smooth="yes"/>
      <point x="54" y="122"/>
      <point x="64" y="160"/>
      <point x="78" y="189" type="curve"/>
      <point x="168" y="344"/>
      <point x="287" y="496"/>
      <point x="467" y="560" type="curve" smooth="yes"/>
      <point x="479" y="564"/>
      <point x="492" y="567"/>
      <point x="504" y="567" type="curve" smooth="yes"/>
      <point x="535" y="567"/>
      <point x="566" y="547"/>
      <point x="566" y="513" type="curve" smooth="yes"/>
      <point x="566" y="494"/>
      <point x="561" y="471"/>
      <point x="553" y="454" type="curve"/>
      <point x="518" y="353"/>
      <point x="454" y="270"/>
      <point x="393" y="185" type="curve"/>
      <point x="387" y="178"/>
      <point x="376" y="175"/>
      <point x="368" y="169" type="curve"/>
      <point x="366" y="177"/>
      <point x="362" y="187"/>
      <point x="362" y="196" type="curve"/>
      <point x="362" y="198"/>
      <point x="363" y="200"/>
      <point x="363" y="202" type="curve"/>
      <point x="377" y="244"/>
      <point x="405" y="311"/>
      <point x="405" y="338" type="curve" smooth="yes"/>
      <point x="405" y="361"/>
      <point x="350" y="375"/>
      <point x="319" y="375" type="curve" smooth="yes"/>
      <point x="254" y="375"/>
      <point x="176" y="289"/>
      <point x="176" y="218" type="curve" smooth="yes"/>
      <point x="176" y="182"/>
      <point x="191" y="162"/>
      <point x="217" y="162" type="curve" smooth="yes"/>
      <point x="231" y="162"/>
      <point x="255" y="175"/>
      <point x="265" y="175" type="curve" smooth="yes"/>
      <point x="283" y="175"/>
      <point x="276" y="154"/>
      <point x="282" y="127" type="curve"/>
      <point x="287" y="91"/>
      <point x="312" y="68"/>
      <point x="342" y="68" type="curve" smooth="yes"/>
      <point x="405" y="68"/>
      <point x="462" y="163"/>
      <point x="504" y="225" type="curve" smooth="yes"/>
      <point x="555" y="300"/>
      <point x="606" y="375"/>
      <point x="629" y="466" type="curve" smooth="yes"/>
      <point x="632" y="480"/>
      <point x="634" y="494"/>
      <point x="634" y="507" type="curve" smooth="yes"/>
      <point x="634" y="575"/>
      <point x="586" y="628"/>
      <point x="513" y="628" type="curve" smooth="yes"/>
      <point x="442" y="628"/>
      <point x="380" y="599"/>
      <point x="322" y="560" type="curve" smooth="yes"/>
      <point x="191" y="472"/>
      <point x="96" y="351"/>
      <point x="24" y="210" type="curve" smooth="yes"/>
      <point x="9" y="181"/>
      <point x="0" y="151"/>
      <point x="0" y="121" type="curve" smooth="yes"/>
      <point x="0" y="44"/>
      <point x="66" y="-38"/>
      <point x="146" y="-38" type="curve" smooth="yes"/>
      <point x="154" y="-38"/>
      <point x="161" y="-37"/>
    </contour>
    <contour>
      <point x="223" y="230" type="curve"/>
      <point x="225" y="276"/>
      <point x="273" y="331"/>
      <point x="302" y="331" type="curve" smooth="yes"/>
      <point x="309" y="331"/>
      <point x="319" y="330"/>
      <point x="319" y="321" type="curve" smooth="yes"/>
      <point x="319" y="280"/>
      <point x="275" y="215"/>
      <point x="238" y="215" type="curve" smooth="yes"/>
      <point x="228" y="215"/>
      <point x="225" y="227"/>
    </contour>
  </outline>
</glyph>
<glyph name="B" format="1">
  <advance width="461"/>
  <unicode hex="0042"/>
  <outline>
    <contour>
      <point x="145" y="-48" type="curve" name="hr00"/>
      <point x="160" y="-63"/>
      <point x="176" y="-71"/>
      <point x="194" y="-71" type="curve" smooth="yes"/>
      <point x="284" y="-71"/>
      <point x="391" y="94"/>
      <point x="433" y="206" type="curve" smooth="yes"/>
      <point x="438" y="221"/>
      <point x="441" y="235"/>
      <point x="441" y="249" type="curve" smooth="yes"/>
      <point x="441" y="311"/>
      <point x="393" y="370"/>
      <point x="327" y="376" type="curve" smooth="yes"/>
      <point x="310" y="377"/>
      <point x="302" y="380"/>
      <point x="302" y="390" type="curve" smooth="yes"/>
      <point x="302" y="414"/>
      <point x="359" y="486"/>
      <point x="382" y="526" type="curve" smooth="yes"/>
      <point x="406" y="567"/>
      <point x="432" y="609"/>
      <point x="431" y="659" type="curve"/>
      <point x="431" y="670" type="line" smooth="yes"/>
      <point x="431" y="675"/>
      <point x="432" y="680"/>
      <point x="432" y="685" type="curve" smooth="yes"/>
      <point x="432" y="752"/>
      <point x="389" y="790"/>
      <point x="329" y="790" type="curve" smooth="yes"/>
      <point x="218" y="790"/>
      <point x="92" y="711"/>
      <point x="33" y="640" type="curve" smooth="yes"/>
      <point x="30" y="637"/>
      <point x="30" y="632"/>
      <point x="30" y="627" type="curve" smooth="yes"/>
      <point x="30" y="621"/>
      <point x="31" y="613"/>
      <point x="31" y="606" type="curve"/>
      <point x="48" y="613"/>
      <point x="54" y="607"/>
      <point x="75" y="627" type="curve" smooth="yes"/>
      <point x="136" y="685"/>
      <point x="235" y="750"/>
      <point x="318" y="750" type="curve" smooth="yes"/>
      <point x="362" y="750"/>
      <point x="389" y="723"/>
      <point x="389" y="682" type="curve" smooth="yes"/>
      <point x="389" y="667"/>
      <point x="385" y="638"/>
      <point x="376" y="629" type="curve"/>
      <point x="327" y="544"/>
      <point x="278" y="459"/>
      <point x="227" y="374" type="curve" smooth="yes"/>
      <point x="215" y="354"/>
      <point x="183" y="323"/>
      <point x="167" y="323" type="curve" smooth="yes"/>
      <point x="157" y="323"/>
      <point x="153" y="330"/>
      <point x="153" y="341" type="curve"/>
      <point x="153" y="343"/>
      <point x="153" y="344"/>
      <point x="154" y="346" type="curve"/>
      <point x="165" y="418"/>
      <point x="190" y="496"/>
      <point x="190" y="567" type="curve" smooth="yes"/>
      <point x="190" y="589"/>
      <point x="181" y="601"/>
      <point x="145" y="601" type="curve" smooth="yes"/>
      <point x="115" y="601"/>
      <point x="101" y="571"/>
      <point x="94" y="529" type="curve" smooth="yes"/>
      <point x="74" y="418"/>
      <point x="54" y="308"/>
      <point x="37" y="197" type="curve" smooth="yes"/>
      <point x="35" y="182"/>
      <point x="34" y="167"/>
      <point x="34" y="152" type="curve" smooth="yes"/>
      <point x="34" y="126"/>
      <point x="37" y="101"/>
      <point x="40" y="77" type="curve" smooth="yes"/>
      <point x="42" y="63"/>
      <point x="58" y="51"/>
      <point x="69" y="37" type="curve"/>
      <point x="85" y="54"/>
      <point x="102" y="64"/>
      <point x="107" y="94" type="curve" smooth="yes"/>
      <point x="117" y="154"/>
      <point x="131" y="212"/>
      <point x="189" y="248" type="curve"/>
      <point x="197" y="257" type="line"/>
      <point x="224" y="298"/>
      <point x="284" y="327"/>
      <point x="325" y="327" type="curve" smooth="yes"/>
      <point x="356" y="327"/>
      <point x="380" y="294"/>
      <point x="380" y="265" type="curve" smooth="yes"/>
      <point x="380" y="257"/>
      <point x="379" y="249"/>
      <point x="376" y="241" type="curve"/>
      <point x="353" y="160"/>
      <point x="303" y="93"/>
      <point x="249" y="29" type="curve" smooth="yes"/>
      <point x="239" y="17"/>
      <point x="226" y="1"/>
      <point x="211" y="1" type="curve" smooth="yes"/>
      <point x="180" y="1"/>
      <point x="178" y="47"/>
      <point x="166" y="47" type="curve" smooth="yes"/>
      <point x="151" y="47"/>
      <point x="132" y="21"/>
      <point x="132" y="-3" type="curve" smooth="yes"/>
      <point x="132" y="-15"/>
      <point x="136" y="-30"/>
    </contour>
  </outline>
</glyph>
<glyph name="C" format="1">
  <advance width="498"/>
  <unicode hex="0043"/>
  <outline>
    <contour>
      <point x="462" y="613" type="curve" smooth="yes" name="hr00"/>
      <point x="446" y="668"/>
      <point x="407" y="744"/>
      <point x="339" y="744" type="curve" smooth="yes"/>
      <point x="289" y="744"/>
      <point x="245" y="692"/>
      <point x="218" y="659" type="curve" smooth="yes"/>
      <point x="139" y="562"/>
      <point x="86" y="438"/>
      <point x="48" y="321" type="curve" smooth="yes"/>
      <point x="33" y="276"/>
      <point x="20" y="215"/>
      <point x="20" y="156" type="curve" smooth="yes"/>
      <point x="20" y="60"/>
      <point x="57" y="-44"/>
      <point x="180" y="-44" type="curve" smooth="yes"/>
      <point x="284" y="-44"/>
      <point x="386" y="46"/>
      <point x="469" y="106" type="curve" smooth="yes"/>
      <point x="487" y="119"/>
      <point x="498" y="151"/>
      <point x="498" y="170" type="curve" smooth="yes"/>
      <point x="498" y="179"/>
      <point x="495" y="186"/>
      <point x="489" y="186" type="curve"/>
      <point x="487" y="186"/>
      <point x="484" y="185"/>
      <point x="481" y="183" type="curve" smooth="yes"/>
      <point x="399" y="124"/>
      <point x="296" y="74"/>
      <point x="193" y="74" type="curve" smooth="yes"/>
      <point x="139" y="74"/>
      <point x="71" y="94"/>
      <point x="71" y="164" type="curve" smooth="yes"/>
      <point x="71" y="206"/>
      <point x="91" y="254"/>
      <point x="101" y="283" type="curve" smooth="yes"/>
      <point x="135" y="379"/>
      <point x="182" y="474"/>
      <point x="244" y="555" type="curve" smooth="yes"/>
      <point x="269" y="588"/>
      <point x="303" y="637"/>
      <point x="346" y="637" type="curve" smooth="yes"/>
      <point x="390" y="637"/>
      <point x="413" y="548"/>
      <point x="419" y="548" type="curve"/>
      <point x="419" y="549" type="line"/>
      <point x="424" y="532"/>
      <point x="431" y="525"/>
      <point x="437" y="525" type="curve" smooth="yes"/>
      <point x="451" y="525"/>
      <point x="464" y="563"/>
      <point x="464" y="593" type="curve" smooth="yes"/>
      <point x="464" y="600"/>
      <point x="464" y="607"/>
    </contour>
  </outline>
</glyph>
<glyph name="D" format="1">
  <advance width="546"/>
  <unicode hex="0044"/>
  <outline>
    <contour>
      <point x="297" y="722" type="line" name="hr00"/>
      <point x="265" y="718"/>
      <point x="229" y="719"/>
      <point x="199" y="710" type="curve" smooth="yes"/>
      <point x="147" y="695"/>
      <point x="97" y="675"/>
      <point x="48" y="653" type="curve"/>
      <point x="39" y="648"/>
      <point x="36" y="628"/>
      <point x="30" y="615" type="curve"/>
      <point x="42" y="616"/>
      <point x="58" y="614"/>
      <point x="67" y="620" type="curve" smooth="yes"/>
      <point x="135" y="660"/>
      <point x="209" y="680"/>
      <point x="286" y="680" type="curve" smooth="yes"/>
      <point x="396" y="680"/>
      <point x="493" y="631"/>
      <point x="493" y="479" type="curve" smooth="yes"/>
      <point x="493" y="304"/>
      <point x="334" y="143"/>
      <point x="225" y="42" type="curve"/>
      <point x="218" y="34"/>
      <point x="199" y="34"/>
      <point x="186" y="32" type="curve"/>
      <point x="184" y="44"/>
      <point x="179" y="56"/>
      <point x="179" y="67" type="curve" smooth="yes"/>
      <point x="179" y="105"/>
      <point x="231" y="149"/>
      <point x="231" y="166" type="curve" smooth="yes"/>
      <point x="231" y="173"/>
      <point x="226" y="176"/>
      <point x="218" y="176" type="curve" smooth="yes"/>
      <point x="203" y="176"/>
      <point x="178" y="164"/>
      <point x="160" y="143" type="curve" smooth="yes"/>
      <point x="156" y="137"/>
      <point x="147" y="134"/>
      <point x="141" y="131" type="curve"/>
      <point x="139" y="138"/>
      <point x="134" y="145"/>
      <point x="133" y="153" type="curve"/>
      <point x="133" y="158"/>
      <point x="134" y="164"/>
      <point x="135" y="168" type="curve" smooth="yes"/>
      <point x="157" y="266"/>
      <point x="181" y="364"/>
      <point x="203" y="463" type="curve" smooth="yes"/>
      <point x="211" y="497"/>
      <point x="215" y="531"/>
      <point x="218" y="567" type="curve"/>
      <point x="218" y="603"/>
      <point x="196" y="620"/>
      <point x="168" y="620" type="curve" smooth="yes"/>
      <point x="116" y="620"/>
      <point x="103" y="542"/>
      <point x="103" y="497" type="curve" smooth="yes"/>
      <point x="103" y="479" type="line" smooth="yes"/>
      <point x="103" y="469"/>
      <point x="103" y="458"/>
      <point x="101" y="448" type="curve" smooth="yes"/>
      <point x="83" y="356"/>
      <point x="58" y="262"/>
      <point x="43" y="169" type="curve" smooth="yes"/>
      <point x="41" y="155"/>
      <point x="40" y="142"/>
      <point x="40" y="128" type="curve" smooth="yes"/>
      <point x="40" y="95"/>
      <point x="45" y="61"/>
      <point x="49" y="29" type="curve"/>
      <point x="50" y="14"/>
      <point x="60" y="5"/>
      <point x="77" y="5" type="curve" smooth="yes"/>
      <point x="83" y="5"/>
      <point x="90" y="7"/>
      <point x="97" y="7" type="curve" smooth="yes"/>
      <point x="129" y="7"/>
      <point x="154" y="-38"/>
      <point x="187" y="-38" type="curve" smooth="yes"/>
      <point x="209" y="-38"/>
      <point x="245" y="-23"/>
      <point x="265" y="-5" type="curve"/>
      <point x="367" y="77"/>
      <point x="440" y="179"/>
      <point x="493" y="296" type="curve" smooth="yes"/>
      <point x="520" y="355"/>
      <point x="536" y="439"/>
      <point x="536" y="497" type="curve" smooth="yes"/>
      <point x="536" y="644"/>
      <point x="423" y="722"/>
      <point x="309" y="722" type="curve" smooth="yes"/>
    </contour>
  </outline>
</glyph>
<glyph name="E" format="1">
  <advance width="569"/>
  <unicode hex="0045"/>
  <outline>
    <contour>
      <point x="137" y="5" type="curve" name="hr00"/>
      <point x="133" y="13" type="line"/>
      <point x="131" y="13"/>
      <point x="129" y="12"/>
      <point x="126" y="12" type="curve" smooth="yes"/>
      <point x="80" y="12"/>
      <point x="57" y="28"/>
      <point x="57" y="54" type="curve" smooth="yes"/>
      <point x="57" y="96"/>
      <point x="120" y="195"/>
      <point x="156" y="250" type="curve" smooth="yes"/>
      <point x="199" y="315"/>
      <point x="248" y="373"/>
      <point x="318" y="409" type="curve" smooth="yes"/>
      <point x="337" y="419"/>
      <point x="357" y="427"/>
      <point x="374" y="439" type="curve" smooth="yes"/>
      <point x="383" y="445"/>
      <point x="384" y="461"/>
      <point x="390" y="473" type="curve"/>
      <point x="380" y="475"/>
      <point x="369" y="481"/>
      <point x="358" y="484" type="curve" smooth="yes"/>
      <point x="309" y="495"/>
      <point x="242" y="483"/>
      <point x="242" y="556" type="curve" smooth="yes"/>
      <point x="242" y="606"/>
      <point x="273" y="694"/>
      <point x="337" y="694" type="curve" smooth="yes"/>
      <point x="352" y="694"/>
      <point x="381" y="679"/>
      <point x="381" y="649" type="curve" smooth="yes"/>
      <point x="381" y="645"/>
      <point x="380" y="640"/>
      <point x="380" y="636" type="curve" smooth="yes"/>
      <point x="380" y="623"/>
      <point x="387" y="609"/>
      <point x="393" y="598" type="curve"/>
      <point x="407" y="613"/>
      <point x="421" y="618"/>
      <point x="421" y="648" type="curve" smooth="yes"/>
      <point x="421" y="692"/>
      <point x="386" y="745"/>
      <point x="334" y="745" type="curve" smooth="yes"/>
      <point x="248" y="745"/>
      <point x="186" y="639"/>
      <point x="186" y="561" type="curve" smooth="yes"/>
      <point x="186" y="527"/>
      <point x="196" y="496"/>
      <point x="219" y="473" type="curve" smooth="yes"/>
      <point x="227" y="465"/>
      <point x="231" y="456"/>
      <point x="231" y="449" type="curve" smooth="yes"/>
      <point x="231" y="427"/>
      <point x="185" y="401"/>
      <point x="159" y="371" type="curve" smooth="yes"/>
      <point x="90" y="291"/>
      <point x="30" y="207"/>
      <point x="-15" y="111" type="curve" smooth="yes"/>
      <point x="-25" y="90"/>
      <point x="-30" y="70"/>
      <point x="-30" y="51" type="curve" smooth="yes"/>
      <point x="-30" y="-9"/>
      <point x="26" y="-63"/>
      <point x="118" y="-63" type="curve" smooth="yes"/>
      <point x="156" y="-63"/>
      <point x="194" y="-53"/>
      <point x="230" y="-41" type="curve" smooth="yes"/>
      <point x="368" y="3"/>
      <point x="482" y="87"/>
      <point x="597" y="167" type="curve" smooth="yes"/>
      <point x="611" y="177"/>
      <point x="620" y="194"/>
      <point x="629" y="207" type="curve"/>
      <point x="612" y="203"/>
      <point x="592" y="207"/>
      <point x="574" y="199" type="curve" smooth="yes"/>
      <point x="484" y="156"/>
      <point x="393" y="110"/>
      <point x="301" y="69" type="curve" smooth="yes"/>
      <point x="247" y="45"/>
      <point x="191" y="25"/>
    </contour>
  </outline>
</glyph>
<glyph name="F" format="1">
  <advance width="502"/>
  <unicode hex="0046"/>
  <outline>
    <contour>
      <point x="611" y="677" type="curve" name="hr00"/>
      <point x="618" y="684"/>
      <point x="622" y="692"/>
      <point x="622" y="701" type="curve" smooth="yes"/>
      <point x="622" y="722"/>
      <point x="601" y="736"/>
      <point x="574" y="736" type="curve" smooth="yes"/>
      <point x="571" y="736"/>
      <point x="567" y="736"/>
      <point x="564" y="735" type="curve"/>
      <point x="405" y="714"/>
      <point x="249" y="685"/>
      <point x="89" y="656" type="curve" smooth="yes"/>
      <point x="71" y="653"/>
      <point x="50" y="647"/>
      <point x="50" y="627" type="curve" smooth="yes"/>
      <point x="50" y="603"/>
      <point x="65" y="597"/>
      <point x="78" y="597" type="curve" smooth="yes"/>
      <point x="89" y="597"/>
      <point x="101" y="603"/>
      <point x="110" y="603" type="curve" smooth="yes"/>
      <point x="116" y="603"/>
      <point x="130" y="585"/>
      <point x="130" y="582" type="curve"/>
      <point x="130" y="581" type="line"/>
      <point x="122" y="529"/>
      <point x="110" y="479"/>
      <point x="104" y="428" type="curve" smooth="yes"/>
      <point x="99" y="392"/>
      <point x="90" y="364"/>
      <point x="49" y="358" type="curve" smooth="yes"/>
      <point x="41" y="357"/>
      <point x="34" y="345"/>
      <point x="30" y="336" type="curve"/>
      <point x="30" y="317"/>
      <point x="77" y="322"/>
      <point x="77" y="291" type="curve" smooth="yes"/>
      <point x="77" y="287"/>
      <point x="77" y="282"/>
      <point x="76" y="278" type="curve" smooth="yes"/>
      <point x="66" y="218"/>
      <point x="58" y="157"/>
      <point x="49" y="92" type="curve"/>
      <point x="56" y="66"/>
      <point x="63" y="-10"/>
      <point x="87" y="-10" type="curve" smooth="yes"/>
      <point x="121" y="-10"/>
      <point x="139" y="195"/>
      <point x="153" y="298" type="curve"/>
      <point x="158" y="326"/>
      <point x="169" y="341"/>
      <point x="199" y="346" type="curve" smooth="yes"/>
      <point x="244" y="353"/>
      <point x="300" y="363"/>
      <point x="339" y="385" type="curve"/>
      <point x="330" y="391"/>
      <point x="323" y="398"/>
      <point x="316" y="398" type="curve" smooth="yes"/>
      <point x="278" y="398"/>
      <point x="240" y="390"/>
      <point x="204" y="390" type="curve" smooth="yes"/>
      <point x="185" y="390"/>
      <point x="178" y="397"/>
      <point x="178" y="414" type="curve" smooth="yes"/>
      <point x="178" y="421"/>
      <point x="179" y="429"/>
      <point x="181" y="440" type="curve" smooth="yes"/>
      <point x="192" y="495"/>
      <point x="200" y="618"/>
      <point x="234" y="626" type="curve" smooth="yes"/>
      <point x="318" y="645"/>
      <point x="405" y="660"/>
      <point x="491" y="677" type="curve"/>
      <point x="496" y="677" type="line" smooth="yes"/>
      <point x="503" y="677"/>
      <point x="512" y="674"/>
      <point x="514" y="670" type="curve" smooth="yes"/>
      <point x="516" y="667"/>
      <point x="557" y="634"/>
      <point x="585" y="634" type="curve" smooth="yes"/>
      <point x="601" y="634"/>
      <point x="611" y="645"/>
    </contour>
  </outline>
</glyph>
<glyph name="G" format="1">
  <advance width="506"/>
  <unicode hex="0047"/>
  <outline>
    <contour>
      <point x="455" y="425" type="curve" name="hr00"/>
      <point x="452" y="426"/>
      <point x="449" y="427"/>
      <point x="444" y="427" type="curve" smooth="yes"/>
      <point x="415" y="427"/>
      <point x="386" y="410"/>
      <point x="352" y="399" type="curve"/>
      <point x="351" y="402"/>
      <point x="350" y="405"/>
      <point x="346" y="408" type="curve"/>
      <point x="335" y="402"/>
      <point x="323" y="396"/>
      <point x="310" y="391" type="curve"/>
      <point x="318" y="380"/>
      <point x="325" y="368"/>
      <point x="335" y="359" type="curve"/>
      <point x="343" y="349"/>
      <point x="373" y="344"/>
      <point x="373" y="325" type="curve" smooth="yes"/>
      <point x="373" y="312"/>
      <point x="364" y="250"/>
      <point x="361" y="190" type="curve"/>
      <point x="318" y="137"/>
      <point x="251" y="72"/>
      <point x="188" y="72" type="curve" smooth="yes"/>
      <point x="127" y="72"/>
      <point x="79" y="139"/>
      <point x="79" y="208" type="curve" smooth="yes"/>
      <point x="79" y="318"/>
      <point x="170" y="456"/>
      <point x="216" y="525" type="curve" smooth="yes"/>
      <point x="237" y="556"/>
      <point x="323" y="694"/>
      <point x="386" y="694" type="curve" smooth="yes"/>
      <point x="428" y="694"/>
      <point x="425" y="642"/>
      <point x="424" y="639" type="curve"/>
      <point x="424" y="624"/>
      <point x="427" y="579"/>
      <point x="450" y="579" type="curve" smooth="yes"/>
      <point x="474" y="579"/>
      <point x="476" y="624"/>
      <point x="476" y="639" type="curve" smooth="yes"/>
      <point x="476" y="694"/>
      <point x="461" y="817"/>
      <point x="387" y="817" type="curve" smooth="yes"/>
      <point x="293" y="817"/>
      <point x="158" y="583"/>
      <point x="135" y="544" type="curve" smooth="yes"/>
      <point x="77" y="448"/>
      <point x="30" y="323"/>
      <point x="30" y="203" type="curve" smooth="yes"/>
      <point x="30" y="92"/>
      <point x="83" y="-46"/>
      <point x="178" y="-46" type="curve" smooth="yes"/>
      <point x="227" y="-46"/>
      <point x="279" y="-15"/>
      <point x="325" y="23" type="curve"/>
      <point x="330" y="-8"/>
      <point x="338" y="-60"/>
      <point x="376" y="-60" type="curve" smooth="yes"/>
      <point x="412" y="-60"/>
      <point x="443" y="-16"/>
      <point x="443" y="3" type="curve" smooth="yes"/>
      <point x="443" y="11"/>
      <point x="440" y="17"/>
      <point x="434" y="23" type="curve" smooth="yes"/>
      <point x="416" y="39"/>
      <point x="411" y="56"/>
      <point x="411" y="73" type="curve" smooth="yes"/>
      <point x="411" y="95"/>
      <point x="420" y="116"/>
      <point x="422" y="140" type="curve"/>
      <point x="425" y="149"/>
      <point x="429" y="157"/>
      <point x="429" y="167" type="curve"/>
      <point x="442" y="238"/>
      <point x="459" y="308"/>
      <point x="472" y="380" type="curve"/>
      <point x="472" y="386" type="line" smooth="yes"/>
      <point x="472" y="400"/>
      <point x="464" y="418"/>
    </contour>
  </outline>
</glyph>
<glyph name="H" format="1">
  <advance width="509"/>
  <unicode hex="0048"/>
  <outline>
    <contour>
      <point x="310" y="92" type="curve" name="hr00"/>
      <point x="315" y="51"/>
      <point x="319" y="17"/>
      <point x="326" y="-17" type="curve"/>
      <point x="329" y="-26"/>
      <point x="342" y="-32"/>
      <point x="351" y="-39" type="curve"/>
      <point x="357" y="-30"/>
      <point x="367" y="-23"/>
      <point x="368" y="-15" type="curve"/>
      <point x="379" y="32"/>
      <point x="384" y="78"/>
      <point x="393" y="125" type="curve" smooth="yes"/>
      <point x="403" y="183"/>
      <point x="418" y="240"/>
      <point x="423" y="298" type="curve" smooth="yes"/>
      <point x="427" y="348"/>
      <point x="461" y="390"/>
      <point x="461" y="439" type="curve" smooth="yes"/>
      <point x="461" y="448"/>
      <point x="457" y="458"/>
      <point x="457" y="467" type="curve"/>
      <point x="457" y="469"/>
      <point x="459" y="471"/>
      <point x="460" y="473" type="curve"/>
      <point x="474" y="550"/>
      <point x="490" y="627"/>
      <point x="498" y="703" type="curve" smooth="yes"/>
      <point x="499" y="708"/>
      <point x="499" y="713"/>
      <point x="499" y="718" type="curve" smooth="yes"/>
      <point x="499" y="743"/>
      <point x="487" y="754"/>
      <point x="465" y="754" type="curve" smooth="yes"/>
      <point x="421" y="754"/>
      <point x="423" y="731"/>
      <point x="419" y="708" type="curve" smooth="yes"/>
      <point x="403" y="622"/>
      <point x="387" y="534"/>
      <point x="368" y="446" type="curve"/>
      <point x="365" y="410"/>
      <point x="242" y="400"/>
      <point x="202" y="400" type="curve" smooth="yes"/>
      <point x="185" y="400"/>
      <point x="178" y="407"/>
      <point x="178" y="422" type="curve" smooth="yes"/>
      <point x="178" y="502"/>
      <point x="217" y="579"/>
      <point x="219" y="658" type="curve"/>
      <point x="219" y="667"/>
      <point x="206" y="689"/>
      <point x="194" y="689" type="curve" smooth="yes"/>
      <point x="141" y="689"/>
      <point x="133" y="508"/>
      <point x="120" y="434" type="curve" smooth="yes"/>
      <point x="111" y="383"/>
      <point x="106" y="379"/>
      <point x="54" y="373" type="curve" smooth="yes"/>
      <point x="34" y="371"/>
      <point x="10" y="375"/>
      <point x="10" y="347" type="curve" smooth="yes"/>
      <point x="10" y="331"/>
      <point x="22" y="328"/>
      <point x="32" y="328" type="curve" smooth="yes"/>
      <point x="40" y="328"/>
      <point x="48" y="330"/>
      <point x="55" y="330" type="curve" smooth="yes"/>
      <point x="85" y="330"/>
      <point x="94" y="325"/>
      <point x="94" y="305" type="curve" smooth="yes"/>
      <point x="94" y="300"/>
      <point x="94" y="294"/>
      <point x="93" y="287" type="curve" smooth="yes"/>
      <point x="80" y="217"/>
      <point x="67" y="147"/>
      <point x="57" y="75" type="curve" smooth="yes"/>
      <point x="56" y="66"/>
      <point x="53" y="56"/>
      <point x="53" y="46" type="curve" smooth="yes"/>
      <point x="53" y="38"/>
      <point x="56" y="25"/>
      <point x="70" y="25" type="curve" smooth="yes"/>
      <point x="100" y="25"/>
      <point x="133" y="213"/>
      <point x="152" y="303" type="curve" smooth="yes"/>
      <point x="165" y="365"/>
      <point x="249" y="356"/>
      <point x="308" y="369" type="curve"/>
      <point x="317" y="370"/>
      <point x="324" y="371"/>
      <point x="330" y="371" type="curve" smooth="yes"/>
      <point x="344" y="371"/>
      <point x="349" y="366"/>
      <point x="349" y="352" type="curve" smooth="yes"/>
      <point x="349" y="346"/>
      <point x="348" y="339"/>
      <point x="347" y="330" type="curve" smooth="yes"/>
      <point x="334" y="249"/>
      <point x="321" y="168"/>
    </contour>
  </outline>
</glyph>
<glyph name="I" format="1">
  <advance width="301"/>
  <unicode hex="0049"/>
  <outline>
    <contour>
      <point x="84" y="141" type="curve" name="hr00"/>
      <point x="86" y="141" type="line"/>
      <point x="86" y="129"/>
      <point x="97" y="95"/>
      <point x="100" y="95" type="curve"/>
      <point x="101" y="95" type="line"/>
      <point x="101" y="91"/>
      <point x="42" y="43"/>
      <point x="18" y="25" type="curve"/>
      <point x="7" y="20"/>
      <point x="6" y="1"/>
      <point x="0" y="-11" type="curve"/>
      <point x="10" y="-12"/>
      <point x="21" y="-15"/>
      <point x="31" y="-15" type="curve" smooth="yes"/>
      <point x="60" y="-15"/>
      <point x="97" y="5"/>
      <point x="126" y="14" type="curve" smooth="yes"/>
      <point x="156" y="23"/>
      <point x="189" y="27"/>
      <point x="220" y="36" type="curve"/>
      <point x="227" y="37"/>
      <point x="233" y="49"/>
      <point x="239" y="57" type="curve"/>
      <point x="231" y="61"/>
      <point x="217" y="74"/>
      <point x="209" y="74" type="curve" smooth="yes"/>
      <point x="205" y="74"/>
      <point x="202" y="72"/>
      <point x="198" y="72" type="curve" smooth="yes"/>
      <point x="176" y="72"/>
      <point x="168" y="80"/>
      <point x="168" y="98" type="curve" smooth="yes"/>
      <point x="168" y="101"/>
      <point x="168" y="105"/>
      <point x="169" y="109" type="curve" smooth="yes"/>
      <point x="193" y="270"/>
      <point x="215" y="431"/>
      <point x="250" y="592" type="curve"/>
      <point x="260" y="631"/>
      <point x="311" y="653"/>
      <point x="345" y="685" type="curve"/>
      <point x="350" y="688"/>
      <point x="351" y="696"/>
      <point x="351" y="703" type="curve" smooth="yes"/>
      <point x="351" y="711"/>
      <point x="348" y="714"/>
      <point x="335" y="714" type="curve" smooth="yes"/>
      <point x="282" y="714"/>
      <point x="237" y="665"/>
      <point x="184" y="665" type="curve" smooth="yes"/>
      <point x="153" y="665"/>
      <point x="124" y="689"/>
      <point x="84" y="689" type="curve" smooth="yes"/>
      <point x="73" y="689"/>
      <point x="65" y="683"/>
      <point x="65" y="675" type="curve" smooth="yes"/>
      <point x="65" y="637"/>
      <point x="157" y="621"/>
      <point x="157" y="584" type="curve"/>
      <point x="157" y="582"/>
      <point x="156" y="579"/>
      <point x="156" y="577" type="curve"/>
      <point x="129" y="432"/>
      <point x="103" y="290"/>
    </contour>
  </outline>
</glyph>
<glyph name="K" format="1">
  <advance width="436"/>
  <unicode hex="004B"/>
  <outline>
    <contour>
      <point x="426" y="-133" type="curve" name="hr00"/>
      <point x="390" y="-54"/>
      <point x="353" y="27"/>
      <point x="321" y="106" type="curve" smooth="yes"/>
      <point x="294" y="171"/>
      <point x="273" y="237"/>
      <point x="243" y="300" type="curve" smooth="yes"/>
      <point x="236" y="315"/>
      <point x="232" y="327"/>
      <point x="232" y="340" type="curve" smooth="yes"/>
      <point x="232" y="357"/>
      <point x="240" y="374"/>
      <point x="254" y="393" type="curve" smooth="yes"/>
      <point x="324" y="485"/>
      <point x="390" y="581"/>
      <point x="457" y="675" type="curve" smooth="yes"/>
      <point x="464" y="685"/>
      <point x="463" y="700"/>
      <point x="465" y="712" type="curve"/>
      <point x="444" y="712"/>
      <point x="421" y="717"/>
      <point x="406" y="694" type="curve"/>
      <point x="230" y="453" type="line" smooth="yes"/>
      <point x="223" y="444"/>
      <point x="210" y="438"/>
      <point x="199" y="432" type="curve"/>
      <point x="197" y="444"/>
      <point x="193" y="459"/>
      <point x="193" y="471" type="curve" smooth="yes"/>
      <point x="193" y="475"/>
      <point x="195" y="479"/>
      <point x="195" y="483" type="curve"/>
      <point x="209" y="544"/>
      <point x="220" y="607"/>
      <point x="232" y="668" type="curve" smooth="yes"/>
      <point x="233" y="673"/>
      <point x="233" y="678"/>
      <point x="233" y="683" type="curve" smooth="yes"/>
      <point x="233" y="701"/>
      <point x="225" y="721"/>
      <point x="206" y="721" type="curve" smooth="yes"/>
      <point x="190" y="721"/>
      <point x="170" y="703"/>
      <point x="154" y="692" type="curve"/>
      <point x="145" y="681"/>
      <point x="146" y="641"/>
      <point x="143" y="615" type="curve"/>
      <point x="116" y="479"/>
      <point x="89" y="345"/>
      <point x="65" y="209" type="curve" smooth="yes"/>
      <point x="62" y="195"/>
      <point x="30" y="95"/>
      <point x="30" y="40" type="curve" smooth="yes"/>
      <point x="30" y="9"/>
      <point x="40" y="-1"/>
      <point x="65" y="-1" type="curve" smooth="yes"/>
      <point x="125" y="-1"/>
      <point x="134" y="142"/>
      <point x="148" y="218" type="curve" smooth="yes"/>
      <point x="151" y="237"/>
      <point x="144" y="266"/>
      <point x="171" y="268" type="curve"/>
      <point x="181" y="268"/>
      <point x="196" y="242"/>
      <point x="203" y="223" type="curve" smooth="yes"/>
      <point x="260" y="56"/>
      <point x="314" y="-126"/>
      <point x="448" y="-253" type="curve"/>
      <point x="448" y="-253"/>
      <point x="464" y="-262"/>
      <point x="475" y="-262" type="curve" smooth="yes"/>
      <point x="482" y="-262"/>
      <point x="486" y="-259"/>
      <point x="486" y="-250" type="curve" smooth="yes"/>
      <point x="486" y="-234"/>
      <point x="472" y="-201"/>
    </contour>
  </outline>
</glyph>
<glyph name="L" format="1">
  <advance width="443"/>
  <unicode hex="004C"/>
  <outline>
    <contour>
      <point x="226" y="672" type="curve" name="hr00"/>
      <point x="224" y="672"/>
      <point x="222" y="672"/>
      <point x="221" y="674" type="curve"/>
      <point x="221" y="683"/>
      <point x="222" y="693"/>
      <point x="222" y="702" type="curve" smooth="yes"/>
      <point x="222" y="737"/>
      <point x="196" y="746"/>
      <point x="177" y="746" type="curve" smooth="yes"/>
      <point x="155" y="746"/>
      <point x="146" y="730"/>
      <point x="143" y="698" type="curve" smooth="yes"/>
      <point x="134" y="611"/>
      <point x="120" y="523"/>
      <point x="108" y="437" type="curve" smooth="yes"/>
      <point x="92" y="326"/>
      <point x="65" y="218"/>
      <point x="64" y="107" type="curve"/>
      <point x="64" y="92"/>
      <point x="65" y="76"/>
      <point x="66" y="61" type="curve"/>
      <point x="66" y="41"/>
      <point x="38" y="11"/>
      <point x="30" y="-10" type="curve"/>
      <point x="39" y="-15"/>
      <point x="51" y="-24"/>
      <point x="64" y="-24" type="curve" smooth="yes"/>
      <point x="67" y="-24"/>
      <point x="71" y="-21"/>
      <point x="76" y="-19" type="curve"/>
      <point x="148" y="0"/>
      <point x="221" y="14"/>
      <point x="293" y="14" type="curve" smooth="yes"/>
      <point x="341" y="14"/>
      <point x="389" y="8"/>
      <point x="437" y="-6" type="curve" smooth="yes"/>
      <point x="441" y="-7"/>
      <point x="444" y="-7"/>
      <point x="448" y="-7" type="curve" smooth="yes"/>
      <point x="456" y="-7"/>
      <point x="464" y="-6"/>
      <point x="473" y="-4" type="curve"/>
      <point x="467" y="5"/>
      <point x="462" y="22"/>
      <point x="454" y="26" type="curve"/>
      <point x="405" y="43"/>
      <point x="367" y="59"/>
      <point x="314" y="59" type="curve" smooth="yes"/>
      <point x="261" y="59"/>
      <point x="209" y="47"/>
      <point x="156" y="47" type="curve" smooth="yes"/>
      <point x="136" y="47"/>
      <point x="128" y="54"/>
      <point x="128" y="71" type="curve" smooth="yes"/>
      <point x="128" y="76"/>
      <point x="128" y="83"/>
      <point x="130" y="90" type="curve" smooth="yes"/>
      <point x="138" y="122"/>
      <point x="141" y="154"/>
      <point x="147" y="188" type="curve" smooth="yes"/>
      <point x="176" y="350"/>
      <point x="200" y="513"/>
    </contour>
  </outline>
</glyph>
<glyph name="M" format="1">
  <advance width="530"/>
  <unicode hex="004D"/>
  <outline>
    <contour>
      <point x="325" y="33" type="curve" name="hr00"/>
      <point x="327" y="33"/>
      <point x="329" y="32"/>
      <point x="332" y="32" type="curve"/>
      <point x="332" y="21"/>
      <point x="331" y="9"/>
      <point x="331" y="-2" type="curve" smooth="yes"/>
      <point x="331" y="-22"/>
      <point x="344" y="-54"/>
      <point x="358" y="-54" type="curve" smooth="yes"/>
      <point x="407" y="-54"/>
      <point x="407" y="44"/>
      <point x="419" y="90" type="curve"/>
      <point x="453" y="254"/>
      <point x="490" y="418"/>
      <point x="527" y="581" type="curve" smooth="yes"/>
      <point x="533" y="610"/>
      <point x="550" y="643"/>
      <point x="550" y="669" type="curve" smooth="yes"/>
      <point x="550" y="687"/>
      <point x="536" y="700"/>
      <point x="505" y="700" type="curve" smooth="yes"/>
      <point x="492" y="700"/>
      <point x="479" y="695"/>
      <point x="471" y="677" type="curve" smooth="yes"/>
      <point x="406" y="525"/>
      <point x="333" y="371"/>
      <point x="263" y="222" type="curve" smooth="yes"/>
      <point x="257" y="210"/>
      <point x="246" y="203"/>
      <point x="239" y="194" type="curve"/>
      <point x="233" y="206"/>
      <point x="224" y="216"/>
      <point x="223" y="227" type="curve" smooth="yes"/>
      <point x="214" y="305"/>
      <point x="208" y="383"/>
      <point x="201" y="461" type="curve" smooth="yes"/>
      <point x="195" y="531"/>
      <point x="209" y="646"/>
      <point x="133" y="646" type="curve" smooth="yes"/>
      <point x="103" y="646"/>
      <point x="94" y="624"/>
      <point x="91" y="596" type="curve" smooth="yes"/>
      <point x="74" y="450"/>
      <point x="45" y="305"/>
      <point x="31" y="156" type="curve"/>
      <point x="30" y="152"/>
      <point x="30" y="147"/>
      <point x="30" y="143" type="curve" smooth="yes"/>
      <point x="30" y="107"/>
      <point x="44" y="35"/>
      <point x="71" y="35" type="curve" smooth="yes"/>
      <point x="93" y="35"/>
      <point x="103" y="72"/>
      <point x="105" y="99" type="curve"/>
      <point x="137" y="371" type="line" smooth="yes"/>
      <point x="139" y="390"/>
      <point x="148" y="408"/>
      <point x="154" y="425" type="curve"/>
      <point x="158" y="404"/>
      <point x="166" y="386"/>
      <point x="169" y="367" type="curve" smooth="yes"/>
      <point x="183" y="278"/>
      <point x="193" y="187"/>
      <point x="208" y="99" type="curve" smooth="yes"/>
      <point x="210" y="86"/>
      <point x="223" y="76"/>
      <point x="231" y="64" type="curve"/>
      <point x="240" y="74"/>
      <point x="252" y="82"/>
      <point x="257" y="93" type="curve" smooth="yes"/>
      <point x="291" y="173"/>
      <point x="317" y="255"/>
      <point x="351" y="331" type="curve" smooth="yes"/>
      <point x="354" y="338"/>
      <point x="361" y="340"/>
      <point x="367" y="345" type="curve"/>
      <point x="370" y="338"/>
      <point x="374" y="331"/>
      <point x="374" y="325" type="curve"/>
      <point x="373" y="308"/>
      <point x="370" y="289"/>
      <point x="367" y="273" type="curve" smooth="yes"/>
      <point x="353" y="193"/>
      <point x="338" y="112"/>
    </contour>
  </outline>
</glyph>
<glyph name="N" format="1">
  <advance width="533"/>
  <unicode hex="004E"/>
  <outline>
    <contour>
      <point x="196" y="520" type="curve" name="hr00"/>
      <point x="200" y="518"/>
      <point x="204" y="518"/>
      <point x="208" y="518" type="curve"/>
      <point x="213" y="492"/>
      <point x="217" y="467"/>
      <point x="220" y="443" type="curve" smooth="yes"/>
      <point x="258" y="151" type="line"/>
      <point x="266" y="95"/>
      <point x="271" y="-3"/>
      <point x="314" y="-3" type="curve" smooth="yes"/>
      <point x="370" y="-3"/>
      <point x="371" y="85"/>
      <point x="385" y="145" type="curve" smooth="yes"/>
      <point x="416" y="274"/>
      <point x="434" y="309"/>
      <point x="467" y="438" type="curve" smooth="yes"/>
      <point x="477" y="477"/>
      <point x="485" y="518"/>
      <point x="498" y="558" type="curve" smooth="yes"/>
      <point x="506" y="583"/>
      <point x="553" y="684"/>
      <point x="553" y="739" type="curve" smooth="yes"/>
      <point x="553" y="764"/>
      <point x="546" y="789"/>
      <point x="520" y="789" type="curve" smooth="yes"/>
      <point x="495" y="789"/>
      <point x="488" y="773"/>
      <point x="483" y="750" type="curve" smooth="yes"/>
      <point x="448" y="588"/>
      <point x="397" y="430"/>
      <point x="358" y="270" type="curve" smooth="yes"/>
      <point x="342" y="206"/>
      <point x="339" y="234"/>
      <point x="324" y="172" type="curve" smooth="yes"/>
      <point x="322" y="164"/>
      <point x="315" y="160"/>
      <point x="309" y="155" type="curve"/>
      <point x="286" y="177"/>
      <point x="287" y="266"/>
      <point x="278" y="312" type="curve" smooth="yes"/>
      <point x="258" y="420"/>
      <point x="236" y="530"/>
      <point x="213" y="638" type="curve" smooth="yes"/>
      <point x="209" y="656"/>
      <point x="197" y="667"/>
      <point x="178" y="667" type="curve" smooth="yes"/>
      <point x="131" y="667"/>
      <point x="138" y="591"/>
      <point x="129" y="546" type="curve" smooth="yes"/>
      <point x="88" y="353" type="line"/>
      <point x="72" y="268"/>
      <point x="58" y="183"/>
      <point x="42" y="99" type="curve" smooth="yes"/>
      <point x="38" y="76"/>
      <point x="30" y="54"/>
      <point x="31" y="30" type="curve"/>
      <point x="31" y="18"/>
      <point x="40" y="5"/>
      <point x="44" y="-7" type="curve"/>
      <point x="56" y="-1"/>
      <point x="70" y="1"/>
      <point x="78" y="10" type="curve"/>
      <point x="88" y="25"/>
      <point x="98" y="43"/>
      <point x="102" y="62" type="curve" smooth="yes"/>
      <point x="128" y="194"/>
      <point x="150" y="327"/>
      <point x="176" y="460" type="curve" smooth="yes"/>
      <point x="180" y="481"/>
      <point x="190" y="499"/>
    </contour>
  </outline>
</glyph>
<glyph name="O" format="1">
  <advance width="567"/>
  <unicode hex="004F"/>
  <outline>
    <contour>
      <point x="547" y="457" type="curve" name="hr00"/>
      <point x="547" y="645"/>
      <point x="488" y="738"/>
      <point x="390" y="738" type="curve" smooth="yes"/>
      <point x="348" y="738"/>
      <point x="288" y="714"/>
      <point x="254" y="682" type="curve" smooth="yes"/>
      <point x="213" y="643"/>
      <point x="168" y="603"/>
      <point x="140" y="559" type="curve" smooth="yes"/>
      <point x="105" y="505"/>
      <point x="81" y="447"/>
      <point x="63" y="388" type="curve"/>
      <point x="48" y="349"/>
      <point x="51" y="304"/>
      <point x="44" y="264" type="curve" smooth="yes"/>
      <point x="37" y="222"/>
      <point x="20" y="182"/>
      <point x="20" y="142" type="curve" smooth="yes"/>
      <point x="20" y="76"/>
      <point x="66" y="-18"/>
      <point x="182" y="-18" type="curve" smooth="yes"/>
      <point x="247" y="-18"/>
      <point x="312" y="26"/>
      <point x="351" y="65" type="curve" smooth="yes"/>
      <point x="481" y="195"/>
      <point x="542" y="340"/>
    </contour>
    <contour>
      <point x="466" y="520" type="curve"/>
      <point x="447" y="354"/>
      <point x="397" y="184"/>
      <point x="230" y="69" type="curve" smooth="yes"/>
      <point x="216" y="59"/>
      <point x="200" y="57"/>
      <point x="188" y="56" type="curve"/>
      <point x="157" y="56"/>
      <point x="143" y="85"/>
      <point x="143" y="121" type="curve" smooth="yes"/>
      <point x="143" y="166"/>
      <point x="159" y="220"/>
      <point x="168" y="265" type="curve" smooth="yes"/>
      <point x="176" y="303"/>
      <point x="273" y="295"/>
      <point x="273" y="334" type="curve" smooth="yes"/>
      <point x="273" y="338"/>
      <point x="271" y="340"/>
      <point x="266" y="340" type="curve" smooth="yes"/>
      <point x="262" y="340"/>
      <point x="258" y="339"/>
      <point x="255" y="339" type="curve" smooth="yes"/>
      <point x="226" y="339"/>
      <point x="209" y="349"/>
      <point x="209" y="367" type="curve" smooth="yes"/>
      <point x="209" y="376"/>
      <point x="215" y="387"/>
      <point x="215" y="395" type="curve" smooth="yes"/>
      <point x="215" y="422"/>
      <point x="168" y="430"/>
      <point x="168" y="463" type="curve" smooth="yes"/>
      <point x="168" y="467"/>
      <point x="169" y="471"/>
      <point x="171" y="474" type="curve" smooth="yes"/>
      <point x="213" y="541"/>
      <point x="294" y="678"/>
      <point x="388" y="678" type="curve" smooth="yes"/>
      <point x="449" y="678"/>
      <point x="456" y="564"/>
    </contour>
  </outline>
</glyph>
<glyph name="P" format="1">
  <advance width="440"/>
  <unicode hex="0050"/>
  <outline>
    <contour>
      <point x="254" y="680" type="line" name="hr00"/>
      <point x="374" y="670"/>
      <point x="417" y="654"/>
      <point x="417" y="572" type="curve" smooth="yes"/>
      <point x="417" y="502"/>
      <point x="357" y="430"/>
      <point x="313" y="375" type="curve" smooth="yes"/>
      <point x="292" y="348"/>
      <point x="242" y="296"/>
      <point x="218" y="296" type="curve" smooth="yes"/>
      <point x="204" y="296"/>
      <point x="200" y="305"/>
      <point x="200" y="321" type="curve" smooth="yes"/>
      <point x="200" y="385"/>
      <point x="286" y="429"/>
      <point x="300" y="486" type="curve"/>
      <point x="289" y="486" type="line" smooth="yes"/>
      <point x="266" y="486"/>
      <point x="246" y="455"/>
      <point x="226" y="441" type="curve" smooth="yes"/>
      <point x="215" y="433"/>
      <point x="203" y="430"/>
      <point x="192" y="426" type="curve"/>
      <point x="192" y="433"/>
      <point x="190" y="441"/>
      <point x="190" y="449" type="curve" smooth="yes"/>
      <point x="190" y="452"/>
      <point x="191" y="456"/>
      <point x="192" y="460" type="curve" smooth="yes"/>
      <point x="198" y="504"/>
      <point x="212" y="550"/>
      <point x="212" y="594" type="curve" smooth="yes"/>
      <point x="212" y="611"/>
      <point x="202" y="627"/>
      <point x="190" y="627" type="curve" smooth="yes"/>
      <point x="170" y="627"/>
      <point x="151" y="618"/>
      <point x="145" y="590" type="curve" smooth="yes"/>
      <point x="117" y="462"/>
      <point x="96" y="330"/>
      <point x="70" y="202" type="curve" smooth="yes"/>
      <point x="68" y="190"/>
      <point x="30" y="83"/>
      <point x="30" y="15" type="curve" smooth="yes"/>
      <point x="30" y="-20"/>
      <point x="43" y="-44"/>
      <point x="67" y="-44" type="curve"/>
      <point x="69" y="-44"/>
      <point x="70" y="-44"/>
      <point x="70" y="-43" type="curve"/>
      <point x="91" y="-28"/>
      <point x="114" y="-15"/>
      <point x="119" y="17" type="curve" smooth="yes"/>
      <point x="128" y="83"/>
      <point x="141" y="151"/>
      <point x="151" y="217" type="curve" smooth="yes"/>
      <point x="154" y="235"/>
      <point x="159" y="245"/>
      <point x="174" y="245" type="curve" smooth="yes"/>
      <point x="181" y="245"/>
      <point x="191" y="241"/>
      <point x="202" y="241" type="curve" smooth="yes"/>
      <point x="275" y="241"/>
      <point x="348" y="340"/>
      <point x="389" y="402" type="curve" smooth="yes"/>
      <point x="423" y="455"/>
      <point x="460" y="524"/>
      <point x="460" y="581" type="curve" smooth="yes"/>
      <point x="460" y="665"/>
      <point x="383" y="718"/>
      <point x="272" y="718" type="curve" smooth="yes"/>
      <point x="209" y="718"/>
      <point x="145" y="706"/>
      <point x="91" y="671" type="curve" smooth="yes"/>
      <point x="83" y="665"/>
      <point x="82" y="650"/>
      <point x="77" y="639" type="curve"/>
      <point x="96" y="639" type="line" smooth="yes"/>
      <point x="100" y="639"/>
      <point x="104" y="640"/>
      <point x="108" y="642" type="curve" smooth="yes"/>
      <point x="151" y="667"/>
      <point x="194" y="680"/>
      <point x="243" y="680" type="curve" smooth="yes"/>
    </contour>
  </outline>
</glyph>
<glyph name="Q" format="1">
  <advance width="471"/>
  <unicode hex="0051"/>
  <outline>
    <contour>
      <point x="326" y="367" type="curve" name="hr00"/>
      <point x="327" y="365"/>
      <point x="330" y="363"/>
      <point x="332" y="363" type="curve"/>
      <point x="320" y="302"/>
      <point x="299" y="247"/>
      <point x="290" y="188" type="curve" smooth="yes"/>
      <point x="275" y="93"/>
      <point x="267" y="-1"/>
      <point x="256" y="-95" type="curve"/>
      <point x="256" y="-98"/>
      <point x="255" y="-100"/>
      <point x="255" y="-103" type="curve" smooth="yes"/>
      <point x="255" y="-129"/>
      <point x="269" y="-166"/>
      <point x="290" y="-166" type="curve" smooth="yes"/>
      <point x="297" y="-166"/>
      <point x="304" y="-163"/>
      <point x="311" y="-157" type="curve" smooth="yes"/>
      <point x="351" y="-120"/>
      <point x="395" y="-57"/>
      <point x="395" y="-1" type="curve" smooth="yes"/>
      <point x="395" y="8"/>
      <point x="391" y="12"/>
      <point x="383" y="12" type="curve" smooth="yes"/>
      <point x="376" y="12"/>
      <point x="361" y="6"/>
      <point x="356" y="6" type="curve" smooth="yes"/>
      <point x="349" y="6"/>
      <point x="347" y="11"/>
      <point x="347" y="19" type="curve" smooth="yes"/>
      <point x="347" y="23"/>
      <point x="347" y="27"/>
      <point x="348" y="32" type="curve" smooth="yes"/>
      <point x="355" y="80"/>
      <point x="360" y="128"/>
      <point x="371" y="176" type="curve" smooth="yes"/>
      <point x="390" y="257"/>
      <point x="414" y="336"/>
      <point x="435" y="416" type="curve" smooth="yes"/>
      <point x="438" y="425"/>
      <point x="441" y="435"/>
      <point x="441" y="444" type="curve" smooth="yes"/>
      <point x="441" y="465"/>
      <point x="417" y="479"/>
      <point x="395" y="479" type="curve" smooth="yes"/>
      <point x="365" y="479"/>
      <point x="316" y="412"/>
      <point x="283" y="378" type="curve" smooth="yes"/>
      <point x="245" y="338"/>
      <point x="178" y="255"/>
      <point x="144" y="255" type="curve" smooth="yes"/>
      <point x="101" y="255"/>
      <point x="90" y="326"/>
      <point x="90" y="368" type="curve" smooth="yes"/>
      <point x="90" y="435"/>
      <point x="106" y="501"/>
      <point x="133" y="563" type="curve" smooth="yes"/>
      <point x="159" y="622"/>
      <point x="205" y="720"/>
      <point x="287" y="721" type="curve"/>
      <point x="319" y="721"/>
      <point x="348" y="696"/>
      <point x="348" y="653" type="curve" smooth="yes"/>
      <point x="348" y="634"/>
      <point x="345" y="615"/>
      <point x="345" y="596" type="curve" smooth="yes"/>
      <point x="345" y="593"/>
      <point x="348" y="578"/>
      <point x="353" y="578" type="curve" smooth="yes"/>
      <point x="378" y="578"/>
      <point x="391" y="616"/>
      <point x="391" y="647" type="curve" smooth="yes"/>
      <point x="391" y="720"/>
      <point x="328" y="768"/>
      <point x="293" y="768" type="curve" smooth="yes"/>
      <point x="266" y="768"/>
      <point x="218" y="746"/>
      <point x="192" y="721" type="curve" smooth="yes"/>
      <point x="97" y="631"/>
      <point x="50" y="493"/>
      <point x="50" y="367" type="curve" smooth="yes"/>
      <point x="50" y="273"/>
      <point x="86" y="219"/>
      <point x="139" y="219" type="curve" smooth="yes"/>
      <point x="196" y="219"/>
      <point x="241" y="283"/>
      <point x="290" y="336" type="curve" smooth="yes"/>
      <point x="301" y="348"/>
      <point x="314" y="356"/>
    </contour>
  </outline>
</glyph>
<glyph name="R" format="1">
  <advance width="497"/>
  <unicode hex="0052"/>
  <outline>
    <contour>
      <point x="479" y="-115" type="curve" name="hr00"/>
      <point x="484" y="-115" type="line"/>
      <point x="485" y="-120"/>
      <point x="487" y="-125"/>
      <point x="487" y="-130" type="curve" smooth="yes"/>
      <point x="487" y="-143"/>
      <point x="479" y="-162"/>
      <point x="474" y="-173" type="curve"/>
      <point x="464" y="-167"/>
      <point x="449" y="-162"/>
      <point x="445" y="-153" type="curve"/>
      <point x="399" y="-74"/>
      <point x="364" y="8"/>
      <point x="325" y="96" type="curve" smooth="yes"/>
      <point x="309" y="131"/>
      <point x="296" y="168"/>
      <point x="277" y="200" type="curve" smooth="yes"/>
      <point x="265" y="220"/>
      <point x="258" y="234"/>
      <point x="258" y="247" type="curve" smooth="yes"/>
      <point x="258" y="278"/>
      <point x="334" y="338"/>
      <point x="367" y="379" type="curve" smooth="yes"/>
      <point x="411" y="434"/>
      <point x="461" y="509"/>
      <point x="461" y="582" type="curve" smooth="yes"/>
      <point x="461" y="649"/>
      <point x="419" y="721"/>
      <point x="364" y="731" type="curve" smooth="yes"/>
      <point x="344" y="735"/>
      <point x="324" y="737"/>
      <point x="304" y="737" type="curve" smooth="yes"/>
      <point x="242" y="737"/>
      <point x="183" y="716"/>
      <point x="129" y="676" type="curve"/>
      <point x="120" y="671"/>
      <point x="119" y="654"/>
      <point x="113" y="642" type="curve"/>
      <point x="125" y="644"/>
      <point x="139" y="641"/>
      <point x="149" y="647" type="curve" smooth="yes"/>
      <point x="199" y="680"/>
      <point x="254" y="697"/>
      <point x="315" y="697" type="curve" smooth="yes"/>
      <point x="377" y="697"/>
      <point x="412" y="658"/>
      <point x="412" y="585" type="curve" smooth="yes"/>
      <point x="412" y="485"/>
      <point x="309" y="373"/>
      <point x="227" y="307" type="curve" smooth="yes"/>
      <point x="220" y="302"/>
      <point x="207" y="301"/>
      <point x="196" y="298" type="curve"/>
      <point x="194" y="305"/>
      <point x="191" y="315"/>
      <point x="191" y="323" type="curve"/>
      <point x="191" y="325"/>
      <point x="191" y="326"/>
      <point x="192" y="328" type="curve" smooth="yes"/>
      <point x="204" y="390"/>
      <point x="217" y="451"/>
      <point x="228" y="512" type="curve" smooth="yes"/>
      <point x="230" y="524"/>
      <point x="231" y="534"/>
      <point x="231" y="543" type="curve" smooth="yes"/>
      <point x="231" y="574"/>
      <point x="217" y="589"/>
      <point x="192" y="589" type="curve" smooth="yes"/>
      <point x="164" y="589"/>
      <point x="146" y="565"/>
      <point x="139" y="524" type="curve"/>
      <point x="139" y="514" type="line"/>
      <point x="125" y="438"/>
      <point x="111" y="362"/>
      <point x="98" y="286" type="curve" smooth="yes"/>
      <point x="95" y="268"/>
      <point x="85" y="262"/>
      <point x="69" y="262" type="curve" smooth="yes"/>
      <point x="58" y="262" type="line" smooth="yes"/>
      <point x="48" y="262"/>
      <point x="39" y="256"/>
      <point x="30" y="255" type="curve"/>
      <point x="62" y="218"/>
      <point x="80" y="217"/>
      <point x="80" y="184" type="curve" smooth="yes"/>
      <point x="80" y="157"/>
      <point x="75" y="128"/>
      <point x="75" y="101" type="curve" smooth="yes"/>
      <point x="75" y="81"/>
      <point x="76" y="61"/>
      <point x="78" y="42" type="curve" smooth="yes"/>
      <point x="81" y="19"/>
      <point x="102" y="-13"/>
      <point x="107" y="-13" type="curve"/>
      <point x="135" y="-8"/>
      <point x="142" y="20"/>
      <point x="145" y="46" type="curve" smooth="yes"/>
      <point x="151" y="93"/>
      <point x="157" y="141"/>
      <point x="164" y="188" type="curve"/>
      <point x="166" y="196"/>
      <point x="176" y="205"/>
      <point x="181" y="213" type="curve"/>
      <point x="189" y="205"/>
      <point x="198" y="200"/>
      <point x="201" y="192" type="curve" smooth="yes"/>
      <point x="239" y="106"/>
      <point x="271" y="19"/>
      <point x="312" y="-64" type="curve" smooth="yes"/>
      <point x="345" y="-132"/>
      <point x="388" y="-194"/>
      <point x="432" y="-256" type="curve" smooth="yes"/>
      <point x="441" y="-270"/>
      <point x="467" y="-283"/>
      <point x="486" y="-283" type="curve" smooth="yes"/>
      <point x="508" y="-283"/>
      <point x="539" y="-247"/>
      <point x="543" y="-220" type="curve" smooth="yes"/>
      <point x="545" y="-201"/>
      <point x="547" y="-181"/>
      <point x="547" y="-161" type="curve" smooth="yes"/>
      <point x="547" y="-103"/>
      <point x="539" y="-48"/>
      <point x="531" y="8" type="curve" smooth="yes"/>
      <point x="530" y="14"/>
      <point x="524" y="19"/>
      <point x="520" y="24" type="curve"/>
      <point x="495" y="4"/>
      <point x="488" y="-73"/>
    </contour>
  </outline>
</glyph>
<glyph name="S" format="1">
  <advance width="482"/>
  <unicode hex="0053"/>
  <outline>
    <contour>
      <point x="378" y="477" type="curve" smooth="yes" name="hr00"/>
      <point x="370" y="478"/>
      <point x="361" y="478"/>
      <point x="353" y="478" type="curve" smooth="yes"/>
      <point x="269" y="478"/>
      <point x="185" y="441"/>
      <point x="109" y="433" type="curve"/>
      <point x="152" y="480"/>
      <point x="201" y="520"/>
      <point x="250" y="563" type="curve" smooth="yes"/>
      <point x="282" y="590"/>
      <point x="314" y="620"/>
      <point x="350" y="643" type="curve"/>
      <point x="350" y="618"/>
      <point x="356" y="586"/>
      <point x="368" y="586" type="curve" smooth="yes"/>
      <point x="378" y="586"/>
      <point x="407" y="646"/>
      <point x="412" y="669" type="curve" smooth="yes"/>
      <point x="414" y="679"/>
      <point x="415" y="689"/>
      <point x="415" y="698" type="curve" smooth="yes"/>
      <point x="415" y="726"/>
      <point x="405" y="747"/>
      <point x="383" y="747" type="curve" smooth="yes"/>
      <point x="374" y="747"/>
      <point x="364" y="744"/>
      <point x="352" y="737" type="curve" smooth="yes"/>
      <point x="250" y="675"/>
      <point x="152" y="580"/>
      <point x="74" y="492" type="curve" smooth="yes"/>
      <point x="56" y="471"/>
      <point x="30" y="426"/>
      <point x="30" y="390" type="curve" smooth="yes"/>
      <point x="30" y="361"/>
      <point x="49" y="338"/>
      <point x="93" y="338" type="curve" smooth="yes"/>
      <point x="138" y="338"/>
      <point x="192" y="361"/>
      <point x="226" y="369" type="curve" smooth="yes"/>
      <point x="261" y="377"/>
      <point x="311" y="390"/>
      <point x="355" y="390" type="curve" smooth="yes"/>
      <point x="377" y="390"/>
      <point x="424" y="379"/>
      <point x="424" y="371" type="curve" smooth="yes"/>
      <point x="424" y="358"/>
      <point x="403" y="317"/>
      <point x="389" y="297" type="curve"/>
      <point x="339" y="212"/>
      <point x="255" y="136"/>
      <point x="169" y="83" type="curve"/>
      <point x="151" y="74"/>
      <point x="130" y="61"/>
      <point x="113" y="61" type="curve" smooth="yes"/>
      <point x="107" y="61"/>
      <point x="100" y="62"/>
      <point x="96" y="62" type="curve"/>
      <point x="96" y="68"/>
      <point x="98" y="76"/>
      <point x="98" y="84" type="curve" smooth="yes"/>
      <point x="98" y="106"/>
      <point x="88" y="137"/>
      <point x="77" y="137" type="curve" smooth="yes"/>
      <point x="67" y="137"/>
      <point x="53" y="93"/>
      <point x="53" y="46" type="curve" smooth="yes"/>
      <point x="53" y="7"/>
      <point x="65" y="-30"/>
      <point x="105" y="-30" type="curve" smooth="yes"/>
      <point x="186" y="-30"/>
      <point x="269" y="59"/>
      <point x="323" y="113" type="curve" smooth="yes"/>
      <point x="390" y="181"/>
      <point x="462" y="274"/>
      <point x="461" y="374" type="curve"/>
      <point x="461" y="428"/>
      <point x="436" y="470"/>
    </contour>
  </outline>
</glyph>
<glyph name="T" format="1">
  <advance width="645"/>
  <unicode hex="0054"/>
  <outline>
    <contour>
      <point x="85" y="583" type="curve" name="hr00"/>
      <point x="145" y="595"/>
      <point x="209" y="606"/>
      <point x="274" y="619" type="curve" smooth="yes"/>
      <point x="283" y="621"/>
      <point x="292" y="622"/>
      <point x="299" y="622" type="curve" smooth="yes"/>
      <point x="322" y="622"/>
      <point x="333" y="612"/>
      <point x="333" y="589" type="curve" smooth="yes"/>
      <point x="333" y="583"/>
      <point x="332" y="575"/>
      <point x="330" y="567" type="curve" smooth="yes"/>
      <point x="307" y="454"/>
      <point x="286" y="342"/>
      <point x="264" y="231" type="curve" smooth="yes"/>
      <point x="218" y="-4" type="line"/>
      <point x="213" y="-44"/>
      <point x="209" y="-81"/>
      <point x="209" y="-117" type="curve" smooth="yes"/>
      <point x="209" y="-139"/>
      <point x="225" y="-155"/>
      <point x="246" y="-155" type="curve" smooth="yes"/>
      <point x="267" y="-155"/>
      <point x="281" y="-112"/>
      <point x="286" y="-87" type="curve" smooth="yes"/>
      <point x="331" y="139"/>
      <point x="380" y="366"/>
      <point x="418" y="595" type="curve" smooth="yes"/>
      <point x="423" y="625"/>
      <point x="433" y="637"/>
      <point x="464" y="640" type="curve" smooth="yes"/>
      <point x="553" y="648"/>
      <point x="642" y="659"/>
      <point x="733" y="670" type="curve"/>
      <point x="744" y="672"/>
      <point x="755" y="687"/>
      <point x="765" y="694" type="curve"/>
      <point x="755" y="701"/>
      <point x="744" y="714"/>
      <point x="733" y="714" type="curve"/>
      <point x="680" y="717"/>
      <point x="629" y="719"/>
      <point x="576" y="719" type="curve"/>
      <point x="439" y="716"/>
      <point x="301" y="698"/>
      <point x="167" y="669" type="curve"/>
      <point x="161" y="667"/>
      <point x="155" y="666"/>
      <point x="151" y="666" type="curve" smooth="yes"/>
      <point x="120" y="666"/>
      <point x="144" y="725"/>
      <point x="107" y="725" type="curve" smooth="yes"/>
      <point x="64" y="725"/>
      <point x="30" y="682"/>
      <point x="30" y="628" type="curve" smooth="yes"/>
      <point x="30" y="594"/>
      <point x="45" y="583"/>
    </contour>
  </outline>
</glyph>
<glyph name="U" format="1">
  <advance width="547"/>
  <unicode hex="0055"/>
  <outline>
    <contour>
      <point x="30" y="192" type="curve" name="hr00"/>
      <point x="38" y="134"/>
      <point x="36" y="-1"/>
      <point x="140" y="-1" type="curve" smooth="yes"/>
      <point x="167" y="-1"/>
      <point x="193" y="12"/>
      <point x="209" y="37" type="curve" smooth="yes"/>
      <point x="254" y="107"/>
      <point x="293" y="180"/>
      <point x="337" y="252" type="curve" smooth="yes"/>
      <point x="343" y="262"/>
      <point x="350" y="269"/>
      <point x="358" y="278" type="curve"/>
      <point x="361" y="268"/>
      <point x="369" y="258"/>
      <point x="369" y="249" type="curve" smooth="yes"/>
      <point x="369" y="190"/>
      <point x="352" y="133"/>
      <point x="352" y="78" type="curve" smooth="yes"/>
      <point x="352" y="38"/>
      <point x="377" y="-18"/>
      <point x="414" y="-18" type="curve" smooth="yes"/>
      <point x="457" y="-18"/>
      <point x="490" y="55"/>
      <point x="490" y="77" type="curve" smooth="yes"/>
      <point x="490" y="108"/>
      <point x="457" y="135"/>
      <point x="457" y="169" type="curve" smooth="yes"/>
      <point x="457" y="212"/>
      <point x="466" y="254"/>
      <point x="472" y="299" type="curve" smooth="yes"/>
      <point x="485" y="397"/>
      <point x="505" y="495"/>
      <point x="516" y="593" type="curve" smooth="yes"/>
      <point x="517" y="599"/>
      <point x="517" y="605"/>
      <point x="517" y="610" type="curve" smooth="yes"/>
      <point x="517" y="639"/>
      <point x="506" y="652"/>
      <point x="482" y="652" type="curve" smooth="yes"/>
      <point x="463" y="652"/>
      <point x="433" y="646"/>
      <point x="420" y="614" type="curve" smooth="yes"/>
      <point x="374" y="502"/>
      <point x="332" y="387"/>
      <point x="282" y="275" type="curve" smooth="yes"/>
      <point x="250" y="203"/>
      <point x="209" y="137"/>
      <point x="166" y="73" type="curve" smooth="yes"/>
      <point x="158" y="61"/>
      <point x="148" y="55"/>
      <point x="136" y="56" type="curve"/>
      <point x="87" y="56"/>
      <point x="86" y="172"/>
      <point x="86" y="238" type="curve" smooth="yes"/>
      <point x="86" y="403"/>
      <point x="120" y="567"/>
      <point x="145" y="730" type="curve"/>
      <point x="145" y="735"/>
      <point x="146" y="740"/>
      <point x="146" y="745" type="curve" smooth="yes"/>
      <point x="146" y="758"/>
      <point x="144" y="771"/>
      <point x="143" y="785" type="curve"/>
      <point x="103" y="740" type="line" smooth="yes"/>
      <point x="100" y="737"/>
      <point x="102" y="732"/>
      <point x="100" y="730" type="curve"/>
      <point x="47" y="560"/>
      <point x="43" y="382"/>
    </contour>
  </outline>
</glyph>
<glyph name="V" format="1">
  <advance width="456"/>
  <unicode hex="0056"/>
  <outline>
    <contour>
      <point x="556" y="745" type="curve" name="hr00"/>
      <point x="553" y="746"/>
      <point x="550" y="749"/>
      <point x="547" y="750" type="curve"/>
      <point x="534" y="739" type="line"/>
      <point x="432" y="635"/>
      <point x="357" y="513"/>
      <point x="306" y="376" type="curve" smooth="yes"/>
      <point x="283" y="313"/>
      <point x="259" y="252"/>
      <point x="234" y="191" type="curve" smooth="yes"/>
      <point x="230" y="182"/>
      <point x="219" y="176"/>
      <point x="212" y="168" type="curve"/>
      <point x="197" y="205"/>
      <point x="197" y="234"/>
      <point x="191" y="268" type="curve"/>
      <point x="149" y="464" type="line"/>
      <point x="142" y="504"/>
      <point x="134" y="545"/>
      <point x="126" y="585" type="curve" smooth="yes"/>
      <point x="121" y="611"/>
      <point x="108" y="616"/>
      <point x="89" y="616" type="curve" smooth="yes"/>
      <point x="56" y="616"/>
      <point x="50" y="605"/>
      <point x="50" y="587" type="curve" smooth="yes"/>
      <point x="50" y="515"/>
      <point x="75" y="425"/>
      <point x="88" y="345" type="curve" smooth="yes"/>
      <point x="103" y="248"/>
      <point x="125" y="-15"/>
      <point x="178" y="-15" type="curve" smooth="yes"/>
      <point x="199" y="-15"/>
      <point x="221" y="16"/>
      <point x="233" y="43" type="curve"/>
      <point x="336" y="332" type="line"/>
      <point x="392" y="481"/>
      <point x="482" y="604"/>
    </contour>
  </outline>
</glyph>
<glyph name="W" format="1">
  <advance width="530"/>
  <unicode hex="0057"/>
  <outline>
    <contour>
      <point x="392" y="171" type="curve" name="hr00"/>
      <point x="386" y="172"/>
      <point x="382" y="172"/>
      <point x="377" y="174" type="curve"/>
      <point x="371" y="214"/>
      <point x="362" y="252"/>
      <point x="362" y="292" type="curve" smooth="yes"/>
      <point x="362" y="312" type="line" smooth="yes"/>
      <point x="362" y="357"/>
      <point x="337" y="438"/>
      <point x="312" y="438" type="curve" smooth="yes"/>
      <point x="298" y="438"/>
      <point x="248" y="356"/>
      <point x="222" y="316" type="curve" smooth="yes"/>
      <point x="198" y="280"/>
      <point x="163" y="202"/>
      <point x="134" y="193" type="curve"/>
      <point x="133" y="197"/>
      <point x="130" y="201"/>
      <point x="130" y="206" type="curve"/>
      <point x="147" y="356"/>
      <point x="170" y="506"/>
      <point x="177" y="657" type="curve"/>
      <point x="177" y="665" type="line" smooth="yes"/>
      <point x="177" y="687"/>
      <point x="170" y="702"/>
      <point x="139" y="702" type="curve"/>
      <point x="96" y="697"/>
      <point x="72" y="670"/>
      <point x="72" y="625" type="curve" smooth="yes"/>
      <point x="72" y="558"/>
      <point x="64" y="493"/>
      <point x="62" y="425" type="curve"/>
      <point x="40" y="61" type="line"/>
      <point x="40" y="25"/>
      <point x="53" y="3"/>
      <point x="77" y="3" type="curve" smooth="yes"/>
      <point x="137" y="3"/>
      <point x="186" y="165"/>
      <point x="226" y="255" type="curve" smooth="yes"/>
      <point x="231" y="266"/>
      <point x="245" y="272"/>
      <point x="256" y="280" type="curve"/>
      <point x="262" y="269"/>
      <point x="272" y="259"/>
      <point x="272" y="246" type="curve" smooth="yes"/>
      <point x="272" y="238"/>
      <point x="271" y="230"/>
      <point x="271" y="222" type="curve" smooth="yes"/>
      <point x="271" y="117"/>
      <point x="295" y="14"/>
      <point x="314" y="-89" type="curve"/>
      <point x="320" y="-111"/>
      <point x="334" y="-145"/>
      <point x="357" y="-145" type="curve" smooth="yes"/>
      <point x="381" y="-145"/>
      <point x="406" y="-94"/>
      <point x="412" y="-65" type="curve" smooth="yes"/>
      <point x="437" y="58"/>
      <point x="458" y="182"/>
      <point x="482" y="305" type="curve"/>
      <point x="505" y="408"/>
      <point x="528" y="510"/>
      <point x="552" y="612" type="curve"/>
      <point x="610" y="826" type="line"/>
      <point x="610" y="830" type="line" smooth="yes"/>
      <point x="610" y="835"/>
      <point x="608" y="841"/>
      <point x="607" y="847" type="curve"/>
      <point x="601" y="843"/>
      <point x="592" y="840"/>
      <point x="589" y="834" type="curve" smooth="yes"/>
      <point x="571" y="789"/>
      <point x="549" y="743"/>
      <point x="532" y="697" type="curve" smooth="yes"/>
      <point x="468" y="527"/>
      <point x="434" y="348"/>
    </contour>
  </outline>
</glyph>
<glyph name="X" format="1">
  <advance width="459"/>
  <unicode hex="0058"/>
  <outline>
    <contour>
      <point x="-30" y="-7" type="curve" name="hr00"/>
      <point x="-14" y="-21"/>
      <point x="1" y="-49"/>
      <point x="18" y="-49" type="curve" smooth="yes"/>
      <point x="49" y="-49"/>
      <point x="86" y="15"/>
      <point x="110" y="53" type="curve" smooth="yes"/>
      <point x="139" y="98"/>
      <point x="164" y="148"/>
      <point x="195" y="195" type="curve" smooth="yes"/>
      <point x="199" y="201"/>
      <point x="213" y="212"/>
      <point x="221" y="212" type="curve" smooth="yes"/>
      <point x="235" y="212"/>
      <point x="292" y="43"/>
      <point x="319" y="-16" type="curve" smooth="yes"/>
      <point x="340" y="-63"/>
      <point x="370" y="-108"/>
      <point x="425" y="-123" type="curve" smooth="yes"/>
      <point x="427" y="-124"/>
      <point x="428" y="-124"/>
      <point x="430" y="-124" type="curve"/>
      <point x="439" y="-124"/>
      <point x="449" y="-120"/>
      <point x="458" y="-117" type="curve"/>
      <point x="437" y="-70"/>
      <point x="395" y="-44"/>
      <point x="372" y="-1" type="curve" smooth="yes"/>
      <point x="324" y="87"/>
      <point x="291" y="184"/>
      <point x="270" y="285" type="curve" smooth="yes"/>
      <point x="269" y="288"/>
      <point x="269" y="290"/>
      <point x="269" y="293" type="curve" smooth="yes"/>
      <point x="269" y="304"/>
      <point x="273" y="318"/>
      <point x="279" y="329" type="curve" smooth="yes"/>
      <point x="351" y="457"/>
      <point x="439" y="575"/>
      <point x="528" y="697" type="curve"/>
      <point x="532" y="704"/>
      <point x="539" y="719"/>
      <point x="539" y="727" type="curve" smooth="yes"/>
      <point x="539" y="747"/>
      <point x="491" y="748"/>
      <point x="491" y="748" type="curve"/>
      <point x="463" y="748"/>
      <point x="439" y="736"/>
      <point x="421" y="711" type="curve" smooth="yes"/>
      <point x="362" y="627"/>
      <point x="305" y="546"/>
      <point x="241" y="466" type="curve"/>
      <point x="203" y="538"/>
      <point x="189" y="610"/>
      <point x="163" y="681" type="curve" smooth="yes"/>
      <point x="159" y="692"/>
      <point x="140" y="697"/>
      <point x="128" y="705" type="curve"/>
      <point x="126" y="693"/>
      <point x="122" y="682"/>
      <point x="122" y="672" type="curve" smooth="yes"/>
      <point x="122" y="669"/>
      <point x="122" y="666"/>
      <point x="123" y="664" type="curve" smooth="yes"/>
      <point x="142" y="576"/>
      <point x="165" y="490"/>
      <point x="182" y="402" type="curve" smooth="yes"/>
      <point x="183" y="398"/>
      <point x="183" y="393"/>
      <point x="183" y="389" type="curve" smooth="yes"/>
      <point x="183" y="343"/>
      <point x="136" y="276"/>
      <point x="106" y="228" type="curve" smooth="yes"/>
      <point x="76" y="180"/>
      <point x="40" y="133"/>
      <point x="10" y="83" type="curve"/>
      <point x="-7" y="59"/>
      <point x="-15" y="27"/>
    </contour>
  </outline>
</glyph>
<glyph name="Y" format="1">
  <advance width="446"/>
  <unicode hex="0059"/>
  <outline>
    <contour>
      <point x="491" y="714" type="curve" smooth="yes" name="hr00"/>
      <point x="484" y="718"/>
      <point x="475" y="720"/>
      <point x="466" y="720" type="curve" smooth="yes"/>
      <point x="457" y="720"/>
      <point x="449" y="719"/>
      <point x="442" y="716" type="curve" smooth="yes"/>
      <point x="413" y="706"/>
      <point x="376" y="626"/>
      <point x="376" y="595" type="curve"/>
      <point x="305" y="356" type="line"/>
      <point x="263" y="356"/>
      <point x="169" y="599"/>
      <point x="159" y="629" type="curve" smooth="yes"/>
      <point x="150" y="656"/>
      <point x="119" y="789"/>
      <point x="72" y="789" type="curve" smooth="yes"/>
      <point x="59" y="789"/>
      <point x="30" y="774"/>
      <point x="30" y="723" type="curve" smooth="yes"/>
      <point x="30" y="691"/>
      <point x="39" y="655"/>
      <point x="53" y="655" type="curve" smooth="yes"/>
      <point x="59" y="655"/>
      <point x="67" y="668"/>
      <point x="73" y="668" type="curve" smooth="yes"/>
      <point x="88" y="668"/>
      <point x="102" y="608"/>
      <point x="106" y="595" type="curve" smooth="yes"/>
      <point x="122" y="537"/>
      <point x="145" y="478"/>
      <point x="170" y="424" type="curve" smooth="yes"/>
      <point x="183" y="395"/>
      <point x="225" y="292"/>
      <point x="271" y="253" type="curve"/>
      <point x="252" y="197"/>
      <point x="236" y="139"/>
      <point x="207" y="88" type="curve"/>
      <point x="201" y="95"/>
      <point x="193" y="102"/>
      <point x="188" y="109" type="curve"/>
      <point x="166" y="132" type="line"/>
      <point x="160" y="121"/>
      <point x="148" y="111"/>
      <point x="148" y="102" type="curve"/>
      <point x="151" y="46"/>
      <point x="149" y="-49"/>
      <point x="197" y="-49" type="curve" smooth="yes"/>
      <point x="214" y="-49"/>
      <point x="239" y="-25"/>
      <point x="246" y="-7" type="curve" smooth="yes"/>
      <point x="335" y="219"/>
      <point x="416" y="443"/>
      <point x="492" y="671" type="curve" smooth="yes"/>
      <point x="494" y="678"/>
      <point x="496" y="688"/>
      <point x="496" y="697" type="curve" smooth="yes"/>
      <point x="496" y="705"/>
      <point x="494" y="712"/>
    </contour>
  </outline>
</glyph>
<glyph name="Z" format="1">
  <advance width="392"/>
  <unicode hex="005A"/>
  <outline>
    <contour>
      <point x="191" y="142" type="curve" smooth="yes" name="hr00"/>
      <point x="176" y="141"/>
      <point x="159" y="139"/>
      <point x="145" y="139" type="curve"/>
      <point x="133" y="141"/>
      <point x="119" y="144"/>
      <point x="119" y="155" type="curve" smooth="yes"/>
      <point x="119" y="161"/>
      <point x="122" y="169"/>
      <point x="126" y="174" type="curve" smooth="yes"/>
      <point x="229" y="336"/>
      <point x="346" y="497"/>
      <point x="437" y="661" type="curve" smooth="yes"/>
      <point x="440" y="666"/>
      <point x="442" y="675"/>
      <point x="442" y="683" type="curve" smooth="yes"/>
      <point x="442" y="704"/>
      <point x="419" y="702"/>
      <point x="403" y="702" type="curve" smooth="yes"/>
      <point x="384" y="702"/>
      <point x="383" y="695"/>
      <point x="372" y="686" type="curve" smooth="yes"/>
      <point x="349" y="667"/>
      <point x="244" y="656"/>
      <point x="188" y="656" type="curve" smooth="yes"/>
      <point x="139" y="656"/>
      <point x="135" y="680"/>
      <point x="94" y="680" type="curve" smooth="yes"/>
      <point x="80" y="680" type="line"/>
      <point x="83" y="671"/>
      <point x="83" y="657"/>
      <point x="89" y="654" type="curve" smooth="yes"/>
      <point x="111" y="642"/>
      <point x="134" y="628"/>
      <point x="159" y="623" type="curve" smooth="yes"/>
      <point x="197" y="616"/>
      <point x="304" y="606"/>
      <point x="305" y="577" type="curve"/>
      <point x="305" y="575"/>
      <point x="304" y="572"/>
      <point x="302" y="569" type="curve" smooth="yes"/>
      <point x="191" y="394"/>
      <point x="82" y="217"/>
      <point x="-44" y="53" type="curve" smooth="yes"/>
      <point x="-48" y="47"/>
      <point x="-50" y="39"/>
      <point x="-50" y="31" type="curve" smooth="yes"/>
      <point x="-50" y="14"/>
      <point x="-36" y="-2"/>
      <point x="-18" y="-2" type="curve" smooth="yes"/>
      <point x="-4" y="-2"/>
      <point x="7" y="7"/>
      <point x="18" y="17" type="curve" smooth="yes"/>
      <point x="76" y="69"/>
      <point x="147" y="84"/>
      <point x="250" y="85" type="curve"/>
      <point x="281" y="85"/>
      <point x="311" y="82"/>
      <point x="334" y="73" type="curve" smooth="yes"/>
      <point x="337" y="72"/>
      <point x="340" y="72"/>
      <point x="343" y="72" type="curve" smooth="yes"/>
      <point x="353" y="72"/>
      <point x="364" y="76"/>
      <point x="376" y="77" type="curve"/>
      <point x="367" y="89"/>
      <point x="362" y="104"/>
      <point x="353" y="113" type="curve"/>
      <point x="322" y="134"/>
      <point x="264" y="143"/>
      <point x="219" y="143" type="curve" smooth="yes"/>
      <point x="209" y="143"/>
      <point x="199" y="143"/>
    </contour>
  </outline>
</glyph>
<glyph name="bracketleft" format="1">
  <advance width="287"/>
  <unicode hex="005B"/>
  <outline>
    <contour>
      <point x="310" y="624" type="curve" name="hr00"/>
      <point x="314" y="624"/>
      <point x="319" y="623"/>
      <point x="323" y="623" type="curve" smooth="yes"/>
      <point x="335" y="623"/>
      <point x="356" y="645"/>
      <point x="367" y="656" type="curve"/>
      <point x="357" y="664"/>
      <point x="347" y="676"/>
      <point x="335" y="683" type="curve" smooth="yes"/>
      <point x="315" y="694"/>
      <point x="281" y="704"/>
      <point x="263" y="704" type="curve" smooth="yes"/>
      <point x="241" y="704"/>
      <point x="219" y="691"/>
      <point x="212" y="670" type="curve" smooth="yes"/>
      <point x="175" y="566"/>
      <point x="138" y="461"/>
      <point x="102" y="357" type="curve" smooth="yes"/>
      <point x="79" y="291"/>
      <point x="60" y="221"/>
      <point x="38" y="156" type="curve" smooth="yes"/>
      <point x="15" y="90"/>
      <point x="-9" y="27"/>
      <point x="-29" y="-39" type="curve" smooth="yes"/>
      <point x="-30" y="-42"/>
      <point x="-30" y="-45"/>
      <point x="-30" y="-48" type="curve" smooth="yes"/>
      <point x="-30" y="-67"/>
      <point x="-23" y="-94"/>
      <point x="0" y="-94" type="curve" smooth="yes"/>
      <point x="46" y="-94"/>
      <point x="85" y="-60"/>
      <point x="131" y="-60" type="curve" smooth="yes"/>
      <point x="146" y="-60"/>
      <point x="163" y="-69"/>
      <point x="177" y="-69" type="curve" smooth="yes"/>
      <point x="189" y="-69"/>
      <point x="196" y="-60"/>
      <point x="196" y="-49" type="curve" smooth="yes"/>
      <point x="196" y="-17"/>
      <point x="156" y="1"/>
      <point x="135" y="1" type="curve" smooth="yes"/>
      <point x="123" y="1"/>
      <point x="110" y="-1"/>
      <point x="98" y="-1" type="curve" smooth="yes"/>
      <point x="80" y="-1"/>
      <point x="72" y="5"/>
      <point x="72" y="19" type="curve" smooth="yes"/>
      <point x="72" y="31"/>
      <point x="78" y="47"/>
      <point x="84" y="59" type="curve"/>
      <point x="142" y="238"/>
      <point x="202" y="415"/>
      <point x="261" y="593" type="curve" smooth="yes"/>
      <point x="268" y="613"/>
      <point x="278" y="625"/>
      <point x="297" y="625" type="curve" smooth="yes"/>
      <point x="301" y="625"/>
      <point x="305" y="625"/>
    </contour>
  </outline>
</glyph>
<glyph name="backslash" format="1">
  <advance width="413"/>
  <unicode hex="005C"/>
  <outline>
    <contour>
      <point x="353" y="13" type="curve" name="hr00"/>
      <point x="307" y="194"/>
      <point x="252" y="363"/>
      <point x="193" y="539" type="curve" smooth="yes"/>
      <point x="173" y="597"/>
      <point x="149" y="652"/>
      <point x="125" y="710" type="curve" smooth="yes"/>
      <point x="119" y="724"/>
      <point x="109" y="731"/>
      <point x="97" y="731" type="curve" smooth="yes"/>
      <point x="72" y="731"/>
      <point x="60" y="713"/>
      <point x="60" y="701" type="curve" smooth="yes"/>
      <point x="60" y="695"/>
      <point x="61" y="689"/>
      <point x="64" y="682" type="curve" smooth="yes"/>
      <point x="138" y="489"/>
      <point x="190" y="292"/>
      <point x="253" y="96" type="curve" smooth="yes"/>
      <point x="266" y="55"/>
      <point x="301" y="-17"/>
      <point x="330" y="-18" type="curve"/>
      <point x="344" y="-18"/>
      <point x="347" y="2"/>
    </contour>
  </outline>
</glyph>
<glyph name="bracketright" format="1">
  <advance width="396"/>
  <unicode hex="005D"/>
  <outline>
    <contour>
      <point x="262" y="673" type="curve" name="hr00"/>
      <point x="260" y="678"/>
      <point x="260" y="682"/>
      <point x="258" y="686" type="curve"/>
      <point x="247" y="680"/>
      <point x="228" y="673"/>
      <point x="228" y="666" type="curve" smooth="yes"/>
      <point x="228" y="618"/>
      <point x="317" y="624"/>
      <point x="317" y="594" type="curve" smooth="yes"/>
      <point x="317" y="589"/>
      <point x="315" y="583"/>
      <point x="312" y="575" type="curve"/>
      <point x="229" y="399"/>
      <point x="164" y="213"/>
      <point x="98" y="30" type="curve" smooth="yes"/>
      <point x="86" y="-2"/>
      <point x="68" y="-11"/>
      <point x="36" y="-12" type="curve" smooth="yes"/>
      <point x="0" y="-13"/>
      <point x="-36" y="-22"/>
      <point x="-71" y="-34" type="curve"/>
      <point x="-83" y="-37"/>
      <point x="-90" y="-56"/>
      <point x="-100" y="-68" type="curve"/>
      <point x="-87" y="-73"/>
      <point x="-74" y="-84"/>
      <point x="-60" y="-85" type="curve" smooth="yes"/>
      <point x="-10" y="-90"/>
      <point x="43" y="-95"/>
      <point x="94" y="-95" type="curve" smooth="yes"/>
      <point x="142" y="-95"/>
      <point x="178" y="26"/>
      <point x="191" y="61" type="curve" smooth="yes"/>
      <point x="228" y="162"/>
      <point x="261" y="262"/>
      <point x="302" y="360" type="curve"/>
      <point x="338" y="453"/>
      <point x="381" y="543"/>
      <point x="422" y="634" type="curve" smooth="yes"/>
      <point x="425" y="640"/>
      <point x="426" y="647"/>
      <point x="426" y="653" type="curve" smooth="yes"/>
      <point x="426" y="670"/>
      <point x="414" y="681"/>
      <point x="392" y="681" type="curve" smooth="yes"/>
      <point x="349" y="681"/>
      <point x="305" y="676"/>
    </contour>
  </outline>
</glyph>
<glyph name="asciicircum" format="1">
  <advance width="280"/>
  <unicode hex="005E"/>
  <outline>
    <contour>
      <point x="280" y="575" type="curve" name="hr00"/>
      <point x="279" y="575" type="line"/>
      <point x="279" y="638" type="line" smooth="yes"/>
      <point x="279" y="652"/>
      <point x="278" y="706"/>
      <point x="263" y="706" type="curve" smooth="yes"/>
      <point x="243" y="706"/>
      <point x="215" y="706"/>
      <point x="205" y="692" type="curve"/>
      <point x="156" y="638"/>
      <point x="113" y="580"/>
      <point x="71" y="520" type="curve"/>
      <point x="64" y="513"/>
      <point x="60" y="498"/>
      <point x="60" y="489" type="curve" smooth="yes"/>
      <point x="60" y="475"/>
      <point x="73" y="471"/>
      <point x="80" y="471" type="curve" smooth="yes"/>
      <point x="116" y="471"/>
      <point x="150" y="553"/>
      <point x="182" y="553" type="curve" smooth="yes"/>
      <point x="198" y="553"/>
      <point x="215" y="482"/>
      <point x="235" y="446" type="curve" smooth="yes"/>
      <point x="239" y="438"/>
      <point x="256" y="433"/>
      <point x="266" y="427" type="curve"/>
      <point x="270" y="439"/>
      <point x="279" y="450"/>
      <point x="279" y="459" type="curve"/>
      <point x="280" y="497"/>
      <point x="280" y="537"/>
    </contour>
  </outline>
</glyph>
<glyph name="underscore" format="1">
  <advance width="296"/>
  <unicode hex="005F"/>
  <outline>
    <contour>
      <point x="168" y="-151" type="line" name="hr00"/>
      <point x="168" y="-157" type="line"/>
      <point x="206" y="-157" type="line" smooth="yes"/>
      <point x="245" y="-157"/>
      <point x="326" y="-154"/>
      <point x="326" y="-116" type="curve" smooth="yes"/>
      <point x="326" y="-82"/>
      <point x="112" y="-84"/>
      <point x="4" y="-84" type="curve" smooth="yes"/>
      <point x="-26" y="-84"/>
      <point x="-80" y="-91"/>
      <point x="-80" y="-117" type="curve" smooth="yes"/>
      <point x="-80" y="-132"/>
      <point x="-58" y="-151"/>
      <point x="-35" y="-151" type="curve" smooth="yes"/>
    </contour>
  </outline>
</glyph>
<glyph name="grave" format="1">
  <advance width="156"/>
  <unicode hex="0060"/>
  <outline>
    <contour>
      <point x="196" y="543" type="curve" name="hr00"/>
      <point x="185" y="599"/>
      <point x="151" y="708"/>
      <point x="120" y="708" type="curve" smooth="yes"/>
      <point x="111" y="708"/>
      <point x="80" y="692"/>
      <point x="80" y="675" type="curve"/>
      <point x="80" y="674"/>
      <point x="81" y="674"/>
      <point x="81" y="673" type="curve"/>
      <point x="93" y="626"/>
      <point x="114" y="513"/>
      <point x="170" y="513" type="curve" smooth="yes"/>
      <point x="184" y="513"/>
      <point x="191" y="535"/>
    </contour>
  </outline>
</glyph>
<glyph name="a" format="1">
  <advance width="275"/>
  <unicode hex="0061"/>
  <outline>
    <contour>
      <point x="181" y="338" type="curve" name="hr00"/>
      <point x="157" y="326"/>
      <point x="127" y="319"/>
      <point x="107" y="304" type="curve" smooth="yes"/>
      <point x="51" y="262"/>
      <point x="10" y="188"/>
      <point x="10" y="116" type="curve" smooth="yes"/>
      <point x="10" y="85"/>
      <point x="29" y="60"/>
      <point x="59" y="60" type="curve" smooth="yes"/>
      <point x="93" y="60"/>
      <point x="127" y="90"/>
      <point x="133" y="90" type="curve" smooth="yes"/>
      <point x="150" y="90"/>
      <point x="132" y="60"/>
      <point x="160" y="27" type="curve" smooth="yes"/>
      <point x="169" y="15"/>
      <point x="177" y="8"/>
      <point x="186" y="8" type="curve" smooth="yes"/>
      <point x="210" y="8"/>
      <point x="215" y="49"/>
      <point x="219" y="85" type="curve" smooth="yes"/>
      <point x="226" y="143"/>
      <point x="234" y="202"/>
      <point x="243" y="260" type="curve" smooth="yes"/>
      <point x="244" y="266"/>
      <point x="245" y="273"/>
      <point x="245" y="278" type="curve" smooth="yes"/>
      <point x="245" y="313"/>
      <point x="224" y="333"/>
    </contour>
    <contour>
      <point x="181" y="251" type="curve"/>
      <point x="152" y="204"/>
      <point x="110" y="122"/>
      <point x="78" y="122" type="curve" smooth="yes"/>
      <point x="66" y="122"/>
      <point x="61" y="140"/>
      <point x="61" y="145" type="curve" smooth="yes"/>
      <point x="61" y="173"/>
      <point x="106" y="233"/>
      <point x="132" y="269" type="curve"/>
      <point x="137" y="274"/>
      <point x="146" y="276"/>
      <point x="155" y="276" type="curve" smooth="yes"/>
      <point x="168" y="276"/>
      <point x="169" y="270"/>
    </contour>
  </outline>
</glyph>
<glyph name="b" format="1">
  <advance width="316"/>
  <unicode hex="0062"/>
  <outline>
    <contour>
      <point x="285" y="288" type="curve" name="hr00"/>
      <point x="285" y="298"/>
      <point x="286" y="308"/>
      <point x="286" y="318" type="curve" smooth="yes"/>
      <point x="286" y="353"/>
      <point x="270" y="375"/>
      <point x="243" y="375" type="curve" smooth="yes"/>
      <point x="220" y="375"/>
      <point x="208" y="360"/>
      <point x="190" y="348" type="curve" smooth="yes"/>
      <point x="180" y="341"/>
      <point x="168" y="335"/>
      <point x="158" y="327" type="curve"/>
      <point x="155" y="338"/>
      <point x="151" y="350"/>
      <point x="151" y="360" type="curve"/>
      <point x="151" y="362"/>
      <point x="151" y="365"/>
      <point x="152" y="367" type="curve"/>
      <point x="169" y="458"/>
      <point x="203" y="504"/>
      <point x="211" y="632" type="curve"/>
      <point x="211" y="655"/>
      <point x="194" y="674"/>
      <point x="178" y="674" type="curve" smooth="yes"/>
      <point x="127" y="674"/>
      <point x="99" y="617"/>
      <point x="99" y="563" type="curve" smooth="yes"/>
      <point x="99" y="543"/>
      <point x="106" y="529"/>
      <point x="106" y="513" type="curve" smooth="yes"/>
      <point x="106" y="507"/>
      <point x="105" y="501"/>
      <point x="104" y="495" type="curve" smooth="yes"/>
      <point x="95" y="442"/>
      <point x="84" y="442"/>
      <point x="75" y="388" type="curve" smooth="yes"/>
      <point x="63" y="316"/>
      <point x="50" y="243"/>
      <point x="40" y="170" type="curve"/>
      <point x="32" y="128"/>
      <point x="20" y="82"/>
      <point x="20" y="41" type="curve" smooth="yes"/>
      <point x="20" y="20"/>
      <point x="34" y="6"/>
      <point x="47" y="6" type="curve" smooth="yes"/>
      <point x="65" y="6"/>
      <point x="92" y="46"/>
      <point x="96" y="67" type="curve" smooth="yes"/>
      <point x="115" y="158"/>
      <point x="155" y="240"/>
      <point x="209" y="314" type="curve"/>
      <point x="217" y="323"/>
      <point x="230" y="327"/>
      <point x="240" y="332" type="curve"/>
      <point x="245" y="320"/>
      <point x="252" y="310"/>
      <point x="252" y="300" type="curve" smooth="yes"/>
      <point x="252" y="229"/>
      <point x="222" y="163"/>
      <point x="189" y="104" type="curve" smooth="yes"/>
      <point x="180" y="87"/>
      <point x="129" y="87"/>
      <point x="130" y="67" type="curve" smooth="yes"/>
      <point x="131" y="48"/>
      <point x="140" y="30"/>
      <point x="143" y="11" type="curve"/>
      <point x="163" y="19"/>
      <point x="191" y="26"/>
      <point x="203" y="44" type="curve" smooth="yes"/>
      <point x="254" y="117"/>
      <point x="284" y="197"/>
    </contour>
  </outline>
</glyph>
<glyph name="c" format="1">
  <advance width="227"/>
  <unicode hex="0063"/>
  <outline>
    <contour>
      <point x="185" y="287" type="curve" name="hr00"/>
      <point x="185" y="296" type="line" smooth="yes"/>
      <point x="185" y="323"/>
      <point x="176" y="336"/>
      <point x="154" y="336" type="curve" smooth="yes"/>
      <point x="139" y="336"/>
      <point x="117" y="331"/>
      <point x="100" y="316" type="curve"/>
      <point x="41" y="272"/>
      <point x="20" y="216"/>
      <point x="20" y="153" type="curve" smooth="yes"/>
      <point x="20" y="120"/>
      <point x="26" y="41"/>
      <point x="92" y="41" type="curve" smooth="yes"/>
      <point x="129" y="41"/>
      <point x="197" y="75"/>
      <point x="197" y="107" type="curve" smooth="yes"/>
      <point x="197" y="119"/>
      <point x="190" y="119"/>
      <point x="184" y="119" type="curve" smooth="yes"/>
      <point x="166" y="119"/>
      <point x="140" y="95"/>
      <point x="120" y="95" type="curve" smooth="yes"/>
      <point x="102" y="95"/>
      <point x="86" y="106"/>
      <point x="86" y="126" type="curve" smooth="yes"/>
      <point x="86" y="175"/>
      <point x="95" y="222"/>
      <point x="125" y="263" type="curve" smooth="yes"/>
      <point x="131" y="270"/>
      <point x="137" y="274"/>
      <point x="142" y="274" type="curve" smooth="yes"/>
      <point x="151" y="274"/>
      <point x="158" y="261"/>
      <point x="172" y="241" type="curve"/>
      <point x="178" y="258"/>
      <point x="185" y="268"/>
    </contour>
  </outline>
</glyph>
<glyph name="d" format="1">
  <advance width="344"/>
  <unicode hex="0064"/>
  <outline>
    <contour>
      <point x="22" y="152" type="line" smooth="yes" name="hr00"/>
      <point x="22" y="147"/>
      <point x="20" y="139"/>
      <point x="20" y="129" type="curve" smooth="yes"/>
      <point x="20" y="108"/>
      <point x="39" y="60"/>
      <point x="67" y="60" type="curve" smooth="yes"/>
      <point x="81" y="60"/>
      <point x="94" y="71"/>
      <point x="105" y="82" type="curve" smooth="yes"/>
      <point x="114" y="90"/>
      <point x="127" y="92"/>
      <point x="137" y="97" type="curve"/>
      <point x="139" y="85"/>
      <point x="141" y="75"/>
      <point x="141" y="63" type="curve"/>
      <point x="139" y="42"/>
      <point x="136" y="20"/>
      <point x="136" y="-1" type="curve" smooth="yes"/>
      <point x="136" y="-33"/>
      <point x="146" y="-51"/>
      <point x="163" y="-51" type="curve" smooth="yes"/>
      <point x="221" y="-51"/>
      <point x="236" y="100"/>
      <point x="257" y="184" type="curve" smooth="yes"/>
      <point x="277" y="262"/>
      <point x="302" y="339"/>
      <point x="320" y="418" type="curve" smooth="yes"/>
      <point x="339" y="500"/>
      <point x="342" y="531"/>
      <point x="361" y="614" type="curve" smooth="yes"/>
      <point x="362" y="621"/>
      <point x="364" y="629"/>
      <point x="364" y="636" type="curve" smooth="yes"/>
      <point x="364" y="649"/>
      <point x="356" y="661"/>
      <point x="328" y="661" type="curve" smooth="yes"/>
      <point x="313" y="661"/>
      <point x="302" y="654"/>
      <point x="295" y="636" type="curve" smooth="yes"/>
      <point x="254" y="523"/>
      <point x="224" y="447"/>
      <point x="193" y="360" type="curve" smooth="yes"/>
      <point x="190" y="352"/>
      <point x="183" y="345"/>
      <point x="177" y="338" type="curve"/>
      <point x="159" y="359"/>
      <point x="142" y="383"/>
      <point x="121" y="383" type="curve" smooth="yes"/>
      <point x="57" y="383"/>
      <point x="22" y="256"/>
      <point x="22" y="166" type="curve" smooth="yes"/>
    </contour>
    <contour>
      <point x="56" y="150" type="curve"/>
      <point x="69" y="200"/>
      <point x="93" y="324"/>
      <point x="112" y="324" type="curve" smooth="yes"/>
      <point x="126" y="324"/>
      <point x="161" y="295"/>
      <point x="161" y="275" type="curve" smooth="yes"/>
      <point x="161" y="254"/>
      <point x="109" y="136"/>
      <point x="99" y="130" type="curve" smooth="yes"/>
      <point x="91" y="124"/>
      <point x="79" y="118"/>
      <point x="71" y="118" type="curve"/>
      <point x="65" y="120"/>
      <point x="62" y="136"/>
    </contour>
  </outline>
</glyph>
<glyph name="e" format="1">
  <advance width="249"/>
  <unicode hex="0065"/>
  <outline>
    <contour>
      <point x="20" y="104" type="curve" name="hr00"/>
      <point x="24" y="58"/>
      <point x="28" y="-10"/>
      <point x="105" y="-10" type="curve" smooth="yes"/>
      <point x="143" y="-10"/>
      <point x="205" y="22"/>
      <point x="205" y="63" type="curve" smooth="yes"/>
      <point x="205" y="73"/>
      <point x="199" y="78"/>
      <point x="188" y="78" type="curve" smooth="yes"/>
      <point x="168" y="78"/>
      <point x="150" y="67"/>
      <point x="130" y="67" type="curve" smooth="yes"/>
      <point x="97" y="67"/>
      <point x="100" y="95"/>
      <point x="100" y="114" type="curve" smooth="yes"/>
      <point x="100" y="165"/>
      <point x="151" y="179"/>
      <point x="175" y="218" type="curve" smooth="yes"/>
      <point x="194" y="250"/>
      <point x="229" y="299"/>
      <point x="229" y="334" type="curve" smooth="yes"/>
      <point x="229" y="370"/>
      <point x="201" y="391"/>
      <point x="168" y="391" type="curve" smooth="yes"/>
      <point x="70" y="391"/>
      <point x="22" y="208"/>
    </contour>
    <contour>
      <point x="191" y="312" type="curve"/>
      <point x="176" y="289"/>
      <point x="154" y="240"/>
      <point x="139" y="240" type="curve" smooth="yes"/>
      <point x="134" y="240"/>
      <point x="127" y="249"/>
      <point x="127" y="253" type="curve"/>
      <point x="127" y="254"/>
      <point x="128" y="254"/>
      <point x="128" y="255" type="curve"/>
      <point x="136" y="278"/>
      <point x="150" y="335"/>
      <point x="172" y="335" type="curve" smooth="yes"/>
      <point x="178" y="335"/>
      <point x="184" y="321"/>
    </contour>
  </outline>
</glyph>
<glyph name="f" format="1">
  <advance width="271"/>
  <unicode hex="0066"/>
  <outline>
    <contour>
      <point x="75" y="440" type="curve" name="hr00"/>
      <point x="70" y="440"/>
      <point x="65" y="442"/>
      <point x="61" y="442" type="curve" smooth="yes"/>
      <point x="54" y="442"/>
      <point x="41" y="430"/>
      <point x="35" y="427" type="curve"/>
      <point x="64" y="398"/>
      <point x="105" y="407"/>
      <point x="105" y="380" type="curve" smooth="yes"/>
      <point x="105" y="374"/>
      <point x="104" y="366"/>
      <point x="101" y="356" type="curve"/>
      <point x="66" y="164"/>
      <point x="47" y="63"/>
      <point x="21" y="-72" type="curve" smooth="yes"/>
      <point x="20" y="-75"/>
      <point x="20" y="-78"/>
      <point x="20" y="-81" type="curve" smooth="yes"/>
      <point x="20" y="-99"/>
      <point x="28" y="-119"/>
      <point x="56" y="-119" type="curve" smooth="yes"/>
      <point x="72" y="-119"/>
      <point x="109" y="-73"/>
      <point x="113" y="-57" type="curve" smooth="yes"/>
      <point x="135" y="34"/>
      <point x="125" y="34"/>
      <point x="143" y="126" type="curve" smooth="yes"/>
      <point x="159" y="208"/>
      <point x="172" y="291"/>
      <point x="186" y="375" type="curve"/>
      <point x="191" y="396"/>
      <point x="199" y="409"/>
      <point x="222" y="417" type="curve" smooth="yes"/>
      <point x="272" y="435"/>
      <point x="313" y="466"/>
      <point x="344" y="509" type="curve" smooth="yes"/>
      <point x="353" y="522"/>
      <point x="356" y="541"/>
      <point x="361" y="559" type="curve"/>
      <point x="326" y="529"/>
      <point x="282" y="499"/>
      <point x="242" y="469" type="curve"/>
      <point x="236" y="466"/>
      <point x="229" y="464"/>
      <point x="222" y="464" type="curve" smooth="yes"/>
      <point x="213" y="464"/>
      <point x="204" y="468"/>
      <point x="204" y="479" type="curve" smooth="yes"/>
      <point x="204" y="519"/>
      <point x="237" y="626"/>
      <point x="252" y="626" type="curve" smooth="yes"/>
      <point x="264" y="626"/>
      <point x="268" y="589"/>
      <point x="287" y="589" type="curve"/>
      <point x="311" y="594"/>
      <point x="325" y="618"/>
      <point x="325" y="649" type="curve" smooth="yes"/>
      <point x="325" y="691"/>
      <point x="303" y="727"/>
      <point x="273" y="727" type="curve" smooth="yes"/>
      <point x="168" y="727"/>
      <point x="141" y="563"/>
      <point x="120" y="472" type="curve" smooth="yes"/>
      <point x="115" y="450"/>
      <point x="105" y="439"/>
      <point x="86" y="439" type="curve" smooth="yes"/>
      <point x="83" y="439"/>
      <point x="79" y="439"/>
    </contour>
  </outline>
</glyph>
<glyph name="g" format="1">
  <advance width="271"/>
  <unicode hex="0067"/>
  <outline>
    <contour>
      <point x="-52" y="-303" type="curve" name="hr00"/>
      <point x="-33" y="-294"/>
      <point x="-11" y="-288"/>
      <point x="7" y="-277" type="curve"/>
      <point x="95" y="-211"/>
      <point x="137" y="-115"/>
      <point x="166" y="-15" type="curve" smooth="yes"/>
      <point x="200" y="100"/>
      <point x="223" y="218"/>
      <point x="249" y="335" type="curve" smooth="yes"/>
      <point x="250" y="338"/>
      <point x="251" y="342"/>
      <point x="251" y="347" type="curve" smooth="yes"/>
      <point x="251" y="378"/>
      <point x="234" y="375"/>
      <point x="218" y="375" type="curve" smooth="yes"/>
      <point x="193" y="375"/>
      <point x="181" y="364"/>
      <point x="162" y="364" type="curve"/>
      <point x="90" y="356"/>
      <point x="32" y="292"/>
      <point x="32" y="221" type="curve" smooth="yes"/>
      <point x="32" y="182"/>
      <point x="49" y="161"/>
      <point x="80" y="161" type="curve" smooth="yes"/>
      <point x="90" y="161"/>
      <point x="106" y="166"/>
      <point x="116" y="166" type="curve" smooth="yes"/>
      <point x="125" y="166"/>
      <point x="129" y="161"/>
      <point x="129" y="152" type="curve" smooth="yes"/>
      <point x="129" y="138"/>
      <point x="120" y="110"/>
      <point x="115" y="91" type="curve" smooth="yes"/>
      <point x="93" y="2"/>
      <point x="58" y="-86"/>
      <point x="12" y="-164" type="curve" smooth="yes"/>
      <point x="-13" y="-206"/>
      <point x="-33" y="-221"/>
      <point x="-65" y="-221" type="curve" smooth="yes"/>
      <point x="-79" y="-221"/>
      <point x="-96" y="-215"/>
      <point x="-115" y="-215" type="curve" smooth="yes"/>
      <point x="-125" y="-215"/>
      <point x="-130" y="-220"/>
      <point x="-130" y="-230" type="curve" smooth="yes"/>
      <point x="-130" y="-267"/>
      <point x="-88" y="-297"/>
    </contour>
    <contour>
      <point x="72" y="226" type="curve"/>
      <point x="80" y="261"/>
      <point x="106" y="324"/>
      <point x="143" y="324" type="curve" smooth="yes"/>
      <point x="150" y="324"/>
      <point x="159" y="322"/>
      <point x="166" y="322" type="curve"/>
      <point x="166" y="318" type="line" smooth="yes"/>
      <point x="166" y="311"/>
      <point x="167" y="305"/>
      <point x="167" y="300" type="curve" smooth="yes"/>
      <point x="167" y="279"/>
      <point x="125" y="235"/>
      <point x="110" y="217" type="curve" smooth="yes"/>
      <point x="105" y="212"/>
      <point x="96" y="210"/>
      <point x="89" y="210" type="curve" smooth="yes"/>
      <point x="76" y="210"/>
      <point x="76" y="217"/>
    </contour>
  </outline>
</glyph>
<glyph name="h" format="1">
  <advance width="308"/>
  <unicode hex="0068"/>
  <outline>
    <contour>
      <point x="276" y="270" type="curve" name="hr00"/>
      <point x="275" y="270"/>
      <point x="273" y="270"/>
      <point x="271" y="271" type="curve"/>
      <point x="271" y="281"/>
      <point x="273" y="292"/>
      <point x="273" y="302" type="curve" smooth="yes"/>
      <point x="273" y="332"/>
      <point x="246" y="365"/>
      <point x="227" y="365" type="curve" smooth="yes"/>
      <point x="184" y="365"/>
      <point x="171" y="328"/>
      <point x="143" y="302" type="curve"/>
      <point x="136" y="293"/>
      <point x="124" y="288"/>
      <point x="114" y="282" type="curve"/>
      <point x="113" y="290"/>
      <point x="111" y="300"/>
      <point x="111" y="311" type="curve" smooth="yes"/>
      <point x="111" y="316" type="line"/>
      <point x="135" y="445"/>
      <point x="166" y="571"/>
      <point x="178" y="707" type="curve" smooth="yes"/>
      <point x="179" y="712"/>
      <point x="180" y="719"/>
      <point x="180" y="725" type="curve" smooth="yes"/>
      <point x="180" y="743"/>
      <point x="158" y="767"/>
      <point x="144" y="767" type="curve" smooth="yes"/>
      <point x="114" y="767"/>
      <point x="119" y="708"/>
      <point x="111" y="678" type="curve"/>
      <point x="84" y="529"/>
      <point x="51" y="381"/>
      <point x="26" y="232" type="curve" smooth="yes"/>
      <point x="22" y="208"/>
      <point x="21" y="184"/>
      <point x="21" y="159" type="curve" smooth="yes"/>
      <point x="21" y="127"/>
      <point x="15" y="77"/>
      <point x="40" y="77" type="curve" smooth="yes"/>
      <point x="47" y="77"/>
      <point x="56" y="84"/>
      <point x="60" y="90" type="curve" smooth="yes"/>
      <point x="98" y="150"/>
      <point x="135" y="210"/>
      <point x="173" y="269" type="curve" smooth="yes"/>
      <point x="182" y="284"/>
      <point x="201" y="296"/>
      <point x="215" y="310" type="curve"/>
      <point x="217" y="292"/>
      <point x="223" y="276"/>
      <point x="223" y="260" type="curve" smooth="yes"/>
      <point x="223" y="256"/>
      <point x="222" y="253"/>
      <point x="222" y="250" type="curve"/>
      <point x="214" y="178"/>
      <point x="201" y="107"/>
      <point x="190" y="35" type="curve" smooth="yes"/>
      <point x="188" y="23"/>
      <point x="187" y="10"/>
      <point x="187" y="-2" type="curve" smooth="yes"/>
      <point x="187" y="-30"/>
      <point x="196" y="-48"/>
      <point x="216" y="-48" type="curve" smooth="yes"/>
      <point x="240" y="-48"/>
      <point x="269" y="10"/>
      <point x="288" y="39" type="curve"/>
      <point x="288" y="41" type="line"/>
      <point x="288" y="66"/>
      <point x="245" y="52"/>
      <point x="245" y="75" type="curve" smooth="yes"/>
      <point x="245" y="81"/>
      <point x="246" y="89"/>
      <point x="248" y="101" type="curve" smooth="yes"/>
      <point x="259" y="158"/>
      <point x="267" y="214"/>
    </contour>
  </outline>
</glyph>
<glyph name="i" format="1">
  <advance width="168"/>
  <unicode hex="0069"/>
  <outline>
    <contour>
      <point x="0" y="56" type="curve" name="hr00"/>
      <point x="2" y="56"/>
      <point x="3" y="54"/>
      <point x="3" y="54" type="curve"/>
      <point x="3" y="47" type="line" smooth="yes"/>
      <point x="3" y="32"/>
      <point x="18" y="15"/>
      <point x="27" y="2" type="curve"/>
      <point x="41" y="9"/>
      <point x="63" y="20"/>
      <point x="68" y="39" type="curve" smooth="yes"/>
      <point x="90" y="126"/>
      <point x="112" y="215"/>
      <point x="132" y="303" type="curve"/>
      <point x="132" y="308" type="line" smooth="yes"/>
      <point x="132" y="330"/>
      <point x="115" y="349"/>
      <point x="92" y="349" type="curve" smooth="yes"/>
      <point x="25" y="349"/>
      <point x="36" y="246"/>
      <point x="27" y="196" type="curve" smooth="yes"/>
      <point x="18" y="148"/>
      <point x="10" y="103"/>
    </contour>
    <contour>
      <point x="93" y="487" type="curve"/>
      <point x="99" y="482"/>
      <point x="118" y="461"/>
      <point x="124" y="461" type="curve" smooth="yes"/>
      <point x="149" y="461"/>
      <point x="168" y="518"/>
      <point x="168" y="514" type="curve" smooth="yes"/>
      <point x="168" y="529"/>
      <point x="154" y="537"/>
      <point x="135" y="537" type="curve" smooth="yes"/>
      <point x="110" y="537"/>
      <point x="94" y="523"/>
    </contour>
  </outline>
</glyph>
<glyph name="k" format="1">
  <advance width="306"/>
  <unicode hex="006B"/>
  <outline>
    <contour>
      <point x="20" y="24" type="curve" name="hr00"/>
      <point x="28" y="20"/>
      <point x="29" y="-22"/>
      <point x="32" y="-36" type="curve"/>
      <point x="35" y="-43"/>
      <point x="42" y="-50"/>
      <point x="46" y="-58" type="curve"/>
      <point x="54" y="-53"/>
      <point x="63" y="-49"/>
      <point x="65" y="-43" type="curve" smooth="yes"/>
      <point x="82" y="-1"/>
      <point x="98" y="42"/>
      <point x="111" y="85" type="curve"/>
      <point x="124" y="119"/>
      <point x="118" y="153"/>
      <point x="150" y="181" type="curve"/>
      <point x="156" y="173"/>
      <point x="165" y="166"/>
      <point x="167" y="157" type="curve"/>
      <point x="167" y="140"/>
      <point x="169" y="123"/>
      <point x="169" y="106" type="curve" smooth="yes"/>
      <point x="169" y="94"/>
      <point x="166" y="81"/>
      <point x="166" y="69" type="curve" smooth="yes"/>
      <point x="166" y="39"/>
      <point x="189" y="-5"/>
      <point x="218" y="-5" type="curve" smooth="yes"/>
      <point x="230" y="-5"/>
      <point x="243" y="7"/>
      <point x="246" y="23" type="curve"/>
      <point x="246" y="39"/>
      <point x="200" y="40"/>
      <point x="200" y="72" type="curve" smooth="yes"/>
      <point x="200" y="93"/>
      <point x="206" y="117"/>
      <point x="206" y="139" type="curve" smooth="yes"/>
      <point x="206" y="160"/>
      <point x="197" y="177"/>
      <point x="197" y="193" type="curve" smooth="yes"/>
      <point x="197" y="217"/>
      <point x="211" y="237"/>
      <point x="228" y="257" type="curve" smooth="yes"/>
      <point x="269" y="305"/>
      <point x="306" y="374"/>
      <point x="306" y="438" type="curve" smooth="yes"/>
      <point x="306" y="455"/>
      <point x="296" y="474"/>
      <point x="269" y="474" type="curve" smooth="yes"/>
      <point x="243" y="474"/>
      <point x="217" y="382"/>
      <point x="195" y="336" type="curve" smooth="yes"/>
      <point x="191" y="326"/>
      <point x="181" y="321"/>
      <point x="174" y="315" type="curve"/>
      <point x="171" y="325"/>
      <point x="169" y="336"/>
      <point x="167" y="345" type="curve"/>
      <point x="167" y="350"/>
      <point x="171" y="356"/>
      <point x="171" y="360" type="curve"/>
      <point x="190" y="475"/>
      <point x="207" y="588"/>
      <point x="225" y="703" type="curve"/>
      <point x="225" y="706"/>
      <point x="226" y="709"/>
      <point x="226" y="712" type="curve" smooth="yes"/>
      <point x="226" y="728"/>
      <point x="216" y="743"/>
      <point x="190" y="743" type="curve" smooth="yes"/>
      <point x="153" y="743"/>
      <point x="148" y="646"/>
      <point x="137" y="593" type="curve" smooth="yes"/>
      <point x="97" y="405"/>
      <point x="57" y="219"/>
    </contour>
  </outline>
</glyph>
<glyph name="l" format="1">
  <advance width="197"/>
  <unicode hex="006C"/>
  <outline>
    <contour>
      <point x="20" y="74" type="curve" name="hr00"/>
      <point x="25" y="40"/>
      <point x="32" y="6"/>
      <point x="59" y="6" type="curve" smooth="yes"/>
      <point x="106" y="6"/>
      <point x="150" y="93"/>
      <point x="150" y="137" type="curve" smooth="yes"/>
      <point x="150" y="144"/>
      <point x="135" y="156"/>
      <point x="133" y="155" type="curve" smooth="yes"/>
      <point x="127" y="153"/>
      <point x="122" y="152"/>
      <point x="118" y="152" type="curve" smooth="yes"/>
      <point x="109" y="152"/>
      <point x="107" y="157"/>
      <point x="107" y="165" type="curve" smooth="yes"/>
      <point x="107" y="171"/>
      <point x="109" y="178"/>
      <point x="110" y="184" type="curve" smooth="yes"/>
      <point x="135" y="341"/>
      <point x="167" y="494"/>
      <point x="197" y="651" type="curve"/>
      <point x="197" y="679"/>
      <point x="191" y="704"/>
      <point x="165" y="707" type="curve"/>
      <point x="128" y="707"/>
      <point x="121" y="628"/>
      <point x="113" y="589" type="curve" smooth="yes"/>
      <point x="78" y="419"/>
      <point x="38" y="247"/>
    </contour>
  </outline>
</glyph>
<glyph name="m" format="1">
  <advance width="451"/>
  <unicode hex="006D"/>
  <outline>
    <contour>
      <point x="431" y="281" type="curve" name="hr00"/>
      <point x="428" y="281"/>
      <point x="426" y="282"/>
      <point x="425" y="282" type="curve"/>
      <point x="425" y="291" type="line" smooth="yes"/>
      <point x="425" y="318"/>
      <point x="406" y="339"/>
      <point x="397" y="339" type="curve" smooth="yes"/>
      <point x="355" y="339"/>
      <point x="340" y="304"/>
      <point x="314" y="273" type="curve" smooth="yes"/>
      <point x="304" y="261"/>
      <point x="291" y="255"/>
      <point x="280" y="241" type="curve"/>
      <point x="278" y="266"/>
      <point x="269" y="313"/>
      <point x="256" y="313" type="curve" smooth="yes"/>
      <point x="228" y="313"/>
      <point x="198" y="269"/>
      <point x="169" y="247" type="curve"/>
      <point x="162" y="240"/>
      <point x="150" y="240"/>
      <point x="139" y="235" type="curve"/>
      <point x="138" y="245"/>
      <point x="135" y="255"/>
      <point x="135" y="264" type="curve" smooth="yes"/>
      <point x="135" y="282"/>
      <point x="141" y="298"/>
      <point x="141" y="314" type="curve" smooth="yes"/>
      <point x="141" y="335"/>
      <point x="135" y="358"/>
      <point x="112" y="358" type="curve" smooth="yes"/>
      <point x="90" y="358"/>
      <point x="69" y="350"/>
      <point x="64" y="324" type="curve" smooth="yes"/>
      <point x="48" y="243"/>
      <point x="33" y="164"/>
      <point x="20" y="85" type="curve"/>
      <point x="20" y="78" type="line" smooth="yes"/>
      <point x="20" y="49"/>
      <point x="35" y="31"/>
      <point x="47" y="31" type="curve" smooth="yes"/>
      <point x="63" y="31"/>
      <point x="85" y="59"/>
      <point x="94" y="88" type="curve" smooth="yes"/>
      <point x="116" y="162"/>
      <point x="166" y="231"/>
      <point x="230" y="272" type="curve"/>
      <point x="232" y="264"/>
      <point x="236" y="256"/>
      <point x="236" y="247" type="curve" smooth="yes"/>
      <point x="236" y="216"/>
      <point x="222" y="184"/>
      <point x="222" y="153" type="curve" smooth="yes"/>
      <point x="222" y="144"/>
      <point x="228" y="135"/>
      <point x="232" y="126" type="curve"/>
      <point x="242" y="130"/>
      <point x="256" y="133"/>
      <point x="262" y="142" type="curve" smooth="yes"/>
      <point x="297" y="188"/>
      <point x="325" y="239"/>
      <point x="362" y="280" type="curve" smooth="yes"/>
      <point x="366" y="284"/>
      <point x="375" y="284"/>
      <point x="381" y="286" type="curve"/>
      <point x="382" y="280"/>
      <point x="384" y="273"/>
      <point x="384" y="267" type="curve"/>
      <point x="362" y="169" type="line" smooth="yes"/>
      <point x="352" y="126"/>
      <point x="340" y="82"/>
      <point x="331" y="37" type="curve"/>
      <point x="331" y="29"/>
      <point x="340" y="19"/>
      <point x="344" y="9" type="curve"/>
      <point x="352" y="16"/>
      <point x="365" y="22"/>
      <point x="367" y="31" type="curve"/>
      <point x="399" y="104"/>
      <point x="410" y="198"/>
    </contour>
  </outline>
</glyph>
<glyph name="n" format="1">
  <advance width="277"/>
  <unicode hex="006E"/>
  <outline>
    <contour>
      <point x="207" y="269" type="curve" name="hr00"/>
      <point x="210" y="267"/>
      <point x="211" y="265"/>
      <point x="214" y="265" type="curve"/>
      <point x="200" y="175"/>
      <point x="198" y="78"/>
      <point x="194" y="-12" type="curve"/>
      <point x="194" y="-23"/>
      <point x="201" y="-33"/>
      <point x="204" y="-42" type="curve"/>
      <point x="210" y="-34"/>
      <point x="217" y="-25"/>
      <point x="218" y="-16" type="curve" smooth="yes"/>
      <point x="231" y="80"/>
      <point x="243" y="175"/>
      <point x="255" y="271" type="curve" smooth="yes"/>
      <point x="256" y="279"/>
      <point x="257" y="287"/>
      <point x="257" y="295" type="curve" smooth="yes"/>
      <point x="257" y="311"/>
      <point x="252" y="330"/>
      <point x="232" y="330" type="curve" smooth="yes"/>
      <point x="210" y="330"/>
      <point x="181" y="308"/>
      <point x="167" y="290" type="curve"/>
      <point x="128" y="223" type="line" smooth="yes"/>
      <point x="124" y="216"/>
      <point x="113" y="210"/>
      <point x="106" y="205" type="curve"/>
      <point x="105" y="213"/>
      <point x="101" y="223"/>
      <point x="101" y="231" type="curve" smooth="yes"/>
      <point x="101" y="255"/>
      <point x="106" y="281"/>
      <point x="106" y="305" type="curve" smooth="yes"/>
      <point x="106" y="324"/>
      <point x="99" y="342"/>
      <point x="74" y="342" type="curve" smooth="yes"/>
      <point x="54" y="342"/>
      <point x="40" y="330"/>
      <point x="37" y="308" type="curve" smooth="yes"/>
      <point x="31" y="258" type="line"/>
      <point x="27" y="204"/>
      <point x="20" y="147"/>
      <point x="20" y="93" type="curve" smooth="yes"/>
      <point x="20" y="74"/>
      <point x="27" y="54"/>
      <point x="50" y="54" type="curve" smooth="yes"/>
      <point x="99" y="54"/>
      <point x="141" y="163"/>
      <point x="173" y="220" type="curve" smooth="yes"/>
      <point x="183" y="237"/>
      <point x="194" y="252"/>
    </contour>
  </outline>
</glyph>
<glyph name="o" format="1">
  <advance width="249"/>
  <unicode hex="006F"/>
  <outline>
    <contour>
      <point x="20" y="142" type="curve" name="hr00"/>
      <point x="20" y="59"/>
      <point x="49" y="10"/>
      <point x="93" y="10" type="curve" smooth="yes"/>
      <point x="161" y="10"/>
      <point x="219" y="134"/>
      <point x="219" y="232" type="curve" smooth="yes"/>
      <point x="219" y="270"/>
      <point x="216" y="321"/>
      <point x="188" y="349" type="curve"/>
      <point x="177" y="338"/>
      <point x="171" y="338"/>
      <point x="171" y="322" type="curve" smooth="yes"/>
      <point x="171" y="299"/>
      <point x="181" y="277"/>
      <point x="181" y="256" type="curve" smooth="yes"/>
      <point x="181" y="201"/>
      <point x="159" y="137"/>
      <point x="135" y="83" type="curve"/>
      <point x="131" y="72"/>
      <point x="112" y="66"/>
      <point x="99" y="57" type="curve"/>
      <point x="93" y="71"/>
      <point x="81" y="88"/>
      <point x="81" y="102" type="curve" smooth="yes"/>
      <point x="81" y="162"/>
      <point x="104" y="240"/>
      <point x="144" y="288" type="curve" smooth="yes"/>
      <point x="147" y="291"/>
      <point x="149" y="298"/>
      <point x="149" y="304" type="curve" smooth="yes"/>
      <point x="149" y="321"/>
      <point x="132" y="330"/>
      <point x="119" y="330" type="curve" smooth="yes"/>
      <point x="58" y="330"/>
      <point x="24" y="189"/>
    </contour>
  </outline>
</glyph>
<glyph name="p" format="1">
  <advance width="286"/>
  <unicode hex="0070"/>
  <outline>
    <contour>
      <point x="-20" y="-228" type="line" name="hr00"/>
      <point x="-18" y="-228"/>
      <point x="-17" y="-230"/>
      <point x="-16" y="-230" type="curve"/>
      <point x="-16" y="-237"/>
      <point x="-17" y="-245"/>
      <point x="-17" y="-253" type="curve" smooth="yes"/>
      <point x="-17" y="-269"/>
      <point x="-6" y="-283"/>
      <point x="2" y="-298" type="curve"/>
      <point x="12" y="-290"/>
      <point x="28" y="-284"/>
      <point x="33" y="-274" type="curve"/>
      <point x="67" y="-176"/>
      <point x="74" y="-74"/>
      <point x="94" y="28" type="curve"/>
      <point x="95" y="40"/>
      <point x="117" y="49"/>
      <point x="123" y="49" type="curve" smooth="yes"/>
      <point x="214" y="49"/>
      <point x="251" y="217"/>
      <point x="265" y="298" type="curve" smooth="yes"/>
      <point x="266" y="302"/>
      <point x="266" y="307"/>
      <point x="266" y="311" type="curve" smooth="yes"/>
      <point x="266" y="337"/>
      <point x="248" y="373"/>
      <point x="214" y="373" type="curve" smooth="yes"/>
      <point x="185" y="373"/>
      <point x="157" y="324"/>
      <point x="146" y="324" type="curve" smooth="yes"/>
      <point x="137" y="324"/>
      <point x="117" y="367"/>
      <point x="82" y="369" type="curve"/>
      <point x="44" y="369"/>
      <point x="54" y="294"/>
      <point x="49" y="254" type="curve" smooth="yes"/>
      <point x="40" y="177"/>
      <point x="26" y="101"/>
      <point x="15" y="23" type="curve" smooth="yes"/>
    </contour>
    <contour>
      <point x="179" y="146" type="curve"/>
      <point x="158" y="170"/>
      <point x="138" y="191"/>
      <point x="138" y="209" type="curve"/>
      <point x="138" y="210"/>
      <point x="139" y="212"/>
      <point x="139" y="213" type="curve"/>
      <point x="156" y="249"/>
      <point x="184" y="328"/>
      <point x="210" y="328" type="curve" smooth="yes"/>
      <point x="216" y="328"/>
      <point x="229" y="318"/>
      <point x="229" y="307" type="curve"/>
      <point x="223" y="250"/>
      <point x="204" y="197"/>
    </contour>
  </outline>
</glyph>
<glyph name="q" format="1">
  <advance width="264"/>
  <unicode hex="0071"/>
  <outline>
    <contour>
      <point x="26" y="-241" type="curve" name="hr00"/>
      <point x="28" y="-241"/>
      <point x="30" y="-241"/>
      <point x="32" y="-243" type="curve"/>
      <point x="32" y="-244"/>
      <point x="31" y="-248"/>
      <point x="31" y="-250" type="curve"/>
      <point x="31" y="-264"/>
      <point x="49" y="-294"/>
      <point x="57" y="-294" type="curve" smooth="yes"/>
      <point x="86" y="-294"/>
      <point x="105" y="-258"/>
      <point x="124" y="-238" type="curve" smooth="yes"/>
      <point x="169" y="-191"/>
      <point x="220" y="-156"/>
      <point x="288" y="-151" type="curve"/>
      <point x="296" y="-151"/>
      <point x="305" y="-141"/>
      <point x="314" y="-136" type="curve"/>
      <point x="300" y="-123"/>
      <point x="294" y="-108"/>
      <point x="269" y="-108" type="curve" smooth="yes"/>
      <point x="265" y="-108"/>
      <point x="262" y="-108"/>
      <point x="258" y="-109" type="curve" smooth="yes"/>
      <point x="215" y="-122"/>
      <point x="167" y="-139"/>
      <point x="124" y="-147" type="curve"/>
      <point x="121" y="-138"/>
      <point x="117" y="-128"/>
      <point x="117" y="-119" type="curve" smooth="yes"/>
      <point x="117" y="-116"/>
      <point x="117" y="-114"/>
      <point x="118" y="-112" type="curve" smooth="yes"/>
      <point x="137" y="-25"/>
      <point x="157" y="24"/>
      <point x="178" y="111" type="curve" smooth="yes"/>
      <point x="196" y="189"/>
      <point x="217" y="266"/>
      <point x="237" y="344" type="curve" smooth="yes"/>
      <point x="238" y="348"/>
      <point x="238" y="351"/>
      <point x="238" y="355" type="curve" smooth="yes"/>
      <point x="238" y="371"/>
      <point x="229" y="381"/>
      <point x="213" y="381" type="curve" smooth="yes"/>
      <point x="171" y="381"/>
      <point x="102" y="360"/>
      <point x="73" y="331" type="curve" smooth="yes"/>
      <point x="26" y="285"/>
      <point x="0" y="209"/>
      <point x="0" y="151" type="curve" smooth="yes"/>
      <point x="0" y="136"/>
      <point x="8" y="113"/>
      <point x="34" y="113" type="curve" smooth="yes"/>
      <point x="54" y="113"/>
      <point x="75" y="148"/>
      <point x="81" y="148" type="curve"/>
      <point x="92" y="154"/>
      <point x="100" y="160"/>
      <point x="111" y="164" type="curve"/>
      <point x="112" y="156"/>
      <point x="115" y="146"/>
      <point x="115" y="138" type="curve" smooth="yes"/>
      <point x="115" y="133" type="line"/>
      <point x="86" y="2"/>
      <point x="51" y="-119"/>
    </contour>
    <contour>
      <point x="54" y="175" type="curve"/>
      <point x="50" y="182"/>
      <point x="43" y="183"/>
      <point x="43" y="193" type="curve" smooth="yes"/>
      <point x="43" y="243"/>
      <point x="108" y="330"/>
      <point x="141" y="330" type="curve" smooth="yes"/>
      <point x="157" y="330"/>
      <point x="157" y="316"/>
      <point x="157" y="306" type="curve" smooth="yes"/>
      <point x="157" y="302"/>
      <point x="156" y="299"/>
      <point x="155" y="297" type="curve" smooth="yes"/>
      <point x="126" y="258"/>
      <point x="92" y="200"/>
    </contour>
  </outline>
</glyph>
<glyph name="r" format="1">
  <advance width="263"/>
  <unicode hex="0072"/>
  <outline>
    <contour>
      <point x="313" y="400" type="curve" name="hr00"/>
      <point x="301" y="417"/>
      <point x="302" y="438"/>
      <point x="281" y="438" type="curve" smooth="yes"/>
      <point x="237" y="438"/>
      <point x="206" y="374"/>
      <point x="177" y="338" type="curve" smooth="yes"/>
      <point x="167" y="326"/>
      <point x="155" y="315"/>
      <point x="143" y="304" type="curve"/>
      <point x="137" y="336"/>
      <point x="125" y="381"/>
      <point x="98" y="381" type="curve" smooth="yes"/>
      <point x="34" y="381"/>
      <point x="36" y="238"/>
      <point x="30" y="190" type="curve" smooth="yes"/>
      <point x="23" y="136"/>
      <point x="14" y="82"/>
      <point x="10" y="27" type="curve"/>
      <point x="10" y="14"/>
      <point x="23" y="-1"/>
      <point x="30" y="-14" type="curve"/>
      <point x="52" y="-1"/>
      <point x="68" y="2"/>
      <point x="83" y="38" type="curve" smooth="yes"/>
      <point x="105" y="91"/>
      <point x="120" y="146"/>
      <point x="145" y="197" type="curve" smooth="yes"/>
      <point x="168" y="243"/>
      <point x="229" y="350"/>
      <point x="246" y="350" type="curve" smooth="yes"/>
      <point x="258" y="350"/>
      <point x="266" y="320"/>
      <point x="281" y="320" type="curve" smooth="yes"/>
      <point x="299" y="320"/>
      <point x="304" y="363"/>
    </contour>
  </outline>
</glyph>
<glyph name="t" format="1">
  <advance width="247"/>
  <unicode hex="0074"/>
  <outline>
    <contour>
      <point x="64" y="74" type="curve" name="hr00"/>
      <point x="66" y="74"/>
      <point x="68" y="73"/>
      <point x="70" y="73" type="curve"/>
      <point x="70" y="65"/>
      <point x="69" y="56"/>
      <point x="69" y="47" type="curve" smooth="yes"/>
      <point x="69" y="34"/>
      <point x="78" y="-11"/>
      <point x="103" y="-11" type="curve" smooth="yes"/>
      <point x="112" y="-11"/>
      <point x="127" y="-3"/>
      <point x="136" y="5" type="curve"/>
      <point x="177" y="35"/>
      <point x="177" y="86"/>
      <point x="193" y="129" type="curve"/>
      <point x="193" y="133"/>
      <point x="179" y="146"/>
      <point x="175" y="146" type="curve"/>
      <point x="172" y="145"/>
      <point x="169" y="145"/>
      <point x="167" y="145" type="curve"/>
      <point x="156" y="145"/>
      <point x="153" y="150"/>
      <point x="153" y="158" type="curve" smooth="yes"/>
      <point x="153" y="162"/>
      <point x="154" y="166"/>
      <point x="155" y="171" type="curve" smooth="yes"/>
      <point x="170" y="240"/>
      <point x="182" y="414"/>
      <point x="197" y="482" type="curve" smooth="yes"/>
      <point x="207" y="527"/>
      <point x="286" y="565"/>
      <point x="334" y="598" type="curve" smooth="yes"/>
      <point x="340" y="602"/>
      <point x="342" y="611"/>
      <point x="347" y="617" type="curve"/>
      <point x="341" y="618"/>
      <point x="334" y="620"/>
      <point x="328" y="620" type="curve" smooth="yes"/>
      <point x="297" y="620"/>
      <point x="260" y="590"/>
      <point x="238" y="590" type="curve" smooth="yes"/>
      <point x="225" y="590"/>
      <point x="220" y="597"/>
      <point x="220" y="614" type="curve" smooth="yes"/>
      <point x="220" y="635"/>
      <point x="225" y="669"/>
      <point x="225" y="690" type="curve" smooth="yes"/>
      <point x="225" y="706"/>
      <point x="223" y="723"/>
      <point x="203" y="723" type="curve" smooth="yes"/>
      <point x="156" y="723"/>
      <point x="141" y="674"/>
      <point x="141" y="635" type="curve" smooth="yes"/>
      <point x="141" y="625"/>
      <point x="142" y="614"/>
      <point x="142" y="605" type="curve" smooth="yes"/>
      <point x="142" y="556"/>
      <point x="124" y="535"/>
      <point x="72" y="526" type="curve"/>
      <point x="51" y="521"/>
      <point x="20" y="518"/>
      <point x="20" y="498" type="curve"/>
      <point x="22" y="486"/>
      <point x="34" y="477"/>
      <point x="44" y="477" type="curve" smooth="yes"/>
      <point x="59" y="477"/>
      <point x="75" y="483"/>
      <point x="88" y="483" type="curve" smooth="yes"/>
      <point x="106" y="483"/>
      <point x="115" y="474"/>
      <point x="115" y="456" type="curve" smooth="yes"/>
      <point x="115" y="442"/>
      <point x="110" y="430"/>
      <point x="108" y="418" type="curve" smooth="yes"/>
      <point x="93" y="339"/>
      <point x="79" y="153"/>
    </contour>
  </outline>
</glyph>
